<svg width="40" height="40" viewBox="0 0 40 40" fill="none" xmlns="http://www.w3.org/2000/svg">
<path d="M23.8281 20C23.8281 22.1143 22.1143 23.8281 20 23.8281C17.8857 23.8281 16.1719 22.1143 16.1719 20C16.1719 17.8857 17.8857 16.1719 20 16.1719C22.1143 16.1719 23.8281 17.8857 23.8281 20Z" fill="#C9C9C9"/>
<path d="M28.9524 13.227C28.7684 12.7283 28.4748 12.277 28.0933 11.9065C27.7228 11.525 27.2718 11.2315 26.7728 11.0474C26.3682 10.8903 25.7603 10.7032 24.6406 10.6522C23.4293 10.597 23.0662 10.5851 19.9998 10.5851C16.933 10.5851 16.5699 10.5967 15.3589 10.6519C14.2393 10.7032 13.631 10.8903 13.2267 11.0474C12.7277 11.2315 12.2764 11.525 11.9062 11.9065C11.5247 12.277 11.2311 12.728 11.0468 13.227C10.8896 13.6317 10.7026 14.2399 10.6516 15.3596C10.5964 16.5705 10.5845 16.9337 10.5845 20.0004C10.5845 23.0668 10.5964 23.4299 10.6516 24.6412C10.7026 25.7609 10.8896 26.3688 11.0468 26.7734C11.2311 27.2724 11.5244 27.7235 11.9059 28.0939C12.2764 28.4754 12.7274 28.769 13.2264 28.953C13.631 29.1105 14.2393 29.2976 15.3589 29.3485C16.5699 29.4038 16.9327 29.4154 19.9995 29.4154C23.0665 29.4154 23.4296 29.4038 24.6403 29.3485C25.7599 29.2976 26.3682 29.1105 26.7728 28.953C27.7744 28.5667 28.566 27.775 28.9524 26.7734C29.1096 26.3688 29.2966 25.7609 29.3479 24.6412C29.4031 23.4299 29.4147 23.0668 29.4147 20.0004C29.4147 16.9337 29.4031 16.5705 29.3479 15.3596C29.2969 14.2399 29.1099 13.6317 28.9524 13.227ZM19.9998 25.8973C16.7426 25.8973 14.1022 23.2572 14.1022 20.0001C14.1022 16.7429 16.7426 14.1029 19.9998 14.1029C23.2566 14.1029 25.897 16.7429 25.897 20.0001C25.897 23.2572 23.2566 25.8973 19.9998 25.8973ZM26.1301 15.2479C25.369 15.2479 24.752 14.6308 24.752 13.8697C24.752 13.1086 25.369 12.4915 26.1301 12.4915C26.8912 12.4915 27.5083 13.1086 27.5083 13.8697C27.508 14.6308 26.8912 15.2479 26.1301 15.2479Z" fill="#C9C9C9"/>
<path d="M20 0C8.95599 0 0 8.95599 0 20C0 31.044 8.95599 40 20 40C31.044 40 40 31.044 40 20C40 8.95599 31.044 0 20 0ZM31.4151 24.7348C31.3596 25.9573 31.1652 26.792 30.8813 27.5226C30.2847 29.0652 29.0652 30.2847 27.5226 30.8813C26.7923 31.1652 25.9573 31.3593 24.7351 31.4151C23.5104 31.4709 23.1192 31.4844 20.0003 31.4844C16.8811 31.4844 16.4902 31.4709 15.2652 31.4151C14.043 31.3593 13.208 31.1652 12.4777 30.8813C11.7111 30.593 11.0172 30.141 10.4434 29.5566C9.85931 28.9832 9.40735 28.2889 9.11896 27.5226C8.83514 26.7923 8.64075 25.9573 8.58521 24.7351C8.52875 23.5101 8.51562 23.1189 8.51562 20C8.51562 16.8811 8.52875 16.4899 8.5849 15.2652C8.64044 14.0427 8.83453 13.208 9.11835 12.4774C9.40674 11.7111 9.85901 11.0168 10.4434 10.4434C11.0168 9.85901 11.7111 9.40704 12.4774 9.11865C13.208 8.83484 14.0427 8.64075 15.2652 8.5849C16.4899 8.52905 16.8811 8.51562 20 8.51562C23.1189 8.51562 23.5101 8.52905 24.7348 8.58521C25.9573 8.64075 26.792 8.83484 27.5226 9.11835C28.2889 9.40674 28.9832 9.85901 29.5569 10.4434C30.141 11.0172 30.5933 11.7111 30.8813 12.4774C31.1655 13.208 31.3596 14.0427 31.4154 15.2652C31.4713 16.4899 31.4844 16.8811 31.4844 20C31.4844 23.1189 31.4713 23.5101 31.4151 24.7348Z" fill="#C9C9C9"/>
</svg>
