<svg width="100" height="138" viewBox="0 0 100 138" fill="none" xmlns="http://www.w3.org/2000/svg">
<path d="M90.7567 8.1827C80.8709 3.45834 69.4505 0.74359 57.3163 0.74359C43.7546 0.74359 31.085 4.12821 20.4498 9.98077C19.2007 7.65385 17.3092 5.4327 14.7753 3.66987C11.5633 1.41346 7.99439 0.285256 4.81808 0.25C5.85306 3.21154 8.10146 6.17308 11.2778 8.46475C12.8124 9.5577 14.4184 10.3686 16.0244 10.9327C14.4184 11.4968 12.8124 12.343 11.2778 13.4006C8.06577 15.6571 5.81737 18.6539 4.81808 21.6154C7.99439 21.6154 11.5633 20.4519 14.7753 18.1955C17.2735 16.4327 19.2007 14.2115 20.4141 11.9199C23.1978 13.4359 26.1243 14.8109 29.1578 15.9744L30.7282 16.5032V30.4295C30.7282 41.5353 38.7581 50.8077 49.2863 52.6058V74.8879C50.4641 74.6058 51.7132 74.5 53.0337 74.5353C54.3898 74.5706 55.6746 74.7821 56.8524 75.1699V52.6411C67.3806 50.843 75.4105 41.6058 75.4105 30.4648V19.0769C80.7996 17.8077 85.9387 16.0096 90.721 13.718L84.4755 12.8013L90.7567 8.1827ZM34.7967 30.7116V25.5641L39.7217 31.6635L36.2599 18.3365C36.2242 18.3365 36.1885 18.3365 36.1885 18.3013H36.2599V18.3365C40.614 19.5353 45.1821 20.3814 49.893 20.8045L47.0736 31.6635L50.7496 27.1507V48.5866C41.756 47.4584 34.7967 39.8782 34.7967 30.7116ZM71.342 30.7116C71.342 39.9135 64.347 47.5289 55.3534 48.6218V26.8686L59.2435 31.6635L56.4955 21.1571C56.781 21.1571 57.0308 21.1571 57.3163 21.1571C61.4205 21.1571 65.4534 20.8398 69.3791 20.2404L66.417 31.6635L71.342 25.5641V30.7116ZM73.1978 18.3013C70.4141 17.2436 68.4155 14.7757 68.0586 11.8494L28.3013 10.9327L68.0943 9.62821C68.5583 6.84295 70.5569 4.58654 73.1978 3.5641C71.0922 5.1859 69.7003 7.90064 69.7003 10.9327C69.7003 13.9648 71.0922 16.6795 73.1978 18.3013ZM77.1236 11.4968C75.7317 11.4968 74.5897 10.3686 74.5897 8.99359C74.5897 7.61859 75.7317 6.49039 77.1236 6.49039C78.5155 6.49039 79.6575 7.61859 79.6575 8.99359C79.6575 10.3686 78.5512 11.4968 77.1236 11.4968Z" fill="#434867"/>
<path d="M47.0021 103.904C47.0021 103.904 37.5089 97.8396 40.257 87.439C43.005 77.0384 52.0343 75.6281 57.8515 78.6249C63.6688 81.6217 63.3476 87.5448 62.4911 90.0832C61.6346 92.6217 59.1007 93.7146 59.1007 93.7146V89.0255C59.1007 89.0255 60.8137 82.8909 53.8187 82.8909C46.8237 82.8909 46.2884 88.3909 46.2884 89.3781C46.2884 90.3653 47.0378 92.6922 47.0378 92.6922L47.0021 103.904Z" fill="#434867"/>
<path d="M49.4644 105.279V87.0514C49.4644 87.0514 50.3209 84.9008 53.9612 85.0418C56.6735 85.1476 56.9233 86.3463 56.9233 86.3463V110.673L49.4644 105.279Z" fill="#434867"/>
<path d="M98.5368 126.891C97.7516 126.891 97.1092 127.526 97.1092 128.301C97.1092 131.968 94.0757 134.965 90.364 134.965C86.6524 134.965 83.6188 131.968 83.6188 128.301C83.6188 127.526 82.9764 126.891 82.1913 126.891C81.4061 126.891 80.7637 127.526 80.7637 128.301C80.7637 131.968 77.7302 134.965 74.0185 134.965C70.9493 134.965 68.344 132.92 67.5232 130.135C67.5232 130.064 67.4518 129.782 67.3447 129.324C67.202 128.795 66.9522 128.019 66.5239 127.067C65.5603 124.952 63.7402 121.991 60.2427 118.923C53.7116 113.176 49.1435 109.862 45.3961 107.218C41.6488 104.574 35.0821 97.2757 36.4383 88.1091C37.7944 78.9424 46.9664 75.311 46.9664 75.311V60.1155C46.9664 60.1155 31.1206 60.7853 22.3055 75.6988C13.4547 90.577 19.2006 107.958 22.3055 112.648C25.4104 117.337 32.0485 126.503 32.2984 128.055C32.334 128.337 32.4411 128.724 32.5839 129.148C32.1913 132.426 29.3362 135 25.9101 135C22.1984 135 19.1649 132.003 19.1649 128.337C19.1649 127.561 18.5225 126.926 17.7373 126.926C16.9522 126.926 16.3098 127.561 16.3098 128.337C16.3098 132.003 13.2762 135 9.5646 135C5.85296 135 2.8551 131.968 2.8551 128.301C2.8551 127.526 2.21271 126.891 1.42755 126.891C0.642398 126.891 0 127.526 0 128.301C0 133.519 4.31834 137.75 9.60028 137.75C13.0621 137.75 16.06 135.952 17.773 133.237C19.4504 135.952 22.4839 137.75 25.9101 137.75C29.3719 137.75 32.3697 135.952 34.0828 133.237C35.7602 135.952 38.7937 137.75 42.2555 137.75C45.5746 137.75 48.4654 136.093 50.2141 133.555C51.3919 135.282 53.1406 136.622 55.1749 137.257C56.1028 137.574 57.1021 137.715 58.137 137.715C61.4561 137.715 64.3469 136.058 66.0956 133.555C67.8087 136.058 70.7352 137.715 74.0542 137.715C77.5161 137.715 80.5139 135.917 82.227 133.202C83.9043 135.917 86.9379 137.715 90.3997 137.715C95.6816 137.715 100 133.449 100 128.231C99.9643 127.526 99.3219 126.891 98.5368 126.891ZM55.9957 124.705C57.8872 123.93 60.3141 125.41 61.3847 128.019C62.4554 130.628 61.7773 133.343 59.8501 134.119C57.9586 134.894 55.5318 133.414 54.4611 130.805C53.3904 128.196 54.0685 125.446 55.9957 124.705ZM48.1799 115.574C49.5717 114.446 51.9986 115.01 53.5689 116.878C55.1392 118.747 55.2819 121.215 53.8901 122.343C52.4982 123.471 50.0714 122.907 48.5011 121.039C46.9308 119.17 46.788 116.737 48.1799 115.574ZM40.5068 108.628C41.6131 107.641 43.6117 108.029 44.9679 109.51C46.3241 110.99 46.5382 113 45.3961 113.987C44.2541 114.974 42.2912 114.587 40.935 113.106C39.5789 111.625 39.4004 109.615 40.5068 108.628ZM38.5796 103.551C39.329 105.032 39.0435 106.689 37.9015 107.253C36.7951 107.817 35.2605 107.042 34.5111 105.526C33.7616 104.045 34.0471 102.388 35.1891 101.824C36.3312 101.295 37.8301 102.071 38.5796 103.551ZM35.8672 79.3655C36.3312 78.6956 37.152 78.4136 37.6517 78.7661C38.187 79.1187 38.187 79.9648 37.723 80.6347C37.2591 81.3046 36.4383 81.5866 35.9386 81.2341C35.439 80.8815 35.4033 80.0706 35.8672 79.3655ZM32.798 83.9841C33.2263 82.9969 34.1185 82.3975 34.8323 82.6796C35.546 82.9616 35.7602 83.9841 35.3676 85.0065C34.9393 85.9937 34.0471 86.5931 33.3333 86.311C32.6196 86.029 32.4054 85.0065 32.798 83.9841ZM31.192 90.1892C31.3704 89.0257 32.2627 88.1796 33.1549 88.3206C34.0828 88.4616 34.6538 89.5193 34.4754 90.6828C34.2969 91.8463 33.4047 92.6924 32.5125 92.5514C31.6203 92.4456 31.0136 91.3527 31.192 90.1892ZM31.3704 97.2758C31.3704 95.795 32.2627 94.561 33.369 94.561C34.4754 94.561 35.3676 95.7597 35.3676 97.2758C35.3676 98.7918 34.4754 99.9905 33.369 99.9905C32.2627 99.9905 31.3704 98.7565 31.3704 97.2758Z" fill="#434867"/>
<path d="M59.1722 61.3848V76.0162C59.1722 76.0162 65.739 80.1059 65.739 87.4745C65.739 94.8431 59.2793 97.2053 59.2793 97.2053V106.442C59.2793 106.442 77.3022 104.644 77.3022 85.5354C77.3022 66.1444 59.1722 61.3848 59.1722 61.3848ZM65.275 103.834C64.8111 104.221 64.1687 104.257 63.8475 103.904C63.5263 103.551 63.669 102.917 64.133 102.529C64.5969 102.141 65.2393 102.106 65.5605 102.459C65.8817 102.811 65.7747 103.41 65.275 103.834ZM76.0887 81.904C76.1601 83.0322 75.482 83.9841 74.5898 84.0547C73.6976 84.0899 72.9124 83.2085 72.8411 82.0803C72.7697 80.9521 73.4478 80.0002 74.34 79.9296C75.2322 79.8944 76.0174 80.7758 76.0887 81.904ZM74.5898 76.8976C74.911 77.779 74.5898 78.6957 73.876 78.9072C73.1622 79.1188 72.3771 78.6252 72.0559 77.7438C71.7347 76.8623 72.0559 75.9457 72.7697 75.7341C73.4478 75.4873 74.2686 76.0162 74.5898 76.8976ZM70.4499 71.8912C70.9852 71.6091 71.7347 71.9264 72.163 72.6316C72.5912 73.3367 72.4842 74.1829 71.9845 74.4649C71.4492 74.747 70.6997 74.4296 70.2715 73.7245C69.8432 73.0194 69.9146 72.2085 70.4499 71.8912ZM68.4156 69.3527C68.7011 69.0354 69.3435 69.0707 69.8075 69.4937C70.2715 69.9168 70.4142 70.5162 70.093 70.8335C69.8075 71.1508 69.1651 71.1155 68.7011 70.6925C68.2372 70.2694 68.1301 69.67 68.4156 69.3527ZM68.5941 101.718C67.9517 102.212 67.0952 102.212 66.7026 101.718C66.31 101.225 66.4884 100.378 67.1665 99.8848C67.8089 99.3912 68.6655 99.3912 69.058 99.8848C69.4506 100.378 69.2722 101.225 68.5941 101.718ZM71.8774 98.4393C71.2707 99.1444 70.3428 99.3559 69.7718 98.8976C69.2008 98.4393 69.2365 97.4874 69.8075 96.747C70.4142 96.0418 71.3421 95.8303 71.9131 96.2886C72.4842 96.747 72.4842 97.6989 71.8774 98.4393ZM74.6255 93.8912C74.3043 94.9489 73.3407 95.5835 72.5198 95.3367C71.699 95.0899 71.2707 93.997 71.6276 92.9393C71.9488 91.8816 72.9124 91.247 73.7333 91.4938C74.5541 91.7758 74.9467 92.8335 74.6255 93.8912ZM74.1615 90.2598C73.0552 90.154 72.27 88.9553 72.3771 87.545C72.4842 86.1348 73.5191 85.1123 74.6255 85.1829C75.7318 85.2886 76.517 86.4873 76.4099 87.8976C76.2672 89.3079 75.2679 90.3656 74.1615 90.2598Z" fill="#434867"/>
</svg>
