<svg width="54" height="54" viewBox="0 0 54 54" fill="none" xmlns="http://www.w3.org/2000/svg">
<path d="M19.8233 24.2319C19.9624 24.2321 20.0991 24.1955 20.2194 24.1257C21.432 23.4264 22.5363 22.5543 23.4978 21.5369C23.572 21.4616 23.6306 21.3723 23.6701 21.2742C23.7095 21.1761 23.7291 21.0711 23.7276 20.9653C23.726 20.8596 23.7035 20.7552 23.6613 20.6582C23.6191 20.5613 23.558 20.4737 23.4816 20.4005C23.4052 20.3274 23.315 20.2702 23.2163 20.2322C23.1176 20.1943 23.0123 20.1763 22.9066 20.1794C22.8009 20.1825 22.6968 20.2066 22.6005 20.2503C22.5042 20.294 22.4175 20.3564 22.3456 20.4339C21.4891 21.3406 20.5057 22.1182 19.4259 22.7424C19.2734 22.8299 19.154 22.9653 19.0864 23.1276C19.0188 23.29 19.0068 23.47 19.0521 23.6399C19.0974 23.8098 19.1976 23.9599 19.3371 24.067C19.4766 24.1741 19.6475 24.232 19.8233 24.2319Z" fill="#6A6A6A"/>
<path d="M42.5041 4.78413C37.6892 2.87007 33.1801 4.67567 31.0205 9.38382C29.8289 11.9815 30.5566 13.6713 31.1987 15.162C31.8321 16.6327 32.379 17.9023 31.1504 20.1956C29.2388 23.763 28.979 27.649 30.4878 30.0963C31.2493 31.3309 32.8082 32.7787 35.9307 32.7787C36.0218 32.7787 36.1129 32.7787 36.2041 32.7746C42.4945 32.6069 46.9781 29.9423 48.8287 25.2697C52.3403 16.3779 48.3871 7.12112 42.5041 4.78413ZM47.3431 24.6813C45.1868 30.1359 39.4117 31.0939 36.1603 31.1805C34.1143 31.2215 32.6629 30.588 31.8431 29.2591C30.6455 27.3168 30.9317 23.9772 32.5539 20.9489C34.1457 17.978 33.3573 16.1469 32.661 14.5313C32.0768 13.1741 31.5719 12.002 32.4678 10.0487C33.7893 7.17444 36.076 5.62814 38.7838 5.62814C39.8583 5.64097 40.9206 5.85747 41.9144 6.26617C46.9941 8.28414 50.4715 16.768 47.3431 24.6813Z" fill="#6A6A6A"/>
<path d="M39.818 7.95422C39.1193 7.95422 38.4364 8.16139 37.8555 8.54951C37.2747 8.93764 36.8219 9.4893 36.5546 10.1347C36.2872 10.7802 36.2173 11.4904 36.3536 12.1756C36.4899 12.8608 36.8263 13.4901 37.3203 13.9841C37.8143 14.4781 38.4437 14.8146 39.1289 14.9508C39.814 15.0871 40.5243 15.0172 41.1697 14.7498C41.8151 14.4825 42.3668 14.0298 42.7549 13.4489C43.143 12.868 43.3502 12.1851 43.3502 11.4865C43.3491 10.55 42.9766 9.65218 42.3144 8.98999C41.6522 8.3278 40.7544 7.95531 39.818 7.95422ZM39.818 13.4235C39.4349 13.4235 39.0603 13.3099 38.7418 13.0971C38.4233 12.8842 38.175 12.5817 38.0284 12.2277C37.8818 11.8738 37.8434 11.4843 37.9181 11.1086C37.9929 10.7328 38.1774 10.3877 38.4483 10.1168C38.7192 9.84588 39.0643 9.66139 39.4401 9.58665C39.8158 9.51191 40.2053 9.55027 40.5592 9.69688C40.9132 9.84349 41.2157 10.0918 41.4285 10.4103C41.6414 10.7289 41.755 11.1034 41.755 11.4865C41.7544 12 41.5501 12.4924 41.187 12.8555C40.8239 13.2186 40.3315 13.4229 39.818 13.4235Z" fill="#6A6A6A"/>
<path d="M21.7378 32.786C22.2847 29.8498 20.7754 27.8222 17.1298 26.5881C14.8568 25.8792 12.3975 26.0791 10.2688 27.1459C8.14015 28.2126 6.50788 30.0631 5.71511 32.3084C4.54397 35.6831 6.32392 39.1216 8.64433 40.3748C9.28488 40.73 10.004 40.9194 10.7364 40.9258C11.4731 40.9001 12.1936 40.7023 12.8401 40.3483C13.4867 39.9942 14.0414 39.4937 14.4599 38.8869C15.5481 37.4696 17.041 36.7085 18.3579 36.0372C19.9378 35.231 21.4252 34.4718 21.7378 32.786ZM20.1698 32.4953C20.008 33.3653 19.1454 33.8433 17.6338 34.6135C16.2385 35.3249 14.5023 36.2086 13.1949 37.9134C12.1099 39.3262 10.7619 39.7022 9.40078 38.9685C7.65501 38.0274 6.32575 35.4138 7.22164 32.8307C7.76457 31.3388 8.75511 30.051 10.0578 29.1436C11.3604 28.2361 12.9116 27.7533 14.4991 27.7611C15.219 27.757 15.9347 27.8703 16.6181 28.0966C20.7271 29.4897 20.3507 31.5195 20.1698 32.4953Z" fill="#6A6A6A"/>
<path d="M30.9493 33.8598C28.9256 32.9028 26.1235 32.9634 24.4251 35.252C23.6254 36.3308 22.3289 37.0513 21.1838 37.687C19.7629 38.4768 18.4204 39.2228 18.3698 40.5754C18.2851 42.8135 20.0504 44.0508 23.7666 44.358C24.0401 44.3808 24.3173 44.392 24.5983 44.3917C28.4576 44.3917 32.8222 42.2689 33.6972 38.7616C34.1784 36.8339 33.0738 34.8638 30.9493 33.8598ZM32.1492 38.3765C31.4875 41.0266 27.6337 43.0779 23.8974 42.7698C19.8946 42.4375 19.942 41.1747 19.9625 40.6356C19.9794 40.1799 21.0302 39.5965 21.9575 39.0816C23.1793 38.4025 24.6999 37.5576 25.7052 36.2027C26.0157 35.7805 26.4235 35.4395 26.8939 35.2084C27.3643 34.9774 27.8835 34.8632 28.4075 34.8756C29.0511 34.8801 29.6859 35.0257 30.2672 35.3022C31.3608 35.8185 32.5096 36.9337 32.1492 38.3765Z" fill="#6A6A6A"/>
<path d="M53.9772 18.4028C54.0425 15.4008 53.5466 12.413 52.5149 9.59312C50.9655 5.57905 47.4767 0.666282 39.651 0.0556038C30.5859 -0.643486 27.6776 5.37215 24.8637 11.1964C22.9767 15.1029 21.1944 18.7916 17.6537 20.5935C15.6021 21.5716 13.4752 22.3831 11.2935 23.0203C5.48613 24.8815 0.000455696 26.6406 0 35.0042V40.2451C0 46.4717 5.75772 52.4554 12.8342 53.5834C14.6268 53.865 16.4388 54.0043 18.2534 53.9999C27.504 53.9999 39.0258 50.5582 48.3056 40.7236C51.562 37.2655 53.7949 30.8525 53.9863 24.3656L54 19.4847L53.9772 18.4028ZM47.1418 39.6298C36.3691 51.0509 22.4841 53.5141 13.0853 52.0084C6.9357 51.0281 1.8998 46.0278 1.60906 40.7272C2.81184 42.7386 4.43988 44.4627 6.37909 45.7785C8.31831 47.0944 10.5218 47.9703 12.8351 48.3447C14.6261 48.6256 16.4364 48.7646 18.2493 48.7604C27.504 48.7604 39.029 45.3182 48.3038 35.4827C49.7441 33.8636 50.8859 32.0018 51.6759 29.9838C50.791 33.9327 49.1669 37.4838 47.145 39.6298H47.1418ZM47.1418 34.3889C36.3709 45.8086 22.4886 48.2732 13.084 46.7702C6.74977 45.7585 1.59266 40.4811 1.59266 35.0064C1.59494 27.8041 6.08947 26.364 11.7797 24.5411C14.0432 23.8793 16.2493 23.0353 18.3764 22.0172C22.3966 19.9715 24.3807 15.8649 26.2996 11.8923C28.8515 6.60581 31.2717 1.59779 38.278 1.59779C38.6787 1.59779 39.0949 1.6145 39.5266 1.64792C46.5238 2.1948 49.6431 6.58302 51.0266 10.1701C54.1786 18.3331 51.5762 29.6908 47.1441 34.388L47.1418 34.3889Z" fill="#6A6A6A"/>
</svg>
