<svg width="54" height="54" viewBox="0 0 54 54" fill="none" xmlns="http://www.w3.org/2000/svg">
<path d="M48.8695 14.3235C48.1115 10.1775 44.0539 5.45196 40.7543 4.82783C37.4547 4.20371 32.7283 7.59182 32.7283 7.59182C32.7283 7.59182 30.811 10.8462 31.1231 12.4957C31.3906 14.1451 33.2634 16.6416 32.7283 18.4694C32.1932 20.2972 28.7599 27.4301 31.4798 30.0603C34.1997 32.6906 42.85 32.2002 45.9712 28.4108C49.0924 24.5769 49.6275 18.4694 48.8695 14.3235ZM39.8625 14.0114C38.4803 14.0114 37.3655 12.8969 37.3655 11.5149C37.3655 10.1329 38.4803 9.01839 39.8625 9.01839C41.2448 9.01839 42.3595 10.1329 42.3595 11.5149C42.3595 12.8969 41.2448 14.0114 39.8625 14.0114Z" fill="#F98686"/>
<path d="M29.5178 34.1617C29.5178 34.1617 26.0398 34.1172 25.5939 34.875C25.148 35.6329 25.148 35.6329 25.148 35.6329L19.0394 40.2247L19.5744 42.0079L22.3835 43.2561H26.6195L31.0784 41.5621L33.0849 38.6198L32.1931 35.9004L29.5178 34.1617Z" fill="#F98686"/>
<path d="M10.0325 27.7868C10.0325 27.7868 3.79002 33.8497 7.71385 38.6644C11.6377 43.4791 15.6061 36.3908 15.6061 36.3908L20.0204 34.1618L21.4472 31.2195L19.4407 28.4555L16.1857 27.0289H12.7524L10.0325 27.7868Z" fill="#F98686"/>
<path d="M19.8421 24.2203C19.9759 24.2203 20.1096 24.1757 20.2434 24.1311C21.4473 23.4178 22.562 22.5708 23.4984 21.5455C23.8105 21.2334 23.8105 20.743 23.4984 20.4309C23.1863 20.1189 22.6958 20.1189 22.3837 20.4309C21.5365 21.3226 20.5555 22.125 19.4854 22.7491C19.0841 22.972 18.9503 23.4624 19.1733 23.8191C19.307 24.0865 19.5746 24.2203 19.8421 24.2203Z" fill="#565656"/>
<path d="M42.5377 4.78327C37.7221 2.86631 33.2186 4.69411 31.0784 9.37505C29.8745 11.9607 30.6325 13.6548 31.2567 15.1705C31.881 16.6416 32.416 17.8899 31.2121 20.2081C29.2948 23.7745 29.0273 27.653 30.5433 30.1049C31.3013 31.3532 32.8619 32.7797 35.9831 32.7797C36.0723 32.7797 36.1615 32.7797 36.2507 32.7797C42.5377 32.6014 47.0412 29.9266 48.8693 25.2902C52.3473 16.3742 48.4234 7.14603 42.5377 4.78327ZM47.3533 24.7107C45.213 30.1495 39.4165 31.1303 36.1615 31.2194C34.1104 31.264 32.6835 30.6399 31.8364 29.3025C30.6325 27.3409 30.9446 24.042 32.5498 21.0105C34.155 18.0236 33.3524 16.1958 32.639 14.5909C32.0593 13.2535 31.5688 12.0499 32.4606 10.0883C33.7983 7.23519 36.0723 5.67488 38.7922 5.67488C39.8624 5.67488 40.9325 5.89778 41.9135 6.299C46.9966 8.30512 50.4745 16.7754 47.3533 24.7107Z" fill="#565656"/>
<path d="M39.8178 7.99316C37.8559 7.99316 36.2952 9.55348 36.2952 11.515C36.2952 13.4765 37.8559 15.0369 39.8178 15.0369C41.7797 15.0369 43.3403 13.4765 43.3403 11.515C43.3849 9.55348 41.7797 7.99316 39.8178 7.99316ZM39.8178 13.432C38.7476 13.432 37.9004 12.5849 37.9004 11.515C37.9004 10.4451 38.7476 9.59806 39.8178 9.59806C40.8879 9.59806 41.7351 10.4451 41.7351 11.515C41.7797 12.5849 40.8879 13.432 39.8178 13.432Z" fill="#565656"/>
<path d="M21.7593 32.7797C22.2943 29.8374 20.7783 27.8313 17.1666 26.583C12.4402 25.1119 7.40163 27.6529 5.75184 32.2893C4.59252 35.6774 6.37608 39.1101 8.69471 40.3583C9.31895 40.715 10.0324 40.8933 10.7904 40.8933C12.2618 40.8487 13.6441 40.0909 14.4913 38.8426C15.5614 37.416 17.0774 36.6582 18.3705 35.9895C19.9757 35.2316 21.4472 34.4737 21.7593 32.7797ZM20.1987 32.5122C20.0203 33.4038 19.1731 33.8496 17.6571 34.6075C16.2748 35.3208 14.5359 36.2124 13.1982 37.9064C12.1281 39.333 10.7458 39.6896 9.40813 38.9763C7.66917 38.0402 6.3315 35.4099 7.22328 32.8243C8.338 29.7482 11.2363 27.7421 14.4913 27.7421C15.2047 27.7421 15.9181 27.8313 16.6315 28.0987C20.7337 29.4807 20.377 31.5314 20.1987 32.5122Z" fill="#565656"/>
<path d="M30.9892 33.8497C28.9827 32.9135 26.1736 32.9581 24.4792 35.2317C23.6766 36.3016 22.3836 37.0149 21.2243 37.6836C19.7974 38.4861 18.4597 39.1994 18.4152 40.5813C18.326 42.8104 20.1095 44.0586 23.8104 44.3707C24.0779 44.4153 24.3455 44.4153 24.6576 44.4153C28.5368 44.4153 32.862 42.2754 33.7537 38.7981C34.1996 36.8366 33.0849 34.8751 30.9892 33.8497ZM32.1931 38.3969C31.5243 41.0271 27.6897 43.0778 23.9442 42.8104C19.9312 42.4983 19.9758 41.2055 20.0203 40.6705C20.0203 40.2247 21.0905 39.6452 22.0268 39.1102C23.2308 38.4415 24.7468 37.5945 25.7723 36.2125C26.3966 35.3654 27.4221 34.8751 28.4922 34.8751C29.1165 34.8751 29.7853 35.0088 30.365 35.3209C31.3905 35.8112 32.5498 36.9258 32.1931 38.3969Z" fill="#565656"/>
<path d="M53.9972 18.4249C54.0418 15.438 53.5513 12.4511 52.5258 9.59796C50.9652 5.58572 47.4872 0.681882 39.6842 0.0577569C30.6326 -0.655529 27.7343 5.36282 24.8806 11.2028C23.0079 15.1259 21.2243 18.7815 17.6572 20.6093C15.6061 21.5901 13.4659 22.3925 11.281 23.0166C5.48445 24.889 0 26.6277 0 35.0088V40.2692C0 46.5105 5.75198 52.4843 12.8416 53.5988C14.6252 53.8663 16.4533 54 18.2815 54C27.5114 54 39.0599 50.5673 48.3344 40.7151C51.5894 37.2378 53.8189 30.8628 53.9972 24.3541V19.4948V18.4249ZM47.1751 39.6451C36.3846 51.0577 22.5174 53.5096 13.1091 52.0385C6.95587 51.0577 1.91733 46.0647 1.6498 40.7596C4.10219 44.8164 8.20436 47.625 12.8862 48.3829C14.6698 48.6504 16.4979 48.7841 18.2815 48.7841C27.556 48.7841 39.0599 45.3514 48.3344 35.4992C49.7613 33.8943 50.9206 32.0219 51.7232 30.0158C50.8314 33.9388 49.1816 37.5053 47.1751 39.6451ZM47.1751 34.3846C36.3846 45.7972 22.5174 48.2491 13.1091 46.778C6.77752 45.7526 1.6052 40.4922 1.6052 35.0088C1.6052 27.8313 6.10868 26.3602 11.7715 24.5324C14.0455 23.8637 16.2304 23.0166 18.3707 21.9913C22.3837 19.9406 24.3902 15.8392 26.3075 11.8716C28.849 6.56649 31.2568 1.57349 38.3019 1.57349C38.7032 1.57349 39.1045 1.57349 39.5504 1.61807C46.5509 2.15303 49.6721 6.56649 51.0543 10.1329C54.1756 18.3357 51.5894 29.7037 47.1751 34.3846Z" fill="#565656"/>
</svg>
