<svg width="40" height="40" viewBox="0 0 40 40" fill="none" xmlns="http://www.w3.org/2000/svg">
<circle cx="20" cy="20" r="20" fill="#C9C9C9"/>
<path d="M18.248 26L15.736 22.4C17.192 21.776 18.04 20.544 18.04 18.864C18.04 16.352 16.168 14.8 13.176 14.8H8.328V26H10.92V22.88H13.176H13.304L15.464 26H18.248ZM15.416 18.864C15.416 20.08 14.616 20.816 13.032 20.816H10.92V16.912H13.032C14.616 16.912 15.416 17.632 15.416 18.864ZM25.0696 26.192C28.2536 26.192 30.1416 24.368 30.1416 21.072V14.8H27.5816V20.976C27.5816 23.104 26.6696 23.984 25.0856 23.984C23.5176 23.984 22.5896 23.104 22.5896 20.976V14.8H19.9976V21.072C19.9976 24.368 21.8856 26.192 25.0696 26.192Z" fill="#EDF1F2"/>
</svg>
