<svg width="40" height="40" viewBox="0 0 40 40" fill="none" xmlns="http://www.w3.org/2000/svg">
<path d="M39.044 7.58972C38.2952 6.74255 37.2277 6.27594 36.0386 6.27594H7.28943L7.00007 4.1275C6.68822 1.81305 5.06116 0 3.29573 0H1.18332C0.52972 0 0 0.524597 0 1.17188C0 1.81915 0.52972 2.34375 1.18332 2.34375H3.29573C3.67538 2.34375 4.47936 3.13873 4.65408 4.43726L8.04133 29.5966C8.19048 30.7056 8.76581 31.7438 9.66131 32.5201C10.3254 33.096 11.1103 33.479 11.9324 33.6392C11.5975 34.2493 11.407 34.9481 11.407 35.69C11.407 38.0667 13.3595 40 15.7591 40C18.1587 40 20.1112 38.0667 20.1112 35.69C20.1112 34.982 19.9368 34.314 19.6299 33.7241H25.8306C25.5236 34.314 25.3492 34.982 25.3492 35.69C25.3492 38.0667 27.3017 40 29.7013 40C32.1009 40 34.0534 38.0667 34.0534 35.69C34.0534 34.982 33.879 34.314 33.5721 33.7241H36.6724C37.3257 33.7241 37.8557 33.1992 37.8557 32.5522C37.8557 31.9049 37.3257 31.3803 36.6724 31.3803H12.8017C11.6455 31.3803 10.5399 30.4214 10.387 29.2865L10.1396 27.4478H19.3494C19.3497 27.4478 19.35 27.4481 19.3504 27.4481C19.3507 27.4481 19.351 27.4478 19.3516 27.4478H26.9538C26.9541 27.4478 26.9544 27.4481 26.955 27.4481C26.9553 27.4481 26.9553 27.4478 26.9556 27.4478H33.5037C34.6334 27.4478 35.7486 27.0203 36.6441 26.2442C37.5396 25.4678 38.1149 24.4293 38.2641 23.3203L39.9614 10.7135C40.1185 9.5462 39.7928 8.43689 39.044 7.58972ZM17.7446 35.69C17.7446 36.7743 16.854 37.6562 15.7591 37.6562C14.6645 37.6562 13.7737 36.7743 13.7737 35.69C13.7737 34.606 14.6645 33.7241 15.7591 33.7241C16.854 33.7241 17.7446 34.606 17.7446 35.69ZM31.6868 35.69C31.6868 36.7743 30.7962 37.6562 29.7013 37.6562C28.6064 37.6562 27.7159 36.7743 27.7159 35.69C27.7159 34.606 28.6064 33.7241 29.7013 33.7241C30.7962 33.7241 31.6868 34.606 31.6868 35.69ZM37.2632 9.13361C37.5562 9.46503 37.6813 9.91577 37.6154 10.4034L36.9039 15.69H28.8524L29.3281 8.61969H36.0386C36.5356 8.61969 36.9704 8.80219 37.2632 9.13361ZM20.4585 25.1041L19.9824 18.0338H26.3227L25.8466 25.1041H20.4585ZM19.8246 15.69L19.3488 8.61969H26.9563L26.4805 15.69H19.8246ZM16.9769 8.61969L17.4527 15.69H8.55657L7.60468 8.61969H16.9769ZM8.87212 18.0338H17.6105L18.0866 25.1041H9.82402L8.87212 18.0338ZM33.5037 25.1041H28.2185L28.6946 18.0338H36.5883L35.9184 23.0106C35.7655 24.1455 34.6596 25.1041 33.5037 25.1041Z" fill="#5E6A85"/>
</svg>
