<svg width="54" height="54" viewBox="0 0 54 54" fill="none" xmlns="http://www.w3.org/2000/svg">
<path d="M22.5 53C24.1 53 23.8333 50.6666 23.5 49.5C20.5 49.0272 13.9 46.4654 11.5 40C9.09999 33.5346 16.1667 27.3061 20 25V8.49996C13.6667 6.49996 2.5 12.9999 0.99999 28.4999C0.223578 36.5228 4.47523 44.3067 10 48.5C15.149 52.4081 21.5352 53 22.5 53Z" fill="#FFB7A0"/>
<path d="M43.3283 1.86609H14.8704C14.3238 1.86609 13.879 1.42138 13.879 0.87473C13.879 0.391529 13.4874 0 13.0043 0C12.5212 0 12.1296 0.391529 12.1296 0.87473C12.1296 2.38603 13.3591 3.61555 14.8704 3.61555H43.3283C48.248 3.61555 52.2505 7.61797 52.2505 12.5378C52.2505 16.9285 49.0617 20.5859 44.879 21.3223C47.069 18.8596 48.4017 15.6184 48.4017 12.0713V10.2052C48.4017 8.69388 47.1722 7.46436 45.6609 7.46436H20.4687C14.3059 7.46436 9.08145 9.842 5.36 14.3402C1.90353 18.5182 0 24.3395 0 30.7322C0 43.5621 10.4379 54 23.2678 54H34.4644C34.7675 54 35.049 53.843 35.2085 53.5851C35.3679 53.3272 35.3824 53.0051 35.2467 52.734L33.5563 49.3532L35.2765 45.0527C35.4073 44.7256 35.3292 44.3522 35.0784 44.1049C34.8276 43.8576 34.4529 43.7849 34.1279 43.9204L23.0981 48.5161C16.9701 48.4251 12.013 43.4126 12.013 37.2635C12.013 31.1926 16.8449 26.2297 22.8647 26.0167L26.8286 30.7732C26.9768 30.951 27.0583 31.1764 27.0583 31.4078V36.3305C27.0583 36.8137 27.45 37.2052 27.933 37.2052C28.4161 37.2052 28.8078 36.8137 28.8078 36.3305V31.4078C28.8078 30.7679 28.5821 30.1447 28.1725 29.6531L25.1354 26.0086H27.5233L31.4938 30.7732C31.642 30.951 31.7235 31.1764 31.7235 31.4078V36.3305C31.7235 36.8137 32.1152 37.2052 32.5983 37.2052C33.0814 37.2052 33.473 36.8137 33.473 36.3305V31.4078C33.473 30.7679 33.2473 30.1447 32.8377 29.6531L29.8007 26.0086H32.1885L36.159 30.7732C36.3072 30.951 36.3888 31.1764 36.3888 31.4078V36.3305C36.3888 36.8137 36.7804 37.2052 37.2635 37.2052C37.7466 37.2052 38.1382 36.8137 38.1382 36.3305V31.4078C38.1382 30.7679 37.9125 30.1447 37.5029 29.6531L34.4659 26.0086C37.6038 26.0083 40.5026 24.9651 42.8346 23.2082C42.8437 23.2085 42.8527 23.2096 42.8618 23.2096H43.3283C49.2127 23.2096 54 18.4223 54 12.5379C54 6.65355 49.2127 1.86609 43.3283 1.86609ZM46.6523 10.2052V12.0713C46.6523 18.7916 41.1849 24.2592 34.4644 24.2592H23.2678C23.2667 24.2592 23.2654 24.2592 23.2642 24.2592C23.2634 24.2592 23.2625 24.2592 23.2616 24.2592C22.61 24.2595 21.9696 24.3084 21.3434 24.4017V9.21382H45.6609C46.2076 9.21382 46.6523 9.65854 46.6523 10.2052ZM19.594 9.23283V24.7884C18.1744 25.2072 16.8553 25.8618 15.682 26.7074L6.54951 15.6522C6.60223 15.5866 6.65436 15.5203 6.7079 15.4555C9.90941 11.5857 14.3511 9.44627 19.594 9.23283ZM11.3927 42.5606L7.05044 44.8595C3.80846 41.1429 1.8213 36.3056 1.75296 31.014L10.681 33.9899C10.4087 35.0362 10.2635 36.1332 10.2635 37.2635C10.2635 39.1491 10.6677 40.9418 11.3927 42.5606ZM31.8159 49.7843L33.049 52.2505H24.1425V49.9762L32.879 46.3361L31.7862 49.0683C31.6933 49.3002 31.7042 49.5608 31.8159 49.7843ZM22.3931 50.2388V52.233C16.9279 52.0132 11.9818 49.7443 8.3013 46.1768L12.2137 44.1055C14.365 47.5683 18.0965 49.9519 22.3931 50.2388ZM11.2361 32.3308L1.79005 29.1822C2.02646 24.6111 3.30975 20.4321 5.48736 17.1132L14.334 27.8224C13.0061 29.0799 11.9426 30.6138 11.2361 32.3308Z" fill="#565656"/>
<path d="M35.397 16.6781C36.9084 16.6781 38.1381 15.4485 38.1381 13.937C38.1381 12.4256 36.9084 11.1959 35.397 11.1959C33.8855 11.1959 32.6559 12.4256 32.6559 13.937C32.6559 15.4485 33.8855 16.6781 35.397 16.6781ZM35.397 12.9456C35.9437 12.9456 36.3884 13.3903 36.3884 13.937C36.3884 14.4837 35.9437 14.9285 35.397 14.9285C34.8503 14.9285 34.4055 14.4837 34.4055 13.937C34.4055 13.3903 34.8503 12.9456 35.397 12.9456Z" fill="#565656"/>
</svg>
