<svg width="29" height="54" viewBox="0 0 29 54" fill="none" xmlns="http://www.w3.org/2000/svg">
<path d="M13.8298 51.3163C13.8298 51.7988 13.4489 52.1899 12.9789 52.1899H2.67357C1.20164 52.1899 0.00408936 50.9605 0.00408936 49.4494V22.9421C0.00408936 18.7941 2.44831 15.0477 6.14587 13.4322V4.79996C5.83065 4.49545 5.64088 4.06538 5.64088 3.60262V1.64387C5.64088 0.945615 6.07305 0.321611 6.71638 0.0911045C6.88718 0.0304514 7.06346 0 7.24216 0H12.8937C13.0724 0 13.2486 0.0304514 13.4176 0.0906053C14.0628 0.321861 14.4949 0.945864 14.4949 1.644V3.60275C14.4949 4.06551 14.3052 4.49545 13.99 4.80008V13.4323C16.0385 14.3279 17.7496 15.8997 18.8498 17.9109C19.0799 18.3316 18.9343 18.8641 18.5245 19.1004C18.1146 19.3364 17.596 19.187 17.3659 18.7664C16.3673 16.9409 14.7647 15.5505 12.8533 14.8514C12.5143 14.7275 12.288 14.3979 12.288 14.0285V5.24662H12.0946C11.6246 5.24662 11.2436 4.85549 11.2436 4.37302C11.2436 3.89054 11.6246 3.49941 12.0946 3.49941H12.793V1.74708H7.34282V3.49941H8.04134C8.51131 3.49941 8.8923 3.89054 8.8923 4.37302C8.8923 4.85549 8.51131 5.24662 8.04134 5.24662H7.8478V14.0283C7.8478 14.3978 7.62145 14.7272 7.28252 14.8513C3.94698 16.0716 1.7059 19.3231 1.7059 22.9421V49.4493C1.7059 49.997 2.13989 50.4426 2.67345 50.4426H12.9788C13.4489 50.4427 13.8298 50.8337 13.8298 51.3163ZM6.57549 17.624C4.7447 18.6951 3.60732 20.6961 3.60732 22.8458V46.6123C3.60732 47.0948 3.98831 47.4859 4.45829 47.4859C4.92826 47.4859 5.30925 47.0948 5.30925 46.6123V22.8458C5.30925 21.3223 6.1173 19.9031 7.41819 19.1418C7.82653 18.9029 7.96876 18.3695 7.73608 17.9503C7.50341 17.5311 6.98371 17.3849 6.57549 17.624ZM23.9898 33.1931C23.5231 33.2503 23.19 33.6849 23.2457 34.1639C23.3372 34.9513 23.0778 35.7432 22.515 36.3939C21.8159 37.2023 20.7668 37.6851 19.7088 37.6851C19.2388 37.6851 18.8578 38.0762 18.8578 38.5587C18.8578 39.0411 19.2388 39.4323 19.7088 39.4323C21.2459 39.4323 22.7707 38.73 23.7878 37.5538C24.678 36.5244 25.0856 35.2471 24.9356 33.957C24.88 33.4778 24.4567 33.1354 23.9898 33.1931ZM26.1618 39.9244C24.7411 41.5675 22.6936 42.6258 20.5598 42.8509V52.2527H23.2691C23.7391 52.2527 24.1201 52.6438 24.1201 53.1263C24.1201 53.6087 23.7391 53.9999 23.2691 53.9999H19.7233C19.7184 54 19.7137 54 19.7088 54C19.7039 54 19.6992 54 19.6943 53.9999H16.1485C15.6785 53.9999 15.2975 53.6087 15.2975 53.1263C15.2975 52.6438 15.6785 52.2527 16.1485 52.2527H18.858V42.8509C16.724 42.6258 14.6766 41.5674 13.2557 39.9242C11.865 38.3156 11.2275 36.3249 11.461 34.3187L12.0817 28.983C12.0828 28.9714 12.0843 28.9597 12.0857 28.9483L12.7872 22.9186C12.8382 22.4793 13.2012 22.1486 13.6322 22.1486H25.7857C26.2166 22.1486 26.5795 22.4793 26.6307 22.9186L27.957 34.3188C28.1901 36.325 27.5526 38.3159 26.1618 39.9244ZM26.2668 34.5259L25.0301 23.8957H14.3875L13.8351 28.6439C16.1248 30.0656 19.9408 29.9891 23.1513 28.406C23.5747 28.197 24.0834 28.3803 24.2869 28.8151C24.4904 29.25 24.3119 29.7719 23.8883 29.9809C20.4169 31.6928 16.4127 31.8561 13.6188 30.5035L13.1509 34.5257C12.976 36.0292 13.4651 37.5343 14.5285 38.7642C15.8194 40.2572 17.756 41.1485 19.7087 41.1485C21.6615 41.1485 23.5981 40.2572 24.889 38.7643C25.9523 37.5347 26.4418 36.0293 26.2668 34.5259Z" fill="#6A6A6A"/>
</svg>
