<svg width="28" height="54" viewBox="0 0 28 54" fill="none" xmlns="http://www.w3.org/2000/svg">
<path d="M12.5 36.5L13 29.5L17.5 31L22 30L26 27.5C26.3333 29 27 32.7 27 35.5C27 39 21.5 42 19.5 42C17.9 42 15.1667 40.6667 14 40L12.5 36.5Z" fill="#CC3434"/>
<path d="M13.8258 51.3163C13.8258 51.7988 13.4448 52.1899 12.9748 52.1899H2.66948C1.19755 52.1899 0 50.9605 0 49.4494V22.9421C0 18.7941 2.44422 15.0477 6.14178 13.4322V4.79996C5.82656 4.49544 5.6368 4.06538 5.6368 3.60262V1.64387C5.6368 0.945615 6.06896 0.321611 6.71229 0.0911045C6.8831 0.0304514 7.05937 0 7.23807 0H12.8896C13.0683 0 13.2445 0.0304514 13.4135 0.0906053C14.0587 0.321861 14.4908 0.945864 14.4908 1.644V3.60275C14.4908 4.06551 14.3011 4.49544 13.9859 4.80008V13.4323C16.0344 14.3279 17.7455 15.8997 18.8457 17.9109C19.0759 18.3316 18.9302 18.8641 18.5204 19.1004C18.1105 19.3364 17.5919 19.187 17.3618 18.7664C16.3632 16.9409 14.7606 15.5505 12.8492 14.8514C12.5102 14.7275 12.2839 14.3979 12.2839 14.0285V5.24662H12.0905C11.6205 5.24662 11.2396 4.85549 11.2396 4.37301C11.2396 3.89054 11.6205 3.49941 12.0905 3.49941H12.7889V1.74708H7.33873V3.49941H8.03725C8.50722 3.49941 8.88821 3.89054 8.88821 4.37301C8.88821 4.85549 8.50722 5.24662 8.03725 5.24662H7.84371V14.0283C7.84371 14.3978 7.61736 14.7272 7.27843 14.8513C3.94289 16.0716 1.70181 19.3231 1.70181 22.9421V49.4493C1.70181 49.997 2.1358 50.4426 2.66936 50.4426H12.9747C13.4448 50.4427 13.8258 50.8337 13.8258 51.3163ZM6.5714 17.624C4.74061 18.6951 3.60323 20.6961 3.60323 22.8458V46.6123C3.60323 47.0948 3.98422 47.4859 4.4542 47.4859C4.92417 47.4859 5.30516 47.0948 5.30516 46.6123V22.8458C5.30516 21.3223 6.11322 19.9031 7.4141 19.1418C7.82244 18.9029 7.96467 18.3695 7.73199 17.9503C7.49932 17.5311 6.97962 17.3849 6.5714 17.624ZM23.9857 33.1931C23.519 33.2503 23.1859 33.6849 23.2416 34.1639C23.3331 34.9513 23.0737 35.7432 22.511 36.3939C21.8118 37.2023 20.7627 37.6851 19.7047 37.6851C19.2347 37.6851 18.8538 38.0762 18.8538 38.5587C18.8538 39.0411 19.2347 39.4323 19.7047 39.4323C21.2418 39.4323 22.7666 38.73 23.7838 37.5538C24.6739 36.5244 25.0815 35.2471 24.9315 33.957C24.8759 33.4778 24.4526 33.1354 23.9857 33.1931ZM26.1577 39.9244C24.737 41.5675 22.6895 42.6258 20.5557 42.8509V52.2527H23.265C23.735 52.2527 24.116 52.6438 24.116 53.1263C24.116 53.6087 23.735 53.9999 23.265 53.9999H19.7192C19.7143 54 19.7096 54 19.7047 54C19.6999 54 19.6951 54 19.6902 53.9999H16.1444C15.6744 53.9999 15.2934 53.6087 15.2934 53.1263C15.2934 52.6438 15.6744 52.2527 16.1444 52.2527H18.8539V42.8509C16.7199 42.6258 14.6725 41.5674 13.2516 39.9242C11.8609 38.3155 11.2234 36.3249 11.4569 34.3187L12.0776 28.983C12.0787 28.9713 12.0802 28.9597 12.0816 28.9483L12.7831 22.9186C12.8341 22.4793 13.1971 22.1486 13.6281 22.1486H25.7816C26.2125 22.1486 26.5754 22.4793 26.6266 22.9186L27.9529 34.3188C28.186 36.325 27.5486 38.3159 26.1577 39.9244ZM26.2627 34.5258L25.026 23.8957H14.3834L13.831 28.6439C16.1207 30.0656 19.9367 29.9891 23.1472 28.406C23.5707 28.197 24.0793 28.3803 24.2828 28.8151C24.4863 29.25 24.3078 29.7719 23.8842 29.9809C20.4128 31.6928 16.4086 31.8561 13.6147 30.5035L13.1468 34.5257C12.9719 36.0292 13.4611 37.5343 14.5244 38.7642C15.8153 40.2572 17.7519 41.1485 19.7046 41.1485C21.6574 41.1485 23.594 40.2572 24.8849 38.7643C25.9483 37.5347 26.4377 36.0293 26.2627 34.5258Z" fill="#565656"/>
</svg>
