<svg width="48" height="55" viewBox="0 0 48 55" fill="none" xmlns="http://www.w3.org/2000/svg">
<path d="M22 12.5L1.5 13L2.5 10.5L5 8.50004C5.16667 7.33336 5.8 4.7 7 3.5C8.2 2.3 11.8333 3 13.5 3.5C14 3.00001 15.4 1.80004 17 1.00004C18.6 0.200035 22 1.66671 23.5 2.50004C24.3333 2.16671 26.5 1.60004 28.5 2.00004C30.5 2.40004 31.3333 5.83338 31.5 7.50004C31.1667 7.66671 31 8.10004 33 8.50004C35 8.90004 36.1667 11.6667 36.5 13L22 12.5Z" fill="#FFCB7D"/>
<path d="M18.9784 18.6842C16.6231 18.6842 14.7069 20.5654 14.7069 22.8776V39.8634C14.7069 40.3031 15.07 40.6596 15.5179 40.6596C15.9659 40.6596 16.329 40.3031 16.329 39.8634V22.8776C16.329 21.4435 17.5175 20.2766 18.9784 20.2766C20.4392 20.2766 21.6278 21.4435 21.6278 22.8776V24.5767C21.6278 25.0164 21.9909 25.3729 22.4388 25.3729C22.8867 25.3729 23.2498 25.0164 23.2498 24.5767V22.8776C23.2498 20.5654 21.3336 18.6842 18.9784 18.6842Z" fill="#565656"/>
<path d="M22.4388 32.2729C21.9909 32.2729 21.6278 32.6294 21.6278 33.0692V43.2608C21.6278 44.695 20.4392 45.8618 18.9784 45.8618C17.5175 45.8618 16.329 44.695 16.329 43.2608C16.329 42.8211 15.9659 42.4646 15.5179 42.4646C15.07 42.4646 14.7069 42.8211 14.7069 43.2608C14.7069 45.573 16.6231 47.4542 18.9784 47.4542C21.3336 47.4542 23.2498 45.573 23.2498 43.2608V33.0692C23.2498 32.6294 22.8867 32.2729 22.4388 32.2729Z" fill="#565656"/>
<path d="M22.4396 27.1771C21.9917 27.1771 21.6285 27.5337 21.6285 27.9734V29.6726C21.6285 30.1124 21.9917 30.4689 22.4396 30.4689C22.8875 30.4689 23.2506 30.1124 23.2506 29.6726V27.9734C23.2506 27.5337 22.8875 27.1771 22.4396 27.1771Z" fill="#565656"/>
<path d="M29.3603 18.6842C27.005 18.6842 25.0888 20.5654 25.0888 22.8776V39.8634C25.0888 40.3031 25.4519 40.6596 25.8998 40.6596C26.3478 40.6596 26.7109 40.3031 26.7109 39.8634V22.8776C26.7109 21.4435 27.8994 20.2766 29.3603 20.2766C30.8211 20.2766 32.0096 21.4435 32.0096 22.8776V24.5767C32.0096 25.0164 32.3728 25.3729 32.8207 25.3729C33.2686 25.3729 33.6317 25.0164 33.6317 24.5767V22.8776C33.6317 20.5654 31.7155 18.6842 29.3603 18.6842Z" fill="#565656"/>
<path d="M32.8207 32.2729C32.3728 32.2729 32.0096 32.6294 32.0096 33.0692V43.2608C32.0096 44.695 30.8211 45.8618 29.3603 45.8618C27.8994 45.8618 26.7109 44.695 26.7109 43.2608C26.7109 42.8211 26.3478 42.4646 25.8998 42.4646C25.4519 42.4646 25.0888 42.8211 25.0888 43.2608C25.0888 45.573 27.005 47.4542 29.3603 47.4542C31.7155 47.4542 33.6317 45.573 33.6317 43.2608V33.0692C33.6317 32.6294 33.2686 32.2729 32.8207 32.2729Z" fill="#565656"/>
<path d="M32.8197 27.1771C32.3718 27.1771 32.0087 27.5337 32.0087 27.9734V29.6726C32.0087 30.1124 32.3718 30.4689 32.8197 30.4689C33.2676 30.4689 33.6307 30.1124 33.6307 29.6726V27.9734C33.6307 27.5337 33.2676 27.1771 32.8197 27.1771Z" fill="#565656"/>
<path d="M8.59806 18.6842C6.24281 18.6842 4.3266 20.5654 4.3266 22.8776V39.8634C4.3266 40.3031 4.68973 40.6596 5.13764 40.6596C5.58554 40.6596 5.94867 40.3031 5.94867 39.8634V22.8776C5.94867 21.4435 7.13722 20.2766 8.59806 20.2766C10.0589 20.2766 11.2474 21.4435 11.2474 22.8776V24.5767C11.2474 25.0164 11.6106 25.3729 12.0585 25.3729C12.5064 25.3729 12.8695 25.0164 12.8695 24.5767V22.8776C12.8695 20.5654 10.9533 18.6842 8.59806 18.6842Z" fill="#565656"/>
<path d="M12.0585 32.2729C11.6106 32.2729 11.2474 32.6294 11.2474 33.0692V43.2608C11.2474 44.695 10.0589 45.8618 8.59806 45.8618C7.13722 45.8618 5.94867 44.695 5.94867 43.2608C5.94867 42.8211 5.58554 42.4646 5.13764 42.4646C4.68973 42.4646 4.3266 42.8211 4.3266 43.2608C4.3266 45.573 6.24281 47.4542 8.59806 47.4542C10.9533 47.4542 12.8695 45.573 12.8695 43.2608V33.0692C12.8695 32.6294 12.5064 32.2729 12.0585 32.2729Z" fill="#565656"/>
<path d="M12.0573 27.1771C11.6093 27.1771 11.2462 27.5337 11.2462 27.9734V29.6726C11.2462 30.1124 11.6093 30.4689 12.0573 30.4689C12.5052 30.4689 12.8683 30.1124 12.8683 29.6726V27.9734C12.8683 27.5337 12.5052 27.1771 12.0573 27.1771Z" fill="#565656"/>
<path d="M41.471 20.3833H37.0914V16.258C37.6212 15.8004 37.9565 15.1307 37.9565 14.3852C37.9565 13.6377 37.6194 12.9664 37.0872 12.5088C36.9999 10.0514 35.1143 8.03526 32.6849 7.69458C32.7388 7.37864 32.7659 7.06026 32.7659 6.74135C32.7659 3.49244 30.0735 0.849303 26.7642 0.849303C25.6376 0.849303 24.5312 1.16471 23.5814 1.74776C22.3237 0.629652 20.6825 0 18.9782 0C16.8477 0 14.8393 0.986997 13.5484 2.62403C12.5894 2.02283 11.4733 1.69861 10.3272 1.69861C7.01784 1.69861 4.32553 4.34175 4.32553 7.59065C4.32553 7.70127 4.32888 7.81189 4.33569 7.92336C2.34141 8.59124 0.943397 10.4051 0.868674 12.5093C0.33685 12.9668 0 13.6379 0 14.3852C0 15.1308 0.335336 15.8005 0.865105 16.258V47.5079C0.865105 49.0776 1.97244 50.3982 3.46042 50.7563V51.7544C3.46042 53.1301 4.60041 54.2493 6.00167 54.2493H31.9548C33.3561 54.2493 34.4961 53.1301 34.4961 51.7544V50.7563C35.984 50.3982 37.0914 49.0776 37.0914 47.5079V44.0576H41.471C44.7803 44.0576 47.4726 41.4145 47.4726 38.1656V26.2753C47.4726 23.0264 44.7803 20.3833 41.471 20.3833ZM37.0914 25.3729H41.471C41.9778 25.3729 42.3901 25.7777 42.3901 26.2753V38.1656C42.3901 38.6632 41.9778 39.068 41.471 39.068H37.0914V25.3729ZM1.62207 14.3852C1.62207 13.8876 2.0344 13.4828 2.54125 13.4828H35.4152C35.9221 13.4828 36.3344 13.8876 36.3344 14.3852C36.3344 14.8828 35.9221 15.2876 35.4152 15.2876H2.54125C2.0344 15.2876 1.62207 14.8828 1.62207 14.3852ZM5.37122 9.30009C5.58317 9.26229 5.77112 9.14328 5.89353 8.96928C6.01594 8.79528 6.06287 8.58062 6.02394 8.37265C5.97258 8.09832 5.9476 7.84257 5.9476 7.59065C5.9476 5.21982 7.91225 3.29105 10.3272 3.29105C11.385 3.29105 12.4086 3.67058 13.2093 4.35979C13.3915 4.5167 13.6355 4.58539 13.875 4.54685C14.1142 4.50842 14.3233 4.36701 14.4451 4.16127C15.3834 2.57668 17.1203 1.59244 18.9782 1.59244C20.4649 1.59244 21.8895 2.22135 22.8869 3.31791C23.1755 3.63544 23.6673 3.67387 24.0036 3.40528C24.7929 2.77489 25.7476 2.44175 26.7642 2.44175C29.1791 2.44175 31.1438 4.37052 31.1438 6.74135C31.1438 7.23193 31.0547 7.72282 30.8788 8.20034C30.7855 8.45397 30.8293 8.73678 30.9951 8.95177C31.161 9.16664 31.4265 9.28512 31.7004 9.26516C31.7606 9.26081 31.8198 9.25337 31.8787 9.24541C31.906 9.2417 31.9436 9.2366 31.9548 9.23628C33.6136 9.23628 35.0066 10.3706 35.3738 11.8905H2.58256C2.89843 10.5852 3.9744 9.54914 5.37122 9.30009ZM35.4693 47.5079C35.4693 48.4738 34.6689 49.2596 33.685 49.2596H31.0897C30.6418 49.2596 30.2787 49.6161 30.2787 50.0558C30.2787 50.4956 30.6418 50.852 31.0897 50.852H32.874V51.7544C32.874 52.252 32.4617 52.6568 31.9548 52.6568H6.00167C5.49482 52.6568 5.08249 52.252 5.08249 51.7544V50.852H22.4387C22.8866 50.852 23.2497 50.4956 23.2497 50.0558C23.2497 49.6161 22.8866 49.2596 22.4387 49.2596H4.27146C3.28762 49.2596 2.48718 48.4738 2.48718 47.5079V16.8786C2.50524 16.8791 2.52308 16.88 2.54125 16.88H35.4152C35.4334 16.88 35.4512 16.8791 35.4693 16.8786V47.5079ZM45.8506 38.1656C45.8506 40.5364 43.8859 42.4652 41.471 42.4652H37.0914V40.6604H41.471C42.8722 40.6604 44.0122 39.5412 44.0122 38.1656V26.2753C44.0122 24.8997 42.8722 23.7805 41.471 23.7805H37.0914V21.9757H41.471C43.8859 21.9757 45.8506 23.9045 45.8506 26.2753V38.1656Z" fill="#565656"/>
<path d="M26.7643 5.83857C27.2712 5.83857 27.6835 6.24341 27.6835 6.74104C27.6835 7.18081 28.0466 7.53734 28.4946 7.53734C28.9425 7.53734 29.3056 7.18081 29.3056 6.74104C29.3056 5.36525 28.1656 4.24597 26.7643 4.24597C26.3164 4.24597 25.9533 4.6025 25.9533 5.04227C25.9533 5.48204 26.3164 5.83857 26.7643 5.83857Z" fill="#565656"/>
<path d="M18.9791 4.98933C19.9629 4.98933 20.7633 5.77522 20.7633 6.74118C20.7633 7.18095 21.1265 7.53748 21.5744 7.53748C22.0223 7.53748 22.3854 7.18095 22.3854 6.74118C22.3854 4.89706 20.8573 3.39673 18.9791 3.39673C18.5312 3.39673 18.168 3.75326 18.168 4.19303C18.168 4.6328 18.5312 4.98933 18.9791 4.98933Z" fill="#565656"/>
<path d="M27.6301 49.259H25.8998C25.4519 49.259 25.0888 49.6156 25.0888 50.0553C25.0888 50.4951 25.4519 50.8516 25.8998 50.8516H27.6301C28.078 50.8516 28.4411 50.4951 28.4411 50.0553C28.4411 49.6156 28.078 49.259 27.6301 49.259Z" fill="#565656"/>
</svg>
