<svg width="48" height="54" viewBox="0 0 48 54" fill="none" xmlns="http://www.w3.org/2000/svg">
<path d="M18.7935 18.5984C16.4617 18.5984 14.5646 20.471 14.5646 22.7726V39.6803C14.5646 40.118 14.9241 40.4728 15.3676 40.4728C15.811 40.4728 16.1705 40.118 16.1705 39.6803V22.7726C16.1705 21.345 17.3472 20.1835 18.7935 20.1835C20.2398 20.1835 21.4165 21.345 21.4165 22.7726V24.4638C21.4165 24.9015 21.7761 25.2563 22.2195 25.2563C22.663 25.2563 23.0225 24.9015 23.0225 24.4638V22.7726C23.0225 20.471 21.1253 18.5984 18.7935 18.5984Z" fill="#6A6A6A"/>
<path d="M22.2195 32.1248C21.7761 32.1248 21.4165 32.4796 21.4165 32.9173V43.0621C21.4165 44.4897 20.2398 45.6512 18.7935 45.6512C17.3472 45.6512 16.1705 44.4897 16.1705 43.0621C16.1705 42.6244 15.811 42.2696 15.3676 42.2696C14.9241 42.2696 14.5646 42.6244 14.5646 43.0621C14.5646 45.3637 16.4617 47.2363 18.7935 47.2363C21.1253 47.2363 23.0225 45.3637 23.0225 43.0621V32.9173C23.0225 32.4796 22.663 32.1248 22.2195 32.1248Z" fill="#6A6A6A"/>
<path d="M22.2203 27.0522C21.7768 27.0522 21.4173 27.4071 21.4173 27.8449V29.5363C21.4173 29.974 21.7768 30.3289 22.2203 30.3289C22.6637 30.3289 23.0233 29.974 23.0233 29.5363V27.8449C23.0233 27.4071 22.6637 27.0522 22.2203 27.0522Z" fill="#6A6A6A"/>
<path d="M29.0721 18.5984C26.7403 18.5984 24.8432 20.471 24.8432 22.7726V39.6803C24.8432 40.118 25.2027 40.4728 25.6461 40.4728C26.0896 40.4728 26.4491 40.118 26.4491 39.6803V22.7726C26.4491 21.345 27.6258 20.1835 29.0721 20.1835C30.5184 20.1835 31.6951 21.345 31.6951 22.7726V24.4638C31.6951 24.9015 32.0546 25.2563 32.4981 25.2563C32.9415 25.2563 33.301 24.9015 33.301 24.4638V22.7726C33.301 20.471 31.4039 18.5984 29.0721 18.5984Z" fill="#6A6A6A"/>
<path d="M32.4981 32.1248C32.0546 32.1248 31.6951 32.4796 31.6951 32.9173V43.0621C31.6951 44.4897 30.5184 45.6512 29.0721 45.6512C27.6258 45.6512 26.4491 44.4897 26.4491 43.0621C26.4491 42.6244 26.0896 42.2696 25.6461 42.2696C25.2027 42.2696 24.8432 42.6244 24.8432 43.0621C24.8432 45.3637 26.7403 47.2363 29.0721 47.2363C31.4039 47.2363 33.301 45.3637 33.301 43.0621V32.9173C33.301 32.4796 32.9415 32.1248 32.4981 32.1248Z" fill="#6A6A6A"/>
<path d="M32.4971 27.0522C32.0536 27.0522 31.6941 27.4071 31.6941 27.8449V29.5363C31.6941 29.974 32.0536 30.3289 32.4971 30.3289C32.9405 30.3289 33.3 29.974 33.3 29.5363V27.8449C33.3 27.4071 32.9405 27.0522 32.4971 27.0522Z" fill="#6A6A6A"/>
<path d="M8.51656 18.5984C6.18476 18.5984 4.28763 20.471 4.28763 22.7726V39.6803C4.28763 40.118 4.64714 40.4728 5.09059 40.4728C5.53404 40.4728 5.89355 40.118 5.89355 39.6803V22.7726C5.89355 21.345 7.07026 20.1835 8.51656 20.1835C9.96285 20.1835 11.1396 21.345 11.1396 22.7726V24.4638C11.1396 24.9015 11.4991 25.2563 11.9425 25.2563C12.386 25.2563 12.7455 24.9015 12.7455 24.4638V22.7726C12.7455 20.471 10.8484 18.5984 8.51656 18.5984Z" fill="#6A6A6A"/>
<path d="M11.9425 32.1248C11.4991 32.1248 11.1396 32.4796 11.1396 32.9173V43.0621C11.1396 44.4897 9.96285 45.6512 8.51656 45.6512C7.07026 45.6512 5.89355 44.4897 5.89355 43.0621C5.89355 42.6244 5.53404 42.2696 5.09059 42.2696C4.64714 42.2696 4.28763 42.6244 4.28763 43.0621C4.28763 45.3637 6.18476 47.2363 8.51656 47.2363C10.8484 47.2363 12.7455 45.3637 12.7455 43.0621V32.9173C12.7455 32.4796 12.386 32.1248 11.9425 32.1248Z" fill="#6A6A6A"/>
<path d="M11.9413 27.0522C11.4979 27.0522 11.1384 27.4071 11.1384 27.8449V29.5363C11.1384 29.974 11.4979 30.3289 11.9413 30.3289C12.3848 30.3289 12.7443 29.974 12.7443 29.5363V27.8449C12.7443 27.4071 12.3848 27.0522 11.9413 27.0522Z" fill="#6A6A6A"/>
<path d="M41.0622 20.2896H36.7262V16.1833C37.2507 15.7278 37.5827 15.0611 37.5827 14.3191C37.5827 13.575 37.249 12.9068 36.722 12.4513C36.6356 10.0052 34.7688 7.99834 32.3635 7.65923C32.417 7.34474 32.4437 7.02782 32.4437 6.71037C32.4437 3.4764 29.7782 0.845401 26.5018 0.845401C25.3864 0.845401 24.2911 1.15936 23.3507 1.73973C22.1055 0.626759 20.4807 0 18.7934 0C16.6841 0 14.6956 0.982462 13.4176 2.61197C12.4682 2.01353 11.3632 1.6908 10.2285 1.6908C6.95206 1.6908 4.28655 4.3218 4.28655 7.55577C4.28655 7.66589 4.28987 7.776 4.29661 7.88696C2.32219 8.55176 0.938094 10.3573 0.864115 12.4518C0.337586 12.9073 0.00408936 13.5752 0.00408936 14.3191C0.00408936 15.0612 0.336087 15.7279 0.860581 16.1833V47.2896C0.860581 48.8521 1.95689 50.1666 3.43006 50.5231V51.5166C3.43006 52.886 4.5587 54 5.946 54H31.6408C33.0281 54 34.1567 52.886 34.1567 51.5166V50.5231C35.6299 50.1666 36.7262 48.8521 36.7262 47.2896V43.8552H41.0622C44.3386 43.8552 47.0041 41.2242 47.0041 37.9902V26.1546C47.0041 22.9206 44.3386 20.2896 41.0622 20.2896ZM36.7262 25.2564H41.0622C41.564 25.2564 41.9722 25.6593 41.9722 26.1546V37.9902C41.9722 38.4855 41.564 38.8885 41.0622 38.8885H36.7262V25.2564ZM1.61001 14.3191C1.61001 13.8238 2.01824 13.4208 2.52003 13.4208H35.0667C35.5685 13.4208 35.9768 13.8238 35.9768 14.3191C35.9768 14.8144 35.5685 15.2173 35.0667 15.2173H2.52003C2.01824 15.2173 1.61001 14.8144 1.61001 14.3191ZM5.32183 9.25735C5.53167 9.21973 5.71775 9.10127 5.83894 8.92807C5.96013 8.75487 6.0066 8.54119 5.96806 8.33418C5.9172 8.06111 5.89247 7.80654 5.89247 7.55577C5.89247 5.19584 7.83757 3.27593 10.2285 3.27593C11.2757 3.27593 12.2892 3.65372 13.0819 4.33976C13.2623 4.49595 13.5038 4.56432 13.7409 4.52596C13.9778 4.48771 14.1848 4.34695 14.3054 4.14215C15.2343 2.56484 16.954 1.58513 18.7934 1.58513C20.2653 1.58513 21.6757 2.21115 22.6631 3.30267C22.9489 3.61874 23.4358 3.65699 23.7687 3.38964C24.5502 2.76214 25.4953 2.43053 26.5018 2.43053C28.8927 2.43053 30.8378 4.35043 30.8378 6.71037C30.8378 7.1987 30.7496 7.68734 30.5755 8.16267C30.4831 8.41512 30.5265 8.69664 30.6906 8.91063C30.8548 9.12452 31.1177 9.24245 31.3888 9.22259C31.4485 9.21826 31.507 9.21086 31.5654 9.20293C31.5925 9.19923 31.6296 9.19416 31.6408 9.19384C33.283 9.19384 34.6621 10.323 35.0257 11.8358H2.56093C2.87366 10.5366 3.93892 9.50527 5.32183 9.25735ZM35.1203 47.2896C35.1203 48.2511 34.3278 49.0333 33.3537 49.0333H30.7843C30.3408 49.0333 29.9813 49.3881 29.9813 49.8258C29.9813 50.2635 30.3408 50.6184 30.7843 50.6184H32.5508V51.5166C32.5508 52.0119 32.1426 52.4149 31.6408 52.4149H5.946C5.44421 52.4149 5.03598 52.0119 5.03598 51.5166V50.6184H22.2194C22.6628 50.6184 23.0223 50.2635 23.0223 49.8258C23.0223 49.3881 22.6628 49.0333 22.2194 49.0333H4.23302C3.25897 49.0333 2.4665 48.2511 2.4665 47.2896V16.8011C2.48438 16.8015 2.50205 16.8025 2.52003 16.8025H35.0667C35.0847 16.8025 35.1024 16.8015 35.1203 16.8011V47.2896ZM45.3982 37.9902C45.3982 40.3502 43.4531 42.2701 41.0622 42.2701H36.7262V40.4736H41.0622C42.4495 40.4736 43.5781 39.3596 43.5781 37.9902V26.1546C43.5781 24.7853 42.4495 23.6712 41.0622 23.6712H36.7262V21.8748H41.0622C43.4531 21.8748 45.3982 23.7947 45.3982 26.1546V37.9902Z" fill="#6A6A6A"/>
<path d="M26.502 5.81172C27.0038 5.81172 27.412 6.2147 27.412 6.71004C27.412 7.14779 27.7715 7.50268 28.215 7.50268C28.6584 7.50268 29.0179 7.14779 29.0179 6.71004C29.0179 5.34057 27.8893 4.22644 26.502 4.22644C26.0585 4.22644 25.699 4.58133 25.699 5.01908C25.699 5.45683 26.0585 5.81172 26.502 5.81172Z" fill="#6A6A6A"/>
<path d="M18.7942 4.96638C19.7683 4.96638 20.5608 5.74867 20.5608 6.71019C20.5608 7.14794 20.9203 7.50283 21.3637 7.50283C21.8072 7.50283 22.1667 7.14794 22.1667 6.71019C22.1667 4.87454 20.6538 3.3811 18.7942 3.3811C18.3508 3.3811 17.9913 3.73599 17.9913 4.17374C17.9913 4.61149 18.3508 4.96638 18.7942 4.96638Z" fill="#6A6A6A"/>
<path d="M27.3591 49.0327H25.6461C25.2027 49.0327 24.8432 49.3876 24.8432 49.8254C24.8432 50.2631 25.2027 50.618 25.6461 50.618H27.3591C27.8026 50.618 28.1621 50.2631 28.1621 49.8254C28.1621 49.3876 27.8026 49.0327 27.3591 49.0327Z" fill="#6A6A6A"/>
</svg>
