<svg width="65" height="40" viewBox="0 0 65 40" fill="none" xmlns="http://www.w3.org/2000/svg">
<path d="M22.2977 29.4916C19.8749 29.2117 17.6026 28.203 15.7982 26.6069C13.9312 25.0814 12.6079 23.0216 12.0176 20.7216C11.337 17.9843 9.7777 15.5284 7.56544 13.7097C6.76378 12.9832 6.03804 12.4358 5.33388 11.9304C4.85225 11.5845 4.17323 11.6834 3.81727 12.1515C3.46132 12.6196 3.56313 13.2796 4.04476 13.6256C4.69471 14.0888 5.37717 14.6363 6.13541 15.2891C8.00302 16.8122 9.32324 18.8735 9.90516 21.1744C10.5973 23.9122 12.1634 26.3667 14.3791 28.1863C16.5365 30.0762 19.2489 31.2617 22.1353 31.5763H22.2328L22.2003 31.5974C22.7985 31.6236 23.3053 31.1735 23.3322 30.592C23.3593 30.0103 22.896 29.5178 22.2977 29.4916Z" fill="#565656"/>
<path d="M50.6672 9.85446C50.2844 9.4077 49.6013 9.34725 49.1416 9.71936C47.5634 10.9861 45.7662 11.97 43.8337 12.6252C39.1573 14.1821 34.052 13.9906 29.5129 12.0882C28.9942 11.8988 28.4119 12.1204 28.1635 12.6019C27.8953 13.1217 28.1115 13.7543 28.6463 14.0149C33.6965 16.1146 39.3715 16.3061 44.5594 14.5519C45.9917 14.0629 47.362 13.4164 48.6434 12.6252C47.6576 22.1007 40.2589 29.4705 31.3112 29.4705H22.591C21.9927 29.4705 21.5078 29.9418 21.5078 30.5233C21.5078 31.1048 21.9929 31.5761 22.591 31.5761H31.3112C42.1222 31.5761 50.9182 22.1006 50.9182 10.5193C50.9162 10.2763 50.8274 10.0413 50.6672 9.85446Z" fill="#565656"/>
<path d="M21.9033 29.4968C21.323 29.3543 20.7337 29.6961 20.5871 30.2602C20.5871 30.4077 19.6664 33.6823 16.2541 33.6823C15.6558 33.6823 15.1709 34.1536 15.1709 34.7351C15.1709 35.3167 15.6558 35.788 16.2541 35.788C19.3177 35.7224 21.9552 33.6679 22.6887 30.776C22.8352 30.2121 22.4835 29.6393 21.9033 29.4968Z" fill="#565656"/>
<path d="M36.8365 33.6822C33.4675 33.6822 32.5035 30.4075 32.5035 30.2602C32.3569 29.6787 31.7531 29.3228 31.1549 29.4652C30.5566 29.6077 30.1905 30.1946 30.337 30.7761C31.0767 33.6904 33.7487 35.7509 36.8365 35.7881C37.4348 35.7881 37.9197 35.3168 37.9197 34.7352C37.9197 34.1537 37.4347 33.6822 36.8365 33.6822Z" fill="#565656"/>
<path d="M49.8346 33.6818H3.25436C2.65607 33.6818 2.17114 34.1531 2.17114 34.7347C2.17114 35.3162 2.65607 35.7876 3.25436 35.7876H49.8345C50.4328 35.7876 50.9177 35.3162 50.9177 34.7347C50.9177 34.1531 50.4328 33.6818 49.8346 33.6818Z" fill="#565656"/>
<path d="M44.4189 33.6817H8.67127C8.48581 33.6759 8.30199 33.7164 8.13734 33.7994C7.60633 34.0672 7.39916 34.7028 7.67463 35.2189L8.67127 37.1037C9.63834 38.9094 11.5709 40.03 13.6651 39.9993H39.4251C41.5192 40.0302 43.4519 38.9095 44.419 37.1037L45.3832 35.2189C45.4633 35.0686 45.5049 34.9017 45.5045 34.7324C45.5031 34.151 45.0172 33.6806 44.4189 33.6817ZM42.4582 36.1351C41.8677 37.2289 40.6958 37.9082 39.4251 37.8935H13.6651C12.3944 37.9083 11.2225 37.2289 10.6321 36.1351L10.4479 35.7876H42.6424L42.4582 36.1351Z" fill="#565656"/>
<path d="M57.1139 0.222737C52.295 -0.807849 47.4437 1.82321 45.8155 6.35024C45.3399 7.67274 45.3399 9.11282 45.8155 10.4352C46.3792 11.9636 47.8938 12.9635 49.5635 12.9093C50.1618 12.8512 50.5982 12.3326 50.5384 11.7512C50.4786 11.1697 49.9451 10.7455 49.3468 10.8036C48.6454 10.7725 48.0393 10.318 47.8302 9.66654C47.5536 8.79043 47.5841 7.84979 47.9169 6.9923C49.1885 3.53584 52.8834 1.51587 56.583 2.25454C60.0603 3.14941 62.8334 6.72913 62.8334 10.5193C62.8059 14.3601 60.4967 17.8393 56.908 19.4474C55.3877 20.0264 53.8024 20.4294 52.185 20.6476C51.3293 20.8056 50.4409 20.953 49.5744 21.1635C45.5014 22.1006 43.3348 24.3115 43.3348 27.3647C43.3348 27.9461 43.8198 28.4174 44.4181 28.4174C45.0163 28.4174 45.5013 27.9461 45.5013 27.3647C45.5013 24.8274 47.9928 23.7008 50.0727 23.1954C50.8851 23.0059 51.7301 22.8585 52.5533 22.7112C54.3426 22.4651 56.0954 22.0127 57.7747 21.3635C62.1374 19.41 64.9507 15.1875 65 10.5193C64.9962 5.7722 61.7918 1.58842 57.1139 0.222737Z" fill="#565656"/>
<path d="M21 20L23 21L24.5 19.5L25 15L29 13L24.5 10.5L20.5 8L15.5 6.5H9.5L3 8L1 10L4 13L7.5 11.5L13.5 12L20 15L21 20Z" fill="#B36013"/>
<path d="M29.513 12.1203C28.0554 11.5004 26.6923 10.6892 25.4616 9.70931C21.7264 6.7708 17.0509 5.19537 12.2458 5.25583C8.30717 5.23757 4.44209 6.29159 1.08821 8.29848C0.369448 8.69933 -0.051119 9.46367 0.00499048 10.2672C0.0498019 11.0673 0.557834 11.7733 1.31569 12.0887C2.29012 12.5125 3.20996 13.046 4.0563 13.6784C4.4252 13.9239 4.9114 13.9239 5.28043 13.6784C6.84591 12.753 8.64789 12.275 10.4801 12.2992C12.4034 12.2705 14.2911 12.8063 15.8964 13.8363C16.7704 14.4346 17.7355 14.8964 18.7562 15.205C19.19 15.3175 19.4948 15.6953 19.5037 16.1314V18.9425C19.5037 20.6868 20.9586 22.101 22.7535 22.101C22.9373 22.1163 23.1221 22.1163 23.3059 22.101C24.9157 21.7931 26.0609 20.3996 26.014 18.8057V16.1105C25.998 15.6179 26.3356 15.1806 26.8265 15.0577C27.7835 14.8044 28.7097 14.4514 29.5888 14.0049C29.7963 13.8947 29.9611 13.7216 30.0579 13.5119C30.3029 12.9813 30.0589 12.3583 29.513 12.1203ZM26.2199 13.0783C24.8124 13.4568 23.8374 14.7015 23.8368 16.1209V18.8162C23.8551 19.3563 23.4864 19.837 22.9486 19.9743C22.6317 20.0292 22.3062 19.9443 22.0603 19.7427C21.8157 19.5447 21.673 19.2521 21.6704 18.9426V16.1316C21.6697 14.7713 20.7555 13.571 19.4172 13.1731C18.6106 12.939 17.8468 12.5838 17.1532 12.1203C15.1648 10.8276 12.818 10.1555 10.4261 10.1936C8.44846 10.1761 6.4963 10.6277 4.73901 11.5097C3.93418 10.951 3.07413 10.4713 2.17168 10.0778C5.20096 8.27146 8.69219 7.3302 12.246 7.36154C16.5449 7.30194 20.7297 8.70612 24.0752 11.3308C24.8412 11.9469 25.6562 12.5031 26.5125 12.9943L26.2199 13.0783Z" fill="#565656"/>
<path d="M23.5229 24.5117L23.3604 24.3854C23.3001 24.3453 23.2346 24.3135 23.1655 24.2906C23.1008 24.2589 23.0313 24.2376 22.9597 24.2275C22.8244 24.1965 22.6834 24.1965 22.548 24.2275C22.4763 24.2376 22.4068 24.2589 22.3422 24.2906C22.273 24.3135 22.2075 24.3453 22.1472 24.3854L21.9847 24.5117C21.782 24.7104 21.6689 24.9794 21.6706 25.2594C21.6717 25.5356 21.7845 25.8003 21.9847 25.9964C22.1873 26.1974 22.4643 26.311 22.7539 26.3123C22.8954 26.3107 23.0353 26.282 23.1656 26.228C23.2995 26.1747 23.421 26.096 23.5231 25.9964C23.7231 25.8003 23.836 25.5355 23.8372 25.2594C23.8331 24.9805 23.7208 24.7135 23.5229 24.5117Z" fill="#B36013"/>
</svg>
