<svg width="66" height="40" viewBox="0 0 66 40" fill="none" xmlns="http://www.w3.org/2000/svg">
<path d="M22.3019 29.4917C19.8791 29.2117 17.6068 28.2031 15.8024 26.6069C13.9354 25.0815 12.6121 23.0217 12.0218 20.7216C11.3412 17.9843 9.78191 15.5285 7.56965 13.7098C6.76799 12.9833 6.04225 12.4359 5.33809 11.9305C4.85646 11.5846 4.17744 11.6835 3.82148 12.1516C3.46553 12.6197 3.56734 13.2797 4.04897 13.6256C4.69892 14.0889 5.38138 14.6363 6.13962 15.2891C8.00723 16.8122 9.32745 18.8735 9.90936 21.1744C10.6015 23.9122 12.1676 26.3667 14.3833 28.1863C16.5407 30.0762 19.2531 31.2618 22.1395 31.5764H22.2369L22.2045 31.5975C22.8027 31.6237 23.3095 31.1736 23.3364 30.5921C23.3635 30.0103 22.9002 29.5178 22.3019 29.4917Z" fill="#6A6A6A"/>
<path d="M50.6714 9.85446C50.2885 9.4077 49.6054 9.34725 49.1458 9.71936C47.5676 10.9861 45.7703 11.97 43.8378 12.6252C39.1615 14.1821 34.0561 13.9906 29.5171 12.0882C28.9984 11.8988 28.4161 12.1204 28.1677 12.6019C27.8995 13.1217 28.1156 13.7543 28.6505 14.0149C33.7007 16.1146 39.3756 16.3061 44.5636 14.5519C45.9959 14.0629 47.3661 13.4164 48.6475 12.6252C47.6618 22.1007 40.2631 29.4705 31.3154 29.4705H22.5952C21.9969 29.4705 21.512 29.9418 21.512 30.5233C21.512 31.1048 21.997 31.5761 22.5952 31.5761H31.3154C42.1264 31.5761 50.9224 22.1006 50.9224 10.5193C50.9203 10.2763 50.8316 10.0413 50.6714 9.85446Z" fill="#6A6A6A"/>
<path d="M21.9075 29.4967C21.3272 29.3542 20.7379 29.696 20.5913 30.2601C20.5913 30.4076 19.6706 33.6821 16.2583 33.6821C15.66 33.6821 15.1751 34.1535 15.1751 34.735C15.1751 35.3166 15.66 35.7879 16.2583 35.7879C19.3218 35.7223 21.9594 33.6678 22.6929 30.7759C22.8394 30.212 22.4877 29.6392 21.9075 29.4967Z" fill="#6A6A6A"/>
<path d="M36.8407 33.6822C33.4717 33.6822 32.5077 30.4075 32.5077 30.2602C32.361 29.6787 31.7573 29.3228 31.159 29.4652C30.5607 29.6077 30.1946 30.1946 30.3411 30.7761C31.0808 33.6904 33.7529 35.7509 36.8407 35.7881C37.4389 35.7881 37.9239 35.3168 37.9239 34.7352C37.9239 34.1537 37.4388 33.6822 36.8407 33.6822Z" fill="#6A6A6A"/>
<path d="M49.8388 33.6818H3.2586C2.66031 33.6818 2.17538 34.1531 2.17538 34.7347C2.17538 35.3162 2.66031 35.7876 3.2586 35.7876H49.8387C50.437 35.7876 50.9219 35.3162 50.9219 34.7347C50.9219 34.1531 50.437 33.6818 49.8388 33.6818Z" fill="#6A6A6A"/>
<path d="M44.4231 33.6817H8.67551C8.49005 33.6759 8.30623 33.7164 8.14159 33.7994C7.61058 34.0672 7.4034 34.7028 7.67887 35.2189L8.67551 37.1037C9.64258 38.9094 11.5752 40.03 13.6694 39.9993H39.4294C41.5234 40.0302 43.4562 38.9095 44.4232 37.1037L45.3874 35.2189C45.4675 35.0686 45.5091 34.9017 45.5087 34.7324C45.5073 34.151 45.0214 33.6806 44.4231 33.6817ZM42.4624 36.1351C41.8719 37.2289 40.7001 37.9082 39.4294 37.8935H13.6694C12.3987 37.9083 11.2267 37.2289 10.6363 36.1351L10.4521 35.7876H42.6466L42.4624 36.1351Z" fill="#6A6A6A"/>
<path d="M57.1181 0.222737C52.2991 -0.807849 47.4478 1.82321 45.8196 6.35024C45.3441 7.67274 45.3441 9.11282 45.8196 10.4352C46.3834 11.9636 47.898 12.9635 49.5677 12.9093C50.166 12.8512 50.6024 12.3326 50.5426 11.7512C50.4828 11.1697 49.9493 10.7455 49.351 10.8036C48.6496 10.7725 48.0435 10.318 47.8344 9.66654C47.5578 8.79043 47.5882 7.84979 47.9211 6.9923C49.1927 3.53584 52.8875 1.51587 56.5872 2.25454C60.0645 3.14941 62.8376 6.72913 62.8376 10.5193C62.81 14.3601 60.5009 17.8393 56.9122 19.4474C55.3919 20.0264 53.8066 20.4294 52.1892 20.6476C51.3335 20.8056 50.4451 20.953 49.5786 21.1635C45.5056 22.1006 43.339 24.3115 43.339 27.3647C43.339 27.9461 43.824 28.4174 44.4222 28.4174C45.0205 28.4174 45.5055 27.9461 45.5055 27.3647C45.5055 24.8274 47.997 23.7008 50.0769 23.1954C50.8893 23.0059 51.7342 22.8585 52.5575 22.7112C54.3468 22.4651 56.0996 22.0127 57.7788 21.3635C62.1415 19.41 64.9549 15.1875 65.0041 10.5193C65.0003 5.7722 61.796 1.58842 57.1181 0.222737Z" fill="#6A6A6A"/>
<path d="M29.5172 12.1203C28.0596 11.5005 26.6965 10.6893 25.4657 9.70937C21.7305 6.77086 17.055 5.19543 12.2499 5.25589C8.31134 5.23763 4.44626 6.29165 1.09239 8.29854C0.373629 8.6994 -0.0469381 9.46373 0.00917138 10.2673C0.0539828 11.0674 0.562015 11.7734 1.31987 12.0887C2.2943 12.5125 3.21414 13.046 4.06048 13.6785C4.42938 13.924 4.91558 13.924 5.28461 13.6785C6.85009 12.753 8.65206 12.275 10.4843 12.2992C12.4076 12.2706 14.2953 12.8063 15.9006 13.8364C16.7746 14.4347 17.7396 14.8965 18.7604 15.205C19.1942 15.3176 19.499 15.6954 19.5079 16.1315V18.9426C19.5079 20.6869 20.9628 22.1011 22.7576 22.1011C22.9414 22.1164 23.1263 22.1164 23.3101 22.1011C24.9199 21.7931 26.065 20.3997 26.0182 18.8057V16.1105C26.0022 15.618 26.3398 15.1806 26.8306 15.0577C27.7877 14.8044 28.7139 14.4514 29.593 14.0049C29.8005 13.8948 29.9653 13.7217 30.062 13.5119C30.307 12.9814 30.063 12.3583 29.5172 12.1203ZM26.2241 13.0784C24.8165 13.4569 23.8416 14.7015 23.841 16.121V18.8162C23.8593 19.3564 23.4906 19.8371 22.9527 19.9744C22.6359 20.0293 22.3104 19.9444 22.0645 19.7428C21.8199 19.5448 21.6772 19.2521 21.6745 18.9427V16.1316C21.6739 14.7714 20.7596 13.571 19.4214 13.1731C18.6148 12.9391 17.851 12.5839 17.1573 12.1203C15.169 10.8277 12.8222 10.1555 10.4303 10.1936C8.45263 10.1761 6.50048 10.6278 4.74319 11.5097C3.93836 10.9511 3.07831 10.4714 2.17586 10.0779C5.20514 8.27152 8.69637 7.33026 12.2502 7.3616C16.549 7.30201 20.7339 8.70618 24.0794 11.3308C24.8454 11.947 25.6603 12.5032 26.5167 12.9943L26.2241 13.0784Z" fill="#6A6A6A"/>
<path d="M23.5271 24.5117L23.3647 24.3853C23.3044 24.3452 23.2388 24.3134 23.1697 24.2906C23.105 24.2589 23.0355 24.2375 22.9639 24.2274C22.8286 24.1964 22.6877 24.1964 22.5522 24.2274C22.4805 24.2375 22.411 24.2589 22.3464 24.2906C22.2772 24.3134 22.2117 24.3452 22.1514 24.3853L21.989 24.5117C21.7862 24.7103 21.6731 24.9793 21.6748 25.2593C21.6759 25.5356 21.7888 25.8002 21.989 25.9963C22.1916 26.1973 22.4685 26.311 22.7581 26.3122C22.8997 26.3106 23.0395 26.282 23.1698 26.2279C23.3037 26.1746 23.4252 26.0959 23.5273 25.9963C23.7273 25.8002 23.8402 25.5355 23.8415 25.2593C23.8373 24.9804 23.725 24.7134 23.5271 24.5117Z" fill="#6A6A6A"/>
</svg>
