<svg width="34" height="42" viewBox="0 0 34 42" fill="none" xmlns="http://www.w3.org/2000/svg">
<path d="M1.34741 36.9187C1.6529 37.0854 8.92271 41 16.9996 41C25.75 41 32.3968 37.0723 32.6755 36.9051C32.7742 36.8459 32.8559 36.7621 32.9126 36.6619C32.9694 36.5617 32.9992 36.4486 32.9992 36.3335C32.9992 30.9508 31.3486 26.0254 28.3517 22.4636C26.2553 19.972 23.6248 18.2738 20.7237 17.4919C22.4996 16.6468 23.9352 15.2227 24.7947 13.4537C25.6542 11.6847 25.8864 9.67597 25.4532 7.75752C25.02 5.83907 23.9471 4.12503 22.4109 2.897C20.8746 1.66897 18.9663 1 16.9996 1C15.0328 1 13.1246 1.66897 11.5883 2.897C10.0521 4.12503 8.9792 5.83907 8.54599 7.75752C8.11278 9.67597 8.345 11.6847 9.20448 13.4537C10.064 15.2227 11.4996 16.6468 13.2755 17.4919C10.3743 18.2738 7.74391 19.9723 5.64746 22.4636C2.65054 26.0254 1 30.9508 1 36.3335C1 36.4532 1.03226 36.5708 1.0934 36.6737C1.15453 36.7767 1.24227 36.8613 1.34741 36.9187ZM9.66644 9.66748C9.66644 8.21712 10.0965 6.79933 10.9023 5.59341C11.7081 4.38748 12.8534 3.44757 14.1933 2.89254C15.5333 2.33751 17.0077 2.19229 18.4302 2.47524C19.8527 2.75819 21.1593 3.45661 22.1849 4.48217C23.2105 5.50773 23.9089 6.81437 24.1918 8.23686C24.4748 9.65935 24.3296 11.1338 23.7745 12.4738C23.2195 13.8137 22.2796 14.959 21.0737 15.7648C19.8677 16.5705 18.4499 17.0006 16.9996 17.0006C15.0554 16.9984 13.1915 16.2251 11.8167 14.8504C10.442 13.4756 9.66865 11.6117 9.66644 9.66748ZM6.6676 23.322C9.37478 20.1054 13.0437 18.3339 16.9996 18.3339C20.9555 18.3339 24.6244 20.1054 27.3316 23.322C30.0549 26.5585 31.5861 31.0285 31.6629 35.9445C30.2363 36.7168 24.3084 39.6667 16.9996 39.6667C10.2406 39.6667 3.87493 36.6994 2.33663 35.9288C2.41663 31.0188 3.94717 26.555 6.6676 23.322Z" fill="#5E6A85" stroke="#5E6A85"/>
</svg>
