<svg width="123" height="79" viewBox="0 0 123 79" fill="none" xmlns="http://www.w3.org/2000/svg">
<path d="M11.0916 72.7055C10.402 72.6271 9.7257 72.4578 9.08035 72.2021C8.96488 72.2652 8.83834 72.3054 8.70767 72.3205C7.9489 71.9229 7.1415 71.6263 6.30596 71.4381L3.66172 69.2943C3.1922 68.6101 2.77116 67.8937 2.40171 67.1505C2.06452 67.1505 1.60311 66.2681 1.01747 64.4915C0.621132 64.4915 0.283946 63.1531 0 60.4644C0 57.8943 1.05298 55.2431 3.15891 52.5111C3.15891 52.1202 4.21186 50.9832 6.30596 49.0999C7.24381 48.573 8.27403 48.2312 9.34063 48.0932L9.96178 48.2235H10.2161L11.0916 48.0932V48.3538H11.2218L11.5945 48.0932C12.186 48.0932 12.4877 48.182 12.4877 48.3538C12.819 48.2294 12.9905 48.0991 12.9905 47.9629C13.4716 47.999 13.9403 48.132 14.3688 48.3538C14.4855 48.2817 14.617 48.2372 14.7533 48.2235C16.3308 48.5235 17.8846 49.5737 19.4148 51.374L19.2846 51.8774L19.6692 52.5111V52.6414C19.4148 52.6414 19.119 52.9315 18.7818 53.5178C18.4062 53.9583 17.9347 54.3068 17.4035 54.5364C17.4035 54.7023 16.9776 54.951 16.1376 55.2885L15.2621 55.7919H14.8717L14.2505 55.6616V55.5313C15.0905 54.8503 15.5046 54.3469 15.5046 54.0094L15.6348 53.4171C15.5101 52.5908 15.1098 51.8311 14.499 51.2615C14.2505 51.2615 14.1263 51.1786 14.1263 51.0187H13.7477C13.2193 51.0187 12.464 51.4786 11.4821 52.3985C11.0266 52.3985 10.0623 52.9078 8.57753 53.9205V54.039H8.82598C8.82598 54.187 8.40598 54.6312 7.5719 55.3063C7.5719 55.8689 7.19329 56.5795 6.4361 57.4501C5.65351 59.071 5.01992 60.7599 4.54314 62.4957L4.66737 63.1294V63.5025C4.66737 66.7083 5.85047 68.3093 8.21669 68.3053H8.71951C10.7788 67.8015 12.7664 67.0394 14.635 66.0372C16.1091 65.0677 17.4948 63.9699 18.7759 62.7563C20.8818 60.7546 21.9348 59.7005 21.9348 59.5939C22.2793 59.1407 22.7044 58.7553 23.1889 58.4569C23.7671 57.7379 24.4 57.0647 25.0819 56.4434C25.2002 56.4434 25.3244 56.5677 25.4545 56.8164C24.8557 57.7011 24.1437 58.5035 23.3368 59.2031C23.3368 59.3215 23.1297 59.6176 22.7097 60.0854V60.3401C23.1416 59.8308 23.4788 59.5821 23.7154 59.5821C22.5796 60.8375 21.8697 61.5956 21.574 61.8502C21.5722 62.0777 21.5133 62.301 21.4027 62.4997C21.292 62.6984 21.1333 62.8661 20.941 62.9873C20.941 63.3071 20.6925 63.5203 20.1897 63.6209C20.2604 63.734 20.3048 63.8615 20.3199 63.994H20.4382C20.4934 63.6742 20.7892 63.467 21.3255 63.3722L20.6925 64.1243V64.2546H20.8227C20.9765 64.2546 22.0058 63.2005 23.8396 61.104C23.8396 60.9323 23.7154 60.8435 23.4669 60.8435C23.7627 60.3401 23.9757 60.0854 24.0999 60.0854V60.4704L23.9698 60.7132H24.0999L24.3424 60.6007V60.8612C23.5816 61.6915 23.0228 62.6867 22.7097 63.769C22.2185 64.3058 21.7971 64.9028 21.4557 65.5456V65.6641C21.4557 65.8358 21.6213 65.9246 21.9585 65.9246C21.3452 66.6546 20.6681 67.3285 19.9354 67.9382V68.1928H20.1897C19.9117 68.5955 18.5629 69.5194 16.1553 70.9703L14.0139 71.8527L13.5111 72.4804C13.4224 72.4804 13.381 72.439 13.381 72.356C13.2331 72.4982 12.4759 72.6225 11.0916 72.7055Z" fill="#434867"/>
<path d="M32.3697 77.8752L31.8669 77.6324C31.7482 77.6968 31.6171 77.7351 31.4824 77.7449L30.9796 77.6324C30.864 77.6943 30.7374 77.7325 30.6069 77.7449C30.6069 77.5317 30.3111 77.36 29.7136 77.2415C29.514 76.7319 29.163 76.2957 28.708 75.992C28.1229 74.8021 27.7391 73.5234 27.5722 72.2078L27.7024 71.9472C27.6328 71.8336 27.5884 71.7063 27.5722 71.5741H27.7024C27.5565 71.3017 27.3888 70.1172 27.1995 68.0208H27.3297C27.1719 67.5115 26.75 63.5634 26.0638 56.1766C25.9809 56.1766 25.8567 55.5015 25.6911 54.1512C25.7051 54.0166 25.7496 53.887 25.8212 53.7722C25.8212 52.9017 25.3125 51.9305 24.3009 50.8704C24.3009 50.8171 24.088 50.2249 23.668 49.0938C23.7358 48.8877 23.8517 48.7007 24.006 48.5483C24.1603 48.3959 24.3486 48.2825 24.5553 48.2173H24.6854V48.4601C25.0156 48.3594 25.3514 48.2783 25.6911 48.2173H25.8212V49.0168H26.0638L25.9336 49.2655V49.3958C26.1052 49.3958 26.1939 49.4372 26.1939 49.5261L27.1995 48.8924H27.3297V49.0168C27.2564 49.1308 27.2118 49.2608 27.1995 49.3958C27.2173 49.3927 27.2356 49.3939 27.2528 49.3993C27.27 49.4047 27.2857 49.4143 27.2985 49.427C27.3112 49.4398 27.3207 49.4555 27.3262 49.4727C27.3316 49.49 27.3328 49.5083 27.3297 49.5261C27.4427 49.4554 27.57 49.4109 27.7024 49.3958C28.4359 49.4432 29.1931 50.1143 29.9739 51.4093C30.0822 52.3051 30.3808 53.1673 30.8494 53.938C31.441 59.3351 31.7387 62.2803 31.7427 62.7738H31.8669C33.2852 62.5557 34.7155 62.4252 36.1498 62.383H36.6526C37.4098 62.383 37.7884 61.927 37.7884 61.0031H37.9185L37.7884 60.7425V60.63C38.2064 60.63 38.6284 58.1033 39.0543 53.0497C38.8827 53.0497 38.794 52.9668 38.794 52.801V52.043C38.9787 52.0583 39.1645 52.0328 39.3382 51.9683C39.512 51.9038 39.6695 51.802 39.7996 51.6699H40.0599L40.1782 52.2976C40.1622 52.2957 40.146 52.2975 40.1308 52.3027C40.1156 52.308 40.1018 52.3167 40.0904 52.3281C40.079 52.3395 40.0703 52.3533 40.065 52.3686C40.0598 52.3838 40.058 52.4 40.0599 52.4161L40.3025 52.5463C40.3006 52.5288 40.3027 52.511 40.3086 52.4944C40.3144 52.4777 40.324 52.4626 40.3365 52.4501C40.3489 52.4376 40.364 52.4281 40.3807 52.4222C40.3973 52.4163 40.4151 52.4142 40.4326 52.4161L40.3025 52.1732V52.043C40.5366 52.069 40.7718 52.0043 40.9599 51.8623C41.148 51.7202 41.2747 51.5116 41.314 51.279H41.5684C41.581 51.4176 41.6256 51.5514 41.6985 51.6699L41.9411 51.5396H42.0712C42.0568 51.7587 42.1018 51.9776 42.2014 52.1732L42.4439 52.043C42.6154 52.043 42.7042 52.1496 42.7042 52.2976V52.4161H42.4439V52.5463H42.858L42.9704 52.2976C42.9061 52.1787 42.8678 52.0475 42.858 51.9127H43.1005C43.6093 52.3588 43.8636 52.7378 43.8636 53.0497H44.2363L44.4966 52.9194L44.3664 52.6766C44.3664 52.5049 44.4729 52.4161 44.609 52.4161C45.236 52.4161 45.5732 52.5464 45.6264 52.801V53.0497C45.6264 53.2215 45.5022 53.3044 45.2419 53.3044C45.4778 53.8278 45.6468 54.379 45.7448 54.9448C45.2991 57.0163 45.1006 59.1335 45.1532 61.2519L45.4016 61.3762C45.4016 61.2933 45.4431 61.2519 45.5318 61.2519C45.5318 61.4236 45.5732 61.5065 45.656 61.5065L46.1648 61.2519V61.3762C46.1648 61.6249 45.8276 61.7967 45.1532 61.8796V62.6376H46.0346L47.6732 62.2645C47.6732 62.3415 47.7146 62.377 47.7975 62.377C47.7975 62.2191 48.1346 62.0948 48.809 62.004V62.1342C48.809 62.2408 48.2589 62.5369 47.1704 63.0107C47.1704 63.3503 46.4132 63.7293 44.8988 64.1478V64.4143L45.5318 64.284C45.6146 64.284 45.656 64.3254 45.656 64.4143C45.7707 64.3425 45.9002 64.298 46.0346 64.284H46.289V64.4143C45.2774 64.5386 44.7687 64.7044 44.7687 64.9176C44.7687 65.1308 44.7273 65.2907 44.6386 65.2907L44.7687 65.5454C44.659 65.9578 44.578 66.3773 44.5262 66.8009L44.6386 67.5648C44.4978 69.5098 44.249 71.4453 43.8932 73.3626H43.6329V73.1138H43.4495V74.7543H43.0591L42.5563 74.3812C42.418 74.7964 42.2034 75.1821 41.9233 75.5182C41.9233 76.4105 41.6749 76.9138 41.178 77.0283C41.178 77.2771 40.758 77.4014 39.912 77.4014H39.7819C39.7887 77.3508 39.7838 77.2993 39.7675 77.2509C39.7512 77.2026 39.7239 77.1586 39.6879 77.1225C39.6518 77.0864 39.6079 77.0591 39.5596 77.0428C39.5112 77.0264 39.4598 77.0215 39.4092 77.0283H39.3087V76.0216C39.3142 75.8456 39.2712 75.6714 39.1844 75.5182C39.1844 75.4294 39.2258 75.3879 39.3087 75.3879C39.3087 75.2162 39.2672 75.1273 39.1844 75.1273C39.3816 71.9334 39.5492 70.3364 39.6873 70.3364L39.5689 70.0817C39.7186 69.5919 39.8002 69.0837 39.8115 68.5716V67.5648L39.9416 66.9312C39.8058 66.7953 39.6291 66.7079 39.4388 66.6824C38.5845 66.8358 37.7408 67.0436 36.9129 67.3042V68.0682C36.694 68.0682 36.3982 68.5301 36.0374 69.4599L34.9016 71.9768C34.7869 72.0485 34.6574 72.0931 34.523 72.1071V73.1138C34.4125 73.5395 34.1968 73.9305 33.8959 74.2509C33.8959 74.7542 33.8072 75.003 33.6357 75.003L33.7658 75.2576C33.3595 75.6183 33.0192 76.0472 32.7601 76.525V77.1586L32.8844 77.4014C32.5945 77.3718 32.4289 77.5436 32.3697 77.8752ZM32.1154 72.5808C33.1399 71.2686 34.0672 69.8831 34.8897 68.4354C34.8876 68.4188 34.8894 68.4019 34.895 68.3862C34.9006 68.3704 34.9098 68.3562 34.9219 68.3447C34.934 68.3332 34.9487 68.3246 34.9646 68.3198C34.9806 68.315 34.9975 68.314 35.014 68.3169V68.6959H35.2624C35.2767 68.2623 35.3626 67.8341 35.5168 67.4286H35.3926V67.5589C35.375 67.5608 35.3573 67.5587 35.3406 67.5528C35.324 67.5469 35.3089 67.5374 35.2964 67.5249C35.2839 67.5124 35.2744 67.4972 35.2685 67.4806C35.2626 67.4639 35.2606 67.4462 35.2624 67.4286C34.4986 67.7534 33.7065 68.0071 32.8962 68.1866C32.5762 68.0245 32.2388 67.8994 31.8906 67.8135V68.1866C31.8891 68.3634 31.9296 68.538 32.0089 68.6959C32.0089 68.7789 31.9734 68.8203 31.8906 68.8203C31.9497 69.1816 32.0266 70.443 32.1154 72.5808ZM35.014 70.5555C35.1824 69.9088 35.4825 69.3039 35.8954 68.7788L36.5283 67.5174V67.2569H36.3982C35.8844 67.8465 35.4978 68.5361 35.2624 69.2822C35.2092 69.2822 35.0376 69.4954 34.7596 69.9159V70.5377L35.014 70.5555ZM38.4213 62.2645C38.8177 60.9913 39.1134 60.3162 39.2968 60.2332C39.2235 59.9219 39.0974 59.6255 38.9241 59.3568L39.1726 58.9837H39.0543C38.9123 58.9837 38.7408 59.2739 38.5396 59.8602L38.6698 60.4938C38.6284 60.8314 38.5041 60.9972 38.2912 60.9972V61.1275L38.4213 61.3703H38.161V62.004C38.1965 62.152 38.2793 62.2408 38.4213 62.2408V62.2645ZM40.6929 73.7416C40.8013 73.369 40.8824 72.9889 40.9354 72.6045C40.9383 72.5873 40.9371 72.5696 40.932 72.5529C40.9269 72.5362 40.9179 72.5209 40.9059 72.5083C40.8938 72.4956 40.879 72.486 40.8625 72.4801C40.8461 72.4741 40.8285 72.4722 40.8112 72.4742L40.9354 71.8465V70.4607L40.8112 68.9388H40.9354L40.8112 68.6959V67.7899C40.8083 67.7726 40.8095 67.7549 40.8146 67.7382C40.8197 67.7215 40.8287 67.7062 40.8408 67.6936C40.8528 67.6809 40.8676 67.6713 40.8841 67.6654C40.9005 67.6595 40.9181 67.6575 40.9354 67.6596C40.8213 67.3783 40.7786 67.0731 40.8112 66.7713C40.6456 66.7713 40.5627 66.8897 40.5627 67.0318V67.9083C40.5977 68.2107 40.5528 68.517 40.4326 68.7966C40.5114 69.1707 40.555 69.5514 40.5627 69.9337V73.7179L40.6929 73.7416ZM41.5684 72.6045C41.7695 72.6045 41.8938 72.1841 41.9411 71.3431C41.8784 71.2257 41.8401 71.0968 41.8287 70.9641H42.0712V70.4607C42.0712 70.289 41.9884 70.2061 41.8287 70.2061L41.9411 69.5724V68.3169C41.9392 68.2994 41.9413 68.2816 41.9472 68.2649C41.9531 68.2483 41.9626 68.2332 41.975 68.2207C41.9875 68.2082 42.0026 68.1986 42.0193 68.1927C42.0359 68.1869 42.0537 68.1848 42.0712 68.1866L41.9411 67.932C41.9572 67.7997 42.0016 67.6725 42.0712 67.5589L41.8287 66.4219C41.9056 66.4219 41.9411 66.3804 41.9411 66.2916H41.6749V67.1799C41.6789 67.3565 41.6339 67.5308 41.5447 67.6833C41.5416 67.7011 41.5428 67.7193 41.5482 67.7366C41.5537 67.7538 41.5632 67.7695 41.576 67.7823C41.5887 67.7951 41.6044 67.8046 41.6216 67.81C41.6388 67.8155 41.6571 67.8167 41.6749 67.8135L41.5447 68.4354V68.6959L41.6749 69.5724H41.5447L41.6749 69.8271V70.0758C41.68 70.111 41.6768 70.1469 41.6655 70.1805C41.6541 70.2142 41.635 70.2447 41.6096 70.2696C41.5842 70.2944 41.5533 70.3129 41.5194 70.3235C41.4855 70.334 41.4496 70.3364 41.4146 70.3304C41.5706 70.5559 41.6608 70.8205 41.6749 71.0944V71.7162L41.5684 72.6045Z" fill="#434867"/>
<path d="M59.3624 76.7386L55.4581 75.3588C55.3386 75.4292 55.2056 75.4736 55.0677 75.4891C53.3604 74.2898 51.978 72.684 51.0452 70.8165C51.0452 70.5974 50.7908 70.3013 50.282 69.9341C50.1815 69.9341 50.0159 69.638 49.7792 69.0458C49.4125 69.0458 49.1877 68.7083 49.0221 68.0391C49.0343 67.8214 48.9937 67.604 48.9037 67.4054C49.3644 65.9268 49.6581 64.4013 49.7792 62.8572C49.2764 62.8572 48.3477 62.0222 47.0108 60.3403V58.8302C47.0119 58.6539 46.967 58.4804 46.8806 58.3268C47.1578 57.5863 47.4941 56.8694 47.8863 56.183C47.8863 55.9698 48.604 55.5059 50.0395 54.7913C52.1415 54.3965 53.1905 53.9346 53.1866 53.4056C53.3108 53.4056 53.6894 52.8133 54.3224 51.6289C55.2748 50.4445 56.0319 49.8523 56.5939 49.8523H57.1855C57.3256 49.9898 57.5059 50.079 57.7001 50.1069V50.3557C57.703 50.3729 57.7018 50.3906 57.6967 50.4073C57.6916 50.424 57.6826 50.4393 57.6706 50.4519C57.6585 50.4646 57.6437 50.4742 57.6272 50.4801C57.6108 50.4861 57.5932 50.488 57.5759 50.486L57.7001 50.7288C57.1727 51.2841 56.7462 51.9274 56.4401 52.6298C56.4573 52.6269 56.475 52.628 56.4917 52.6332C56.5084 52.6383 56.5236 52.6473 56.5363 52.6593C56.5489 52.6714 56.5585 52.6863 56.5644 52.7027C56.5703 52.7192 56.5723 52.7368 56.5703 52.7541C56.6531 52.7541 57.7829 52.5449 59.9599 52.1264L59.8415 51.8658V51.7474C60.0598 51.7619 60.278 51.719 60.4745 51.623C60.5897 51.6925 60.7192 51.735 60.8531 51.7474C60.8531 51.4276 63.3712 51.0071 68.4072 50.486C68.915 50.4903 69.422 50.4467 69.9216 50.3557C70.596 50.4741 70.9391 50.5985 70.9391 50.7288L71.1816 50.6103H71.6844V50.9893C71.3465 51.0044 71.0102 51.046 70.6788 51.1137L70.4244 50.9893C66.9155 51.3899 63.4373 52.025 60.0131 52.8903C60.0131 53.0029 59.8475 53.0858 59.5103 53.1509V52.8903C58.9662 52.9852 58.4506 53.2018 58.0018 53.524C57.491 53.7726 56.9312 53.9041 56.3632 53.9089V54.1577C56.7506 54.1218 57.1321 54.0383 57.499 53.9089V54.0274C57.6145 53.9643 57.741 53.9241 57.8717 53.9089C57.9926 53.9741 58.1254 54.0144 58.2621 54.0274L58.132 53.7787H58.5046V54.0274H58.6348V53.755C58.6523 53.7531 58.6701 53.7552 58.6867 53.7611C58.7033 53.767 58.7185 53.7765 58.7309 53.789C58.7434 53.8015 58.7529 53.8166 58.7588 53.8333C58.7647 53.8499 58.7668 53.8677 58.7649 53.8852C59.374 53.7269 59.9679 53.5149 60.5396 53.2516V53.6306C60.5734 53.6356 60.6078 53.6326 60.6403 53.6219C60.6727 53.6111 60.7021 53.5929 60.7263 53.5688C60.7504 53.5446 60.7686 53.5151 60.7793 53.4827C60.79 53.4502 60.793 53.4157 60.788 53.3819C60.7702 53.385 60.752 53.3838 60.7348 53.3783C60.7175 53.3729 60.7019 53.3634 60.6891 53.3506C60.6764 53.3378 60.6668 53.3221 60.6614 53.3049C60.656 53.2877 60.6548 53.2694 60.6579 53.2516L61.2909 53.1272H61.421C61.5807 53.1272 61.6635 53.2338 61.6635 53.3819H61.1607V53.5003C61.5807 53.5003 61.7937 53.4588 61.7937 53.3819V52.9969H62.048C62.1833 53.1346 62.3599 53.2241 62.5509 53.2516L63.6866 52.8666V52.9969L63.9351 52.8666L64.3196 53.1272C64.3196 53.0384 64.361 52.9969 64.4379 52.9969C64.4361 53.0145 64.4381 53.0323 64.444 53.0489C64.4499 53.0656 64.4594 53.0807 64.4719 53.0932C64.4844 53.1057 64.4995 53.1152 64.5161 53.1211C64.5328 53.127 64.5505 53.1291 64.5681 53.1272C64.5976 52.9555 64.6805 52.8666 64.8224 52.8666H64.9526V53.1627H65.0709V52.7837H65.4554V52.9022H65.201L65.3253 53.1627C65.9071 53.0191 66.5014 52.9319 67.0999 52.9022V53.0325C67.2655 52.8666 68.0227 52.7423 69.3715 52.6594C69.3715 52.9673 68.7799 53.3049 67.5968 53.6661V53.9208C68.0168 53.9208 68.2298 54.0037 68.2298 54.1695C67.4815 54.2552 66.7765 54.5648 66.2067 55.0578C65.6928 55.1193 65.2099 55.3362 64.8224 55.6796C62.9768 56.1001 62.048 56.4791 62.048 56.8167C59.0311 57.4997 56.6807 58.4255 54.9967 59.5941C55.0592 59.9304 55.0967 60.2709 55.1091 60.6127C54.5176 60.743 54.2336 60.9503 54.2336 61.2346L53.6007 60.9858C53.6229 61.243 53.5802 61.5016 53.4764 61.738H53.7308V61.3589H54.1035L53.861 63.633H56.7477C58.6762 63.3132 62.0283 61.6314 66.8041 58.5874C68.3422 57.403 69.3123 56.8108 69.7087 56.8108H69.9571C69.9522 56.8454 69.9553 56.8806 69.9664 56.9138C69.9774 56.9469 69.996 56.9771 70.0207 57.0018C70.0454 57.0265 70.0755 57.0451 70.1086 57.0561C70.1417 57.0672 70.1769 57.0704 70.2115 57.0654V57.3082L69.4484 57.4385C69.5219 57.5545 69.5665 57.6866 69.5785 57.8234C69.3833 58.5104 68.6734 59.1796 67.4371 59.8369C67.3512 59.9907 67.3064 60.1641 67.3069 60.3403H67.1827L66.9343 60.21C66.9343 60.3285 66.6799 60.4588 66.1771 60.6009C66.1771 60.7963 65.8813 61.0036 65.2957 61.2227C65.2957 61.3293 64.9999 61.4951 64.4083 61.7261L64.1599 61.6077V61.7261C64.2486 61.7261 64.29 61.7676 64.29 61.8505C63.4671 62.3324 62.5693 62.6727 61.6339 62.8572L61.7641 63.1178L61.3914 63.6212V63.7515L62.0185 63.8818H62.1486C62.9801 63.3621 63.8671 62.937 64.7928 62.6144C64.9644 62.342 65.6388 62.0874 66.8041 61.8505C66.8988 61.6254 67.3957 61.3352 68.2002 60.974V61.2227C67.8475 61.523 67.5836 61.9142 67.4371 62.3538C66.6117 62.8505 65.8508 63.4472 65.1714 64.1305V64.2608H65.2957C65.9608 64.1471 66.5779 63.8403 67.0703 63.3784H67.443C67.4075 63.5442 66.7331 64.0476 65.4317 64.8944V65.007C65.5974 65.0306 65.6802 65.1136 65.6802 65.2557C65.0563 65.5106 64.527 65.9535 64.1658 66.523C63.0887 66.9655 62.038 67.4697 61.0187 68.0331C59.8356 68.3648 59.2441 68.7912 59.2441 69.2945L56.3396 70.177V70.0467L54.5649 70.6803H54.3224C54.4503 71.0123 54.6749 71.2983 54.9671 71.501C55.2592 71.7037 55.6055 71.8139 55.961 71.8174H57.5996C60.3542 71.5185 63.0372 70.7494 65.5323 69.5433C67.1005 68.711 68.5037 67.5991 69.6732 66.2624C71.016 64.5865 71.7259 63.3665 71.8146 62.6085V61.9748H72.069C72.069 62.117 72.3233 62.3242 72.8202 62.6085C72.9622 63.1178 73.0864 63.3665 73.1929 63.3665C73.1337 64.2904 73.0509 64.7523 72.9504 64.7523L73.0805 65.007V65.1254C72.6866 65.8761 72.126 66.5264 71.4419 67.0264C70.7888 67.9403 69.9187 68.6771 68.9101 69.1702V69.4248H68.7858L68.5374 69.2945C68.4835 69.54 68.3529 69.7619 68.1647 69.9282C68.1807 69.9263 68.1969 69.9281 68.2121 69.9333C68.2274 69.9386 68.2412 69.9473 68.2526 69.9587C68.264 69.9701 68.2726 69.9839 68.2779 69.9992C68.2832 70.0144 68.2849 70.0307 68.283 70.0467C67.9369 70.28 67.5524 70.4504 67.1472 70.55V70.9291C67.2831 70.9449 67.4142 70.9893 67.5317 71.0593C67.5317 70.7869 68.3205 70.2796 69.8979 69.5374C69.8979 69.3715 70.3594 68.9451 71.2881 68.2819C71.2881 68.122 71.7081 67.5712 72.554 66.6415L72.7966 66.0137H73.0568V66.1262C73.0493 66.596 72.8705 67.0467 72.554 67.3936C72.5498 67.568 72.5884 67.7409 72.6664 67.8969C72.1854 68.9296 71.5901 69.9049 70.8918 70.8047C71.0515 70.8047 71.1343 70.8461 71.1343 70.9291L71.7673 70.5441H71.8974V70.8047C71.6489 70.8047 70.8444 71.4324 69.4957 72.6998V72.8182L69.756 72.6998C69.9157 72.6998 69.9985 72.8064 69.9985 72.9426C69.2648 73.1177 68.6282 73.5724 68.2239 74.2099C66.8256 74.7582 65.3953 75.2209 63.941 75.5957C63.5802 76.2708 62.3616 76.6143 60.2911 76.6143C60.3739 76.7031 60.0131 76.7386 59.3624 76.7386ZM66.9224 52.6475H66.7923C66.4615 52.5749 66.125 52.5313 65.7867 52.5172C65.8103 52.3514 65.8931 52.2685 66.0351 52.2685H66.1652C66.1817 52.2656 66.1986 52.2666 66.2146 52.2714C66.2306 52.2762 66.2452 52.2848 66.2573 52.2963C66.2694 52.3078 66.2786 52.322 66.2842 52.3378C66.2898 52.3535 66.2916 52.3704 66.2895 52.387C66.7922 52.0794 67.348 51.8685 67.9281 51.7651V51.8836L68.1884 51.7651H68.8095C68.8095 52.0376 68.3481 52.2448 67.4253 52.387L67.1709 52.2685H66.7923V52.387L66.9224 52.6475Z" fill="#434867"/>
<path d="M93.5896 48.0989C93.5423 48.0989 92.2823 48.5648 89.8096 49.4966C89.1333 49.6784 88.493 49.9748 87.9166 50.373C87.7149 50.405 87.5217 50.4776 87.3489 50.5865C87.176 50.6955 87.027 50.8384 86.911 51.0067V51.1311H87.1654C87.1654 51.2969 87.0352 51.3798 86.7809 51.3798L86.911 52.0135C87.0926 51.7972 87.3232 51.6275 87.5834 51.5183C87.8437 51.4091 88.1263 51.3637 88.4076 51.3857C88.4076 51.0718 88.8276 50.8646 89.6736 50.752C90.163 50.5634 90.6262 50.3126 91.0519 50.0059H91.182L91.4364 50.1302C91.466 49.9999 92.1817 49.6209 93.5778 48.9932C93.5778 49.159 93.7494 49.2419 94.0806 49.2419C94.0806 49.3426 93.6192 49.5558 92.7023 49.8756V50.1302H92.5721L92.3178 50.0059C92.3178 50.1875 91.9392 50.4362 91.182 50.752C91.182 50.9238 91.0992 51.0126 90.9336 51.0126V51.137H91.182C91.1801 51.1202 91.182 51.1032 91.1876 51.0873C91.1932 51.0713 91.2023 51.0568 91.2142 51.0449C91.2262 51.0329 91.2406 51.0238 91.2566 51.0182C91.2725 51.0126 91.2895 51.0107 91.3062 51.0126C91.3042 51.03 91.3061 51.0476 91.312 51.064C91.3179 51.0805 91.3276 51.0953 91.3402 51.1074C91.3529 51.1195 91.3681 51.1284 91.3848 51.1336C91.4015 51.1387 91.4192 51.1399 91.4364 51.137C91.7736 50.9119 91.9392 50.7047 91.9392 50.5092L92.5721 50.6336C92.5721 50.4086 93.2879 50.1539 94.7136 49.8756L94.962 50.0059L96.2221 49.5025L96.855 49.615C96.855 49.3959 97.4466 49.2301 98.6297 49.1116C98.5291 49.2478 97.7246 49.5439 96.2279 50.0059C94.7231 50.551 93.2499 51.1797 91.815 51.8891C91.3105 51.9668 90.8574 52.2415 90.555 52.653H90.9395V52.7774C90.5673 52.8577 90.2213 53.0309 89.9338 53.2808C89.287 53.671 88.6106 54.0096 87.9107 54.2935L86.7809 55.5312C86.9914 56.3385 87.331 57.1065 87.7865 57.8053C88.132 58.6588 88.3877 59.5459 88.5496 60.4525C93.8736 58.8732 97.277 58.0718 98.7598 58.0481L99.0083 58.1784C99.1617 58.0919 99.335 58.047 99.5111 58.0481H99.6471L100.28 58.1784V58.4271C100.104 58.4231 99.9296 58.4681 99.7773 58.5574C99.6247 58.4687 99.4508 58.4237 99.2745 58.4271V58.5574L99.3869 58.812L99.6471 58.6818H99.8897C100.061 58.6818 100.15 58.7943 100.15 58.9423L100.404 58.812H100.907V58.9423C100.907 59.0963 100.446 59.3036 99.517 59.5345V59.6589H99.6471C99.9773 59.5582 100.313 59.4771 100.653 59.4161H100.783V59.6589C100.339 59.6944 100.002 60.1978 99.7773 61.175C99.517 61.3645 99.3869 61.4947 99.3869 61.5599L99.517 61.8027C99.2686 61.8027 98.9728 62.0159 98.6415 62.4364C97.6337 62.8147 96.6616 63.2824 95.737 63.834C95.5398 63.834 93.4812 64.6236 89.5612 66.2028C89.2536 66.5404 89.0051 66.7062 88.8099 66.7062V66.9668H89.0583C89.0604 66.9841 89.0584 67.0017 89.0525 67.0182C89.0466 67.0346 89.037 67.0495 89.0243 67.0616C89.0117 67.0736 88.9964 67.0826 88.9798 67.0877C88.9631 67.0929 88.9454 67.094 88.9282 67.0911C89.1714 68.5542 89.3392 70.0287 89.431 71.509L89.3127 71.7578C89.3784 71.8765 89.4187 72.0075 89.431 72.1427H89.3127L89.431 72.3855C89.431 72.4743 89.3896 72.5158 89.3127 72.5158C89.2358 72.5158 89.3541 72.6461 89.431 72.6461L89.3127 73.2679V76.2586C89.1768 76.2744 89.0458 76.3188 88.9282 76.3889L89.0583 76.8922C89.0583 77.822 88.7625 78.2898 88.1769 78.2898L87.5499 78.4024V78.2898L87.2896 78.4024H87.1713C87.0471 78.4024 86.9169 78.278 86.7868 78.0293L86.5383 78.1596H86.4141C86.4141 77.8161 86.0769 77.5674 85.4084 77.3956C85.2606 76.756 85.0476 76.377 84.7755 76.2586L84.5152 76.3889C84.5152 75.9506 84.1366 75.619 83.3794 75.3821C83.1512 75.1413 83.0187 74.8254 83.0067 74.4938C82.6341 74.4938 82.0839 73.8186 81.3681 72.4743C81.1867 71.894 79.9267 70.3404 77.5881 67.8136C76.7481 67.1464 76.3281 66.7259 76.3281 66.5522C75.7547 66.1053 75.2417 65.5857 74.8019 65.0066C74.8019 64.7756 74.512 64.4143 73.9264 63.8754L73.7962 63.6149L73.9264 63.3661C73.8081 63.3661 73.6365 63.1174 73.4117 62.6081C73.4117 62.4837 73.5419 61.8086 73.7962 60.5946H74.2103C74.061 60.8159 73.9751 61.074 73.9619 61.3408C74.0388 61.7849 74.0802 62.0396 74.0802 62.1047H74.2103C74.2103 61.5007 74.6737 60.2787 75.6005 58.4389C76.5169 57.2194 77.6234 56.1556 78.8777 55.2884C78.8777 55.164 79.4693 54.6133 80.6524 53.648V53.5177H80.7174L80.9777 53.648C81.0468 53.532 81.0911 53.4029 81.1079 53.2689H81.2203L81.4805 53.3992V53.2689C81.3918 53.2689 81.3504 53.2275 81.3504 53.1446C81.8703 52.724 82.4761 52.4227 83.1251 52.2622V51.8772H83.758C86.5186 50.373 87.9876 49.5341 88.1651 49.3603C88.2809 49.4295 88.4099 49.4739 88.5437 49.4906C88.863 49.0409 89.2985 48.6867 89.8037 48.4661H90.1823L90.4366 48.5964C90.4366 48.3062 91.8209 48.6379 93.5837 48.093L93.5896 48.0989ZM84.0005 73.3271V73.0784C84.015 72.8606 83.9743 72.6426 83.8822 72.4447C83.8974 72.3139 83.9375 72.1872 84.0005 72.0716C83.8349 70.749 83.7107 69.1086 83.6279 67.1504C83.2883 67.0847 82.9802 66.9075 82.7524 66.647H82.6222L82.3619 66.7654C82.3619 66.5878 82.0721 66.339 81.4864 66.0192C81.398 65.8643 81.353 65.6884 81.3563 65.5099C81.3803 65.1408 81.4824 64.7809 81.6557 64.4542C81.8291 64.1275 82.0698 63.8414 82.3619 63.6149C82.8707 63.2753 83.1251 63.0207 83.1251 62.8509C83.0921 62.0563 83.0052 61.2648 82.8648 60.4821H82.9949C82.8263 60.1484 82.743 59.7781 82.7524 59.4042C82.7524 59.2799 82.7879 59.2147 82.8648 59.2147C82.7771 59.0177 82.7385 58.8023 82.7524 58.587H82.6222C80.7648 60.2412 79.629 61.5441 79.2149 62.4956C78.9664 62.4956 78.7121 62.8746 78.4577 63.6326H78.0791C78.0791 64.2248 77.8247 64.5091 77.3219 64.5091C77.2568 64.6302 77.2166 64.7631 77.2036 64.9C77.4154 65.0095 77.5956 65.1715 77.7271 65.3706C77.8586 65.5696 77.937 65.799 77.9549 66.037C79.9031 68.2321 81.0369 69.7028 81.3563 70.449C82.8194 72.3796 83.62 73.3449 83.758 73.3449L84.0005 73.3271ZM94.3468 49.0998H93.7316V49.0169C95.4195 48.4247 96.3009 48.1285 96.3758 48.1285H96.506V48.2588C96.435 48.4247 95.7251 48.6852 94.3527 49.1057L94.3468 49.0998Z" fill="#434867"/>
<path d="M115.276 48.0994C115.229 48.0994 113.975 48.5672 111.502 49.497C110.824 49.6782 110.181 49.9747 109.603 50.3735C109.401 50.4054 109.208 50.478 109.035 50.587C108.862 50.6959 108.713 50.8388 108.597 51.0071V51.1315H108.852C108.852 51.2973 108.728 51.3802 108.467 51.3802L108.597 52.0139C108.78 51.7949 109.012 51.6229 109.274 51.5127C109.537 51.4024 109.822 51.3569 110.106 51.3802C110.106 51.0663 110.526 50.8591 111.372 50.7465C111.861 50.5579 112.324 50.3071 112.75 50.0004H112.88L113.135 50.1247C113.17 49.9944 113.88 49.6154 115.276 48.9877C115.276 49.1535 115.448 49.2364 115.779 49.2364C115.779 49.3371 115.323 49.5503 114.401 49.8701V50.1247H114.27L114.016 50.0004C114.016 50.182 113.637 50.4307 112.88 50.7465C112.88 50.9183 112.797 51.0071 112.632 51.0071V51.1315H112.88C112.88 51.0486 112.922 51.0071 113.01 51.0071C113.009 51.0239 113.01 51.0409 113.016 51.0568C113.022 51.0728 113.031 51.0873 113.043 51.0992C113.055 51.1112 113.069 51.1203 113.085 51.1259C113.101 51.1314 113.118 51.1334 113.135 51.1315C113.472 50.9064 113.637 50.6992 113.637 50.5037L114.27 50.6281C114.27 50.4031 114.986 50.1484 116.412 49.8701L116.66 50.0004L117.92 49.497L118.577 49.6095C118.577 49.3904 119.168 49.2246 120.352 49.1061C120.251 49.2423 119.452 49.5384 117.95 50.0004C116.447 50.5454 114.976 51.1741 113.543 51.8836C113.037 51.961 112.582 52.2357 112.277 52.6475H112.661V52.7719C112.289 52.8522 111.943 53.0254 111.656 53.2753C111.009 53.6655 110.333 54.0041 109.633 54.288L108.467 55.5316C108.678 56.3389 109.017 57.1069 109.473 57.8057C109.818 58.6592 110.074 59.5464 110.236 60.4529C115.564 58.8736 118.969 58.0722 120.452 58.0485L120.695 58.1788C120.848 58.0928 121.021 58.0479 121.197 58.0485H121.328L121.961 58.1788V58.4275C121.784 58.4235 121.61 58.4686 121.458 58.5578C121.305 58.4691 121.131 58.4241 120.955 58.4275V58.5578L121.073 58.8125L121.328 58.6822H121.576C121.748 58.6822 121.83 58.7947 121.83 58.9427L122.091 58.8125H122.594V58.9427C122.594 59.0967 122.126 59.304 121.197 59.535V59.6593H121.328C121.658 59.5586 121.994 59.4775 122.333 59.4165H122.463V59.6593C122.02 59.6948 121.683 60.1982 121.458 61.1754C121.197 61.3649 121.073 61.4952 121.073 61.5603L121.197 61.8031C120.949 61.8031 120.659 62.0163 120.322 62.4368C119.304 62.829 118.324 63.3126 117.394 63.8818C117.201 63.8818 115.142 64.6714 111.218 66.2506C110.916 66.5882 110.662 66.754 110.467 66.754V67.0146H110.715C110.715 67.0975 110.674 67.1389 110.585 67.1389C110.831 68.6015 110.999 70.0763 111.088 71.5568L110.97 71.8056C111.038 71.9231 111.078 72.0548 111.088 72.1905H110.97L111.088 72.4333C111.088 72.5221 111.052 72.5636 110.97 72.5636C110.887 72.5636 111.011 72.6939 111.088 72.6939L110.97 73.3157V76.259C110.834 76.2756 110.703 76.32 110.585 76.3893L110.715 76.8927C110.715 77.8224 110.419 78.2903 109.84 78.2903L109.207 78.4028V78.2903L108.946 78.4028H108.828C108.704 78.4028 108.58 78.2784 108.444 78.0297L108.201 78.16H108.071C108.071 77.8165 107.734 77.5678 107.065 77.396C106.917 76.7565 106.704 76.3774 106.432 76.259L106.172 76.3893C106.172 75.951 105.799 75.6194 105.042 75.3825C104.81 75.1439 104.675 74.8272 104.664 74.4942C104.293 74.4942 103.747 73.821 103.025 72.4748C102.844 71.8944 101.584 70.3408 99.245 67.8141C98.405 67.1468 97.985 66.7264 97.985 66.5526C97.4184 66.1151 96.9113 65.6055 96.4765 65.0366C96.4765 64.8056 96.1807 64.4444 95.5951 63.9055L95.4709 63.6449L95.5951 63.3962C95.4827 63.3962 95.3112 63.1474 95.0804 62.6381C95.0804 62.5138 95.2106 61.8387 95.4709 60.6246H95.8435C95.6942 60.846 95.6083 61.104 95.5951 61.3708C95.6482 61.6231 95.6877 61.8782 95.7134 62.1348H95.8435C95.8435 61.5307 96.3069 60.3088 97.2337 58.469C98.15 57.2495 99.2566 56.1857 100.511 55.3184C100.511 55.1941 101.102 54.6433 102.286 53.678V53.5477H102.416L102.67 53.678C102.742 53.5632 102.786 53.4336 102.8 53.299H102.919L103.173 53.4293V53.299C103.156 53.3019 103.138 53.3007 103.121 53.2955C103.105 53.2904 103.089 53.2815 103.077 53.2694C103.064 53.2573 103.054 53.2425 103.049 53.226C103.043 53.2096 103.041 53.192 103.043 53.1746C103.563 52.754 104.168 52.4528 104.817 52.2922V51.9073H105.45C108.211 50.4031 109.682 49.5641 109.863 49.3904C109.977 49.46 110.104 49.5045 110.236 49.5207C110.556 49.0695 110.994 48.7151 111.502 48.4961H111.875L112.129 48.6264C112.129 48.3362 113.513 48.6679 115.276 48.123V48.0994ZM105.693 73.3572V73.1084C105.706 72.8913 105.667 72.6742 105.581 72.4748C105.593 72.3442 105.631 72.2173 105.693 72.1017C105.535 70.7791 105.411 69.1386 105.32 67.1804C104.981 67.1134 104.673 66.9365 104.445 66.677H104.315L104.06 66.7955C104.06 66.6178 103.764 66.3691 103.179 66.0493C103.093 65.8933 103.048 65.718 103.049 65.54C103.22 64.5747 103.557 63.941 104.06 63.6449C104.563 63.3488 104.817 63.0527 104.817 62.8809C104.787 62.0864 104.702 61.2949 104.563 60.5121H104.687C104.521 60.1774 104.438 59.8078 104.445 59.4343C104.445 59.3099 104.48 59.2448 104.563 59.2448C104.47 59.0492 104.429 58.833 104.445 58.617H104.315C102.457 60.2713 101.321 61.5741 100.907 62.5256C100.659 62.5256 100.404 62.9046 100.15 63.6627H99.7773C99.7773 64.2549 99.523 64.5391 99.0143 64.5391C98.9492 64.6602 98.9089 64.7931 98.8959 64.93C99.1084 65.0386 99.2893 65.2004 99.4209 65.3996C99.5525 65.5989 99.6305 65.8288 99.6472 66.067C101.591 68.2622 102.725 69.7328 103.049 70.479C104.512 72.4096 105.312 73.3749 105.45 73.3749L105.693 73.3572ZM116.039 49.1298H115.406V49.0173C117.09 48.4251 117.972 48.129 118.05 48.129H118.181V48.2593C118.127 48.4251 117.394 48.6856 116.039 49.1061V49.1298Z" fill="#434867"/>
<path d="M46.3413 29.5822L46.4655 28.3623C46.4488 28.3642 46.4318 28.3623 46.4158 28.3567C46.3999 28.3511 46.3854 28.342 46.3735 28.33C46.3616 28.3181 46.3525 28.3036 46.3469 28.2877C46.3413 28.2717 46.3394 28.2547 46.3413 28.2379C46.4344 28.127 46.5501 28.0373 46.6807 27.975C46.8114 27.9127 46.9538 27.8792 47.0985 27.8767L47.7315 26.9055L48.2343 23.0028V22.7541L47.974 22.3869V22.2625C48.0627 22.2625 48.1041 22.304 48.1041 22.3869C48.2757 22.3869 48.3585 22.3099 48.3585 22.15V22.0493C48.2772 21.9004 48.2346 21.7334 48.2346 21.5637C48.2346 21.394 48.2772 21.227 48.3585 21.0781V18.881L48.2343 18.0223C48.4315 18.0223 48.6799 16.522 48.9796 13.5215C48.9673 13.3938 48.9269 13.2705 48.8613 13.1602C48.9412 13.0067 48.9818 12.8358 48.9796 12.6628V11.3244C48.9874 10.9558 49.031 10.5889 49.1098 10.2288L48.7312 7.67046C48.8199 7.67046 48.8613 7.62901 48.8613 7.5461C48.8613 7.46319 48.8199 7.42172 48.7312 7.42172C48.5182 6.28468 48.3467 5.71617 48.2343 5.71617C48.1692 4.58505 47.9562 4.01651 47.6013 4.01651V4.25341H47.3765C47.3765 4.14681 47.2937 3.54275 47.1281 2.43532H46.9979L46.7554 2.54784C46.6021 2.33652 46.5118 2.08598 46.4951 1.82534C46.128 1.22224 45.5435 0.783376 44.8624 0.599462C44.8147 0.410259 44.6991 0.245265 44.5376 0.13602C44.3761 0.0267753 44.18 -0.0190624 43.9869 0.00725147C43.5965 0.00725147 43.2179 0.332976 42.8511 0.978485C43.1501 2.67252 43.3182 4.3871 43.3539 6.10701C43.3539 7.29143 43.3125 8.93186 43.2238 10.9809C43.1567 11.0909 43.1143 11.2142 43.0996 11.3422C43.1163 11.3403 43.1333 11.3422 43.1493 11.3478C43.1652 11.3534 43.1797 11.3625 43.1916 11.3744C43.2035 11.3864 43.2126 11.4008 43.2182 11.4168C43.2238 11.4327 43.2257 11.4497 43.2238 11.4665C43.0995 12.1102 43.0145 12.7609 42.9694 13.4149C43.0582 13.4149 43.0996 13.4564 43.0996 13.5393H42.9694L42.8511 16.4589C42.8647 16.59 42.905 16.717 42.9694 16.832C42.8925 16.832 42.8511 16.8675 42.8511 16.9445V18.0401L42.9694 18.6323C42.9529 18.6302 42.936 18.632 42.9203 18.6376C42.9046 18.6432 42.8904 18.6524 42.8789 18.6645C42.8673 18.6766 42.8588 18.6913 42.854 18.7073C42.8492 18.7233 42.8482 18.7402 42.8511 18.7566C42.8511 19.0824 42.8925 19.2482 42.9694 19.2482C42.9694 24.6886 43.6004 28.0583 44.8624 29.3572C45.3652 29.523 45.6196 29.6888 45.6196 29.8487H46.3709L46.3413 29.5822Z" fill="#434867"/>
<path d="M37.5094 31.8211C38.7635 30.1037 39.3906 28.7653 39.3906 27.794C39.9821 24.4066 40.3588 21.8857 40.5204 20.2315V20.119L40.0235 20.3559V20.119L40.1478 19.5268C40.131 19.5286 40.114 19.5267 40.0981 19.5211C40.0822 19.5156 40.0677 19.5065 40.0558 19.4945C40.0438 19.4826 40.0347 19.4681 40.0292 19.4521C40.0236 19.4362 40.0217 19.4192 40.0235 19.4024H40.1478C40.0751 16.6294 40.2434 13.8553 40.6506 11.1115V10.9989H40.4081C40.4081 11.3246 40.2779 11.4845 40.0235 11.4845C40.0383 11.6126 40.0807 11.7358 40.1478 11.8458L40.0235 13.0657C40.0373 13.194 40.0798 13.3175 40.1478 13.427C40.0289 13.8145 39.8598 14.1849 39.6449 14.5285H39.5207C39.5207 13.7113 39.3965 13.3026 39.1421 13.3026C39.1421 13.1487 39.2723 13.0657 39.5207 13.0657V12.207C39.5207 11.678 39.5621 10.8667 39.6449 9.77305H39.3906C39.392 9.94413 39.3514 10.113 39.2723 10.2646L39.3906 10.5133C39.1717 10.5429 39.0061 10.7384 38.8878 11.1055L39.0179 11.603C39.0179 11.68 38.9765 11.7155 38.8878 11.7155C38.8689 11.9216 38.9144 12.1285 39.0179 12.3077C38.9292 12.3077 38.8049 12.592 38.6452 13.1664C38.7305 13.3137 38.7735 13.4818 38.7694 13.652V13.7705L38.5151 14.1436L38.6452 14.3804H38.5032C38.4917 14.5861 38.5367 14.7909 38.6334 14.9727C38.6028 15.3642 38.4725 15.7415 38.2548 16.0683L38.3731 16.317H38.2548C38.2548 16.9684 38.0832 17.2882 37.7401 17.2882V17.4185L37.8703 18.141C37.4588 18.8431 37.2423 19.6425 37.2432 20.4565H36.9948C36.9948 20.3736 37.0362 20.3322 37.1249 20.3322C37.1103 20.0052 37.0667 19.6802 36.9948 19.3609L37.2432 18.9997L37.1249 18.751C37.2846 18.751 37.3675 18.5496 37.3675 18.1588L37.2432 17.9219C37.3261 17.9219 37.4562 17.7146 37.6278 17.3297C37.5386 17.1837 37.4934 17.0151 37.4976 16.844C37.4976 16.7434 37.5804 16.2933 37.7401 15.4997V15.1385L37.6278 14.4041L37.7401 14.1673L37.6278 13.5751L37.8703 12.9828C37.7837 12.8358 37.7388 12.6679 37.7401 12.4972L38.0004 12.136H37.7401L38.1306 9.45327L38.0004 9.20453C38.486 8.26769 39.2893 7.53487 40.2661 7.13772V6.88899C40.2661 6.69948 39.8875 6.53367 39.1303 6.39746C38.3554 6.87715 37.468 7.77731 37.3261 8.41097L37.4976 8.96765C37.5004 9.30826 37.4126 9.64347 37.2432 9.93887L37.3675 10.1817C37.3398 10.7435 37.1665 11.2885 36.8646 11.7629L36.9948 12.0116C36.9776 12.0087 36.9599 12.0099 36.9432 12.015C36.9265 12.0202 36.9113 12.0291 36.8986 12.0412C36.886 12.0533 36.8764 12.0681 36.8705 12.0846C36.8646 12.101 36.8626 12.1186 36.8646 12.136V12.2485H36.9948V13.5928C36.9948 13.8356 37.0776 13.96 37.2432 13.96C37.0493 14.2981 36.9208 14.6698 36.8646 15.0556C36.8646 16.927 36.699 17.8627 36.3618 17.8627V18.0995H36.6103C36.6132 18.116 36.6122 18.1329 36.6074 18.1489C36.6026 18.1649 36.5941 18.1796 36.5825 18.1917C36.571 18.2038 36.5568 18.213 36.5411 18.2186C36.5254 18.2242 36.5085 18.226 36.492 18.2239L36.6103 18.8161C36.4784 18.8296 36.3511 18.872 36.2376 18.9405C36.2768 19.3148 36.3623 19.6828 36.492 20.0361C36.3747 20.1058 36.2433 20.1483 36.1075 20.1604V21.3745C35.9418 21.3745 35.8649 21.5344 35.8649 21.8601H35.7348C35.5691 21.8601 35.4449 21.5758 35.3621 21.0132C35.5565 20.2945 35.6813 19.5588 35.7348 18.8161C35.6465 18.6698 35.6014 18.5014 35.6046 18.3305C35.5821 17.868 35.6714 17.4068 35.8649 16.9862C35.7913 16.8768 35.7465 16.7504 35.7348 16.619C35.4627 16.619 35.2517 17.5962 35.1018 19.5505C35.1905 19.5505 35.232 19.586 35.232 19.663C34.5655 24.2309 33.8103 26.9551 32.9663 27.8355C32.8125 27.1011 32.6409 26.734 32.4635 26.734C30.3576 19.2662 26.0274 13.2553 24.5248 9.67239C24.0161 9.08017 23.7617 8.71892 23.7617 8.57086H23.5192V8.69524L23.6375 8.94396C23.5071 8.8122 23.3496 8.71055 23.1759 8.6461C23.0022 8.58166 22.8165 8.55598 22.6319 8.57086V8.42874H22.8862V8.18C22.2178 8.18 21.8806 8.02012 21.8806 7.6944H21.5316C21.2168 7.99568 20.8228 8.20108 20.3958 8.28661C20.3712 8.05518 20.2889 7.83361 20.1567 7.64221C20.0244 7.45081 19.8463 7.29569 19.6386 7.19102C19.3902 7.30946 19.26 7.43382 19.26 7.55226C19.1245 7.53846 18.9935 7.49608 18.8755 7.4279C18.7394 7.4279 18.6566 7.51082 18.633 7.67664L18.7631 7.91352C18.6744 7.91352 18.633 7.95497 18.633 8.03788L18.3727 7.91352H18.2603C18.2267 7.91191 18.1931 7.91716 18.1616 7.92894C18.13 7.94071 18.1012 7.95879 18.0769 7.98205C18.0526 8.00531 18.0332 8.03327 18.02 8.06425C18.0068 8.09522 18 8.12855 18 8.16224V8.28661L18.2603 9.1394C19.0687 9.1394 19.9916 11.7056 21.0288 16.8381H20.8986C20.9463 17.4574 21.0715 18.0682 21.2713 18.6562H21.1411C21.1325 18.8616 21.1773 19.0657 21.2713 19.2484L21.1411 19.8406C21.2299 20.5454 21.2713 20.954 21.2713 21.0606C21.1885 21.6528 21.1411 21.9548 21.1411 22.0318C21.324 22.7677 21.4115 23.524 21.4014 24.2822C21.4014 25.0106 21.3127 26.2069 21.1411 27.8829C21.1411 29.4878 21.4842 30.5833 22.1586 31.1756V30.9268L22.0285 30.6781C22.1172 30.6781 22.1586 30.6366 22.1586 30.5656V30.4412H21.9397V30.3405C22.0713 30.3255 22.1982 30.2831 22.3124 30.2162C22.6814 30.8053 22.8988 31.4767 22.9454 32.1705C23.7854 32.3067 24.2054 32.6324 24.2054 33.1417H24.306C24.31 32.856 24.3477 32.5717 24.4184 32.2948H24.6786C24.6786 33.1002 24.933 33.5089 25.4358 33.5089L26.8142 33.0173C26.7313 32.4251 26.684 32.1172 26.684 32.0461C26.684 31.8033 26.7727 31.6848 26.9443 31.6848L26.8142 31.0926V30.2339L26.684 29.9971H26.8142C26.8142 29.8609 26.7727 29.3693 26.684 28.5343L26.4415 28.6468C26.5565 28.2598 26.6376 27.8635 26.684 27.4624V26.728L26.5716 26.4793C26.6485 26.4793 26.684 26.4142 26.684 26.2957C26.6899 25.5854 26.6524 24.8754 26.5716 24.1697C26.6189 23.8736 26.7846 23.9091 27.0626 24.2822C28.3837 27.338 29.4308 29.085 30.2038 29.5233C30.8722 29.9082 31.2094 30.2754 31.2094 30.6189C31.8778 31.1696 32.2091 31.4953 32.2091 31.596C32.2979 31.596 32.3393 31.5546 32.3393 31.4717C32.5158 31.6244 32.7391 31.7121 32.9722 31.7204C32.9722 32.283 33.7235 32.6087 35.2379 32.6916C36.7286 32.5969 37.5094 32.3185 37.5094 31.8211Z" fill="#434867"/>
<path d="M35.6047 15.3993L35.729 14.8071V14.6946H35.4864C35.4713 14.9556 35.3809 15.2065 35.226 15.4171L35.3562 15.6658C35.339 15.6629 35.3213 15.6641 35.3046 15.6692C35.2879 15.6744 35.2726 15.6833 35.26 15.6954C35.2474 15.7075 35.2377 15.7223 35.2318 15.7388C35.2259 15.7552 35.2239 15.7728 35.226 15.7902V16.027C35.3621 16.2698 35.4864 16.3942 35.6047 16.3942H35.729C35.7307 16.0586 35.689 15.7242 35.6047 15.3993Z" fill="#434867"/>
<path d="M66.5607 11.5733L66.4897 11.2417H66.3891C66.4038 11.2859 66.408 11.333 66.4015 11.3791C66.395 11.4253 66.3779 11.4693 66.3515 11.5077C66.3251 11.5462 66.2902 11.578 66.2495 11.6006C66.2089 11.6233 66.1635 11.6363 66.1169 11.6385C66.1949 11.7246 66.2552 11.8252 66.2945 11.9346H66.4069C66.3655 11.7214 66.4128 11.6029 66.5607 11.5733Z" fill="#434867"/>
<path d="M104.059 30.5836C104.056 30.5671 104.057 30.5502 104.062 30.5342C104.067 30.5182 104.075 30.5035 104.087 30.4914C104.098 30.4793 104.113 30.4701 104.128 30.4645C104.144 30.4589 104.161 30.4571 104.178 30.4592L103.042 27.2909C103.13 27.2909 103.172 27.2494 103.172 27.1665V27.0421C103.039 26.9118 102.954 26.7409 102.929 26.5565C102.503 24.9773 101.957 23.1474 101.291 21.0667V20.8298L101.533 20.4686V20.2199H101.291V20.0955C102.036 19.9948 102.415 19.752 102.415 19.3671L102.296 19.1184L104.805 18.384L104.68 17.7918H104.935V17.5431C104.42 17.5431 102.87 17.6615 100.273 17.9043C99.952 17.4149 99.701 16.8826 99.5279 16.3231C99.4392 16.3231 99.3978 16.3646 99.3978 16.4475L99.1434 16.3231C99.1582 15.9946 99.1998 15.6678 99.2676 15.346C98.9024 14.4905 98.6518 13.5904 98.5223 12.6692H98.1378C98.1378 12.7521 98.1792 12.7935 98.2679 12.7935V12.9179L98.0076 12.7935C98.0076 12.7106 98.049 12.6692 98.1378 12.6692C98.1378 12.1836 98.0135 11.9408 97.7651 11.9408L97.2623 10.1108H97.1321L96.8896 10.2352C96.6293 9.4594 96.4992 9.05077 96.4992 9.01524C96.2499 8.78126 96.0542 8.49602 95.9255 8.1791C95.7968 7.86219 95.7383 7.52114 95.7538 7.1794V6.4569C95.5349 6.4569 95.4048 6.24963 95.3693 5.86469C95.3865 5.86758 95.4042 5.8664 95.4209 5.86126C95.4375 5.85612 95.4528 5.84718 95.4654 5.83511C95.4781 5.82304 95.4877 5.80819 95.4936 5.79173C95.4995 5.77528 95.5015 5.75767 95.4994 5.74032H94.4938C94.4938 5.4146 94.4051 5.25472 94.2335 5.25472V4.87569L94.3636 4.62696H94.1093L93.4763 4.75134L93.5946 5.00005V5.11258C93.5996 5.14639 93.5966 5.18092 93.5859 5.21337C93.5752 5.24582 93.557 5.2753 93.5329 5.29947C93.5087 5.32364 93.4793 5.34183 93.4469 5.35256C93.4144 5.3633 93.38 5.3663 93.3462 5.36131H93.0918V4.87569H92.9735L92.7191 5.00005C92.7191 4.85792 92.6363 4.77502 92.4707 4.75134H92.3346C92.1631 4.75134 92.0803 4.87569 92.0803 5.11258H91.9501C91.7904 5.11258 91.7076 4.99414 91.7076 4.75134H91.4473L90.1991 4.62696C90.2031 4.6611 90.1991 4.69569 90.1877 4.72808C90.1762 4.76046 90.1574 4.78978 90.1329 4.8138C90.1083 4.83781 90.0786 4.85588 90.046 4.8666C90.0134 4.87733 89.9787 4.88044 89.9447 4.87569H89.8146L89.6963 4.39008H89.1817C88.5901 5.12442 88.1168 5.4916 87.8033 5.4916C87.8181 5.6205 87.8626 5.74418 87.9335 5.85284L86.7977 8.40526C85.3937 12.6376 84.3861 15.4012 83.7748 16.6962C83.6092 16.6962 83.2306 17.2884 82.6391 18.5143C82.6391 19.0414 82.6864 19.3316 82.7692 19.373L80.8881 23.3941C80.3852 23.785 80.1309 24.0692 80.1309 24.241C79.4423 25.4758 78.6715 26.6629 77.8238 27.7943L77.5754 27.7469C77.5772 27.7293 77.5829 27.7124 77.592 27.6974C77.6012 27.6823 77.6136 27.6695 77.6283 27.6598C77.643 27.6502 77.6597 27.644 77.6772 27.6416C77.6946 27.6392 77.7124 27.6408 77.7292 27.6462C77.7347 27.6298 77.7363 27.6123 77.7339 27.5951C77.7315 27.5779 77.7253 27.5616 77.7155 27.5472C77.7058 27.5329 77.6929 27.521 77.6778 27.5125C77.6627 27.504 77.6459 27.4991 77.6286 27.4981L77.8001 27.2909L77.8534 27.0481L77.5754 27.1191H77.463V26.3729C77.5875 26.0209 77.7419 25.6801 77.9244 25.3543L78.0782 22.1386L78.2497 21.9314C78.374 20.5456 78.303 19.829 78.0545 19.7816C78.094 19.653 78.1628 19.5354 78.2557 19.4382C78.2083 17.6102 78.1097 16.0191 77.9599 14.6649H78.0841C78.2024 14.1043 77.9579 12.606 77.3506 10.1701C76.8818 8.8132 76.19 7.54422 75.3038 6.41545C74.3751 5.53897 73.9255 5.04152 73.9491 4.91715L73.4581 4.81647V4.92899C73.3474 4.93966 73.2427 4.98481 73.1589 5.0581C73.0751 5.1314 73.0163 5.22915 72.9908 5.33762L72.7424 5.28432C72.5235 5.1185 72.4229 4.97637 72.4466 4.85793L72.7601 4.54999L72.7897 4.43154H72.6714L72.3934 4.5026C72.4289 4.3427 72.5708 4.28348 72.8134 4.33085V4.21835L71.9793 3.93408V4.05251L71.3581 3.93408C71.2753 3.93408 71.2162 3.98738 71.1866 4.14136L70.8198 4.0703C70.6719 4.04069 70.5063 4.21834 70.3288 4.59736C70.2105 5.15403 71.3049 7.83675 71.5711 8.52371C72.1169 11.357 72.3824 14.2372 72.3638 17.1226L72.1035 20.8654C72.1035 20.8654 73.0145 34.1605 69.4652 36.1207C67.5012 37.2104 63.2657 36.3102 63.2657 36.3102C61.7631 36.2352 59.0026 35.5048 54.9839 34.1191L54.9307 34.0006L54.6941 34.1013C54.9037 34.3587 55.0805 34.6412 55.2206 34.9422L55.3389 34.8949L55.2383 34.6757L55.4631 34.581C55.6997 35.0962 55.9304 35.3094 56.167 35.2087L56.3386 34.9955C56.5318 35.4219 58.1744 36.0141 61.2662 36.7721C61.2798 36.8008 61.2873 36.8319 61.2883 36.8635C61.2893 36.8951 61.2839 36.9267 61.2722 36.9561C61.2606 36.9855 61.243 37.0123 61.2206 37.0346C61.1982 37.057 61.1714 37.0745 61.142 37.086L61.0237 37.1334C60.5557 37.2209 60.0738 37.1985 59.6158 37.0683C58.4778 37.0211 57.355 36.7891 56.2913 36.3813C55.605 36.1762 54.9347 35.9209 54.2859 35.6173L54.1676 35.6706L54.2149 35.7713L55.2679 36.2629L55.3211 36.3754C55.1614 36.4464 54.0375 36.0793 51.9374 35.2857L52.1386 35.7299C52.3515 35.641 52.7301 35.872 53.2921 36.4405C53.44 36.3754 53.8836 36.5412 54.6172 36.938C56.8099 38.1224 57.993 38.912 58.1665 39.3068C59.0392 39.3759 59.8676 39.72 60.5327 40.2899C62.1257 40.5308 63.6782 40.9891 65.1468 41.652C66.5566 41.7361 67.9707 41.7103 69.3764 41.575H70.6246C70.9645 41.3693 71.2634 41.1022 71.506 40.7874C71.7689 40.8373 72.0403 40.8168 72.2928 40.7281C72.5137 40.7415 72.7354 40.7195 72.9494 40.663C73.2334 40.3906 72.9849 40.4616 73.3339 40.1833H73.3872C73.7166 40.1542 74.0357 40.0532 74.3218 39.8872C74.9725 39.6029 75.5246 38.7975 75.9782 37.471L76.1261 36.7603L76.2444 35.5404C76.4041 35.57 76.5461 35.3094 76.6585 34.7527L76.8596 33.7993C77.0383 33.0022 77.1707 32.1955 77.2559 31.383C77.7469 32.5675 78.2497 33.1597 78.7703 33.1597L80.7875 34.4981C81.1247 34.4981 81.2903 34.3737 81.2903 34.1368C81.5089 34.1158 81.7288 34.159 81.9233 34.2612L82.1658 34.1368C82.1569 34.0093 82.1184 33.8856 82.0534 33.7756C82.0534 33.6275 82.1303 33.5446 82.296 33.5268H82.4261L82.9289 33.8881H83.1715L83.4318 33.7756C83.9708 33.0964 84.4331 32.3596 84.8101 31.5785C85.3129 31.3001 85.5672 31.0573 85.5672 30.8441L85.8275 30.9685C85.8953 30.5448 86.0207 30.1323 86.2002 29.7426H86.4191L86.6675 29.8729V29.7485C86.6675 29.5946 86.5433 29.5117 86.2889 29.5117V29.1386C86.958 28.0849 87.4664 26.9372 87.7974 25.7334C87.7974 25.1411 88.5132 24.7029 89.9388 24.389C90.4417 24.3061 90.696 24.1462 90.696 23.9034C90.7132 23.9005 90.7309 23.9017 90.7476 23.9068C90.7643 23.912 90.7795 23.9209 90.7922 23.933C90.8048 23.9451 90.8145 23.9599 90.8204 23.9764C90.8263 23.9928 90.8282 24.0104 90.8262 24.0278C92.6123 23.8093 94.3772 23.4428 96.1028 22.9322C96.9428 24.9516 97.3628 26.2071 97.3628 26.7105C98.9403 30.4375 99.729 32.4273 99.729 32.68C99.733 32.7126 99.7295 32.7456 99.7186 32.7766C99.7077 32.8076 99.6899 32.8356 99.6664 32.8586C99.6429 32.8815 99.6145 32.8987 99.5833 32.9088C99.5521 32.9189 99.5189 32.9217 99.4865 32.9169H99.102L98.2265 32.7925V33.0412C98.7293 33.361 98.9837 33.5624 98.9837 33.6334C100.238 33.9828 100.865 34.2257 100.865 34.3559C101.672 34.5464 102.44 34.8792 103.13 35.339C103.55 35.339 103.763 35.2146 103.763 34.9659H104.521C104.651 34.5573 104.858 34.3737 105.142 34.3737C104.779 31.8469 104.418 30.5836 104.059 30.5836ZM88.3949 10.2411C87.8329 11.621 87.4543 12.3079 87.2591 12.3079C87.2569 12.4772 87.2976 12.6443 87.3774 12.7935C87.2236 13.1666 87.052 13.3858 86.8746 13.3858C86.8746 12.4027 87.5056 10.6162 88.7676 8.02626H88.5073V7.83675H89.0101C89.0191 8.59318 88.7543 9.32731 88.2647 9.90356V10.0279L88.3949 10.2411ZM94.5766 19.1539C93.2243 19.5873 91.8396 19.9121 90.4357 20.1251V19.681H90.56C91.0354 18.6354 91.3734 17.5326 91.5656 16.4001C91.8503 15.4482 92.2749 14.5441 92.8256 13.7174V13.8358C94.0087 17.1522 94.6003 18.8973 94.6003 19.071L94.5766 19.1539ZM101.675 26.1657V26.29C101.421 26.29 101.048 25.3543 100.539 23.4889C100.877 23.4889 101.042 23.7731 101.042 24.3476H101.297L101.545 24.2232C101.545 24.3061 101.587 24.3476 101.675 24.3476L101.545 24.9398C101.634 25.686 101.681 26.0887 101.681 26.1953L101.675 26.1657Z" fill="#434867"/>
<path d="M69.2108 16.0684V15.9677C69.1663 15.9822 69.119 15.9864 69.0726 15.9799C69.0262 15.9733 68.9819 15.9563 68.9431 15.93C68.9043 15.9037 68.872 15.8689 68.8487 15.8282C68.8254 15.7876 68.8117 15.7421 68.8086 15.6953L68.7494 13.6936C68.6725 13.6936 68.5719 13.6107 68.4536 13.4153V12.8527C68.359 12.5684 68.2229 12.45 68.0336 12.4855C68.1452 11.9961 68.1988 11.4951 68.1933 10.9931L67.9685 11.0405C67.8621 12.4026 67.5899 13.131 67.1404 13.2139C67.099 14.3983 66.9925 15.032 66.8209 15.0675H66.7026C66.7451 14.3404 66.832 13.6166 66.9629 12.9001V12.7875C66.9149 12.7978 66.869 12.8158 66.8268 12.8408V12.7046C66.6571 12.5861 66.537 12.4089 66.4897 12.2072H66.3773C66.2589 12.2072 66.1939 12.3908 66.1761 12.6869H66.0519L65.6852 14.3332C65.7114 15.3183 65.557 16.2998 65.2296 17.2291H65.1291V17.1166C65.2931 14.734 65.5834 12.3618 65.9987 10.0101C65.9987 9.91532 66.188 9.61329 66.6198 9.10991L66.5784 8.89079L66.1288 8.97371V8.86119L66.466 8.79604L66.7085 8.8671L67.4894 7.59385L67.4066 7.16153H67.2883C66.8505 7.24444 66.4542 7.75375 66.1052 8.7309C66.0915 8.73544 66.077 8.7368 66.0627 8.73488C66.0484 8.73296 66.0348 8.7278 66.0228 8.7198C66.0108 8.71181 66.0008 8.7012 65.9936 8.68876C65.9863 8.67631 65.982 8.66236 65.9809 8.64798C65.8765 8.78689 65.7319 8.89027 65.5668 8.94409C65.5668 9.02108 65.626 9.05068 65.7029 9.03292V9.14544L65.4604 9.07438V9.1869C65.3006 10.1877 65.0995 10.7089 64.8688 10.7563V10.1996L64.6499 10.241C64.6917 10.3881 64.6917 10.544 64.6499 10.6911C64.7268 10.6911 64.7682 10.6911 64.786 10.7799V10.8925L64.715 11.1234L64.9457 11.0761V11.1886H64.8274L64.5789 11.1175L64.6499 10.8865L64.5316 10.7977H64.4133C63.8994 11.6918 63.5488 12.6704 63.3781 13.6877C63.3783 14.3833 63.2889 15.076 63.1119 15.7486C63.2657 18.6267 63.1908 20.3619 62.8871 20.9541L62.9522 21.2739L63.1119 21.4693H62.9995C62.964 22.4465 62.8753 22.9499 62.7215 22.9795L62.5026 23.0209L62.4612 22.8018C62.3561 22.2264 62.0869 21.6937 61.6862 21.268C61.8194 20.7099 61.8594 20.1336 61.8046 19.5624L61.6448 19.3729C61.6604 19.3727 61.6758 19.3688 61.6897 19.3616C61.7035 19.3544 61.7155 19.3441 61.7247 19.3315C61.7339 19.3188 61.74 19.3042 61.7426 19.2888C61.7451 19.2734 61.7441 19.2576 61.7395 19.2426L61.6271 18.7037C60.9586 16.5125 60.5031 15.4406 60.2783 15.4821L59.9707 13.972C59.6572 12.3622 58.9927 10.8416 58.0245 9.51853C57.4633 8.85435 57.001 8.11231 56.6521 7.31551V7.20299L56.9834 7.14376L56.8355 6.94834L55.4749 6.53379L54.3628 6.74699L54.4279 6.51602V6.4035L54.0966 6.46865L53.8837 6.65224C53.7713 6.06003 53.2921 5.65139 52.4698 5.34937L52.2628 5.50335C52.262 5.48752 52.2574 5.47211 52.2495 5.45838C52.2416 5.44465 52.2306 5.43299 52.2173 5.42433C52.204 5.41567 52.1889 5.41028 52.1732 5.40857C52.1575 5.40687 52.1415 5.4089 52.1267 5.41452L51.7955 5.47374C51.4878 5.53222 51.1981 5.66202 50.9495 5.85275C51.1843 7.96021 51.2674 10.0819 51.198 12.2012L51.3518 12.3967H51.2394C51.2786 12.5061 51.3389 12.6067 51.4169 12.6928C51.3045 13.1666 51.2039 13.4094 51.1093 13.4331C51.2142 13.7936 51.359 14.1412 51.5411 14.4694C51.4291 14.5049 51.3247 14.5611 51.2335 14.6352C51.2705 14.7492 51.331 14.8541 51.411 14.9432C51.3437 15.4636 51.3317 15.9896 51.3755 16.5125C51.3903 16.5069 51.4062 16.5049 51.4219 16.5066C51.4377 16.5083 51.4528 16.5137 51.466 16.5224C51.4793 16.531 51.4903 16.5427 51.4982 16.5564C51.5061 16.5702 51.5107 16.5855 51.5115 16.6014C51.4346 16.6014 51.3873 16.7376 51.3577 16.9626L51.5529 17.3831C51.6081 17.8924 51.549 18.1648 51.3755 18.2003L51.5293 18.9524C51.618 19.6039 51.5293 19.9592 51.2808 20.0066L51.411 20.658L51.1625 20.5929V21.7121C51.2394 21.7121 51.2867 21.7121 51.2986 21.801C50.8726 25.8004 50.8234 28.6134 51.1507 30.24C51.2227 30.2132 51.2999 30.2035 51.3762 30.2116C51.4526 30.2197 51.5261 30.2454 51.5908 30.2867C51.6556 30.328 51.7099 30.3838 51.7495 30.4497C51.7892 30.5156 51.813 30.5897 51.8191 30.6664L51.9493 31.3178C52.245 31.2586 52.4343 31.4126 52.5053 31.7738V32.3364C53.1974 32.3364 53.576 32.4667 53.6411 32.7865L54.1794 32.5792L54.4042 32.5378C54.5166 32.5378 54.6586 32.6384 54.8242 32.9049C55.1673 32.8378 55.4217 32.3759 55.5873 31.5192L55.9186 31.4599C55.9955 31.4599 56.0665 31.0513 56.1434 30.2755C56.1848 28.5996 56.3149 27.5277 56.5338 27.0717C56.5019 26.9598 56.4453 26.8566 56.3682 26.7696C56.4736 26.0996 56.4895 25.4185 56.4155 24.7443C56.4007 24.7487 56.3851 24.7498 56.3698 24.7476C56.3545 24.7454 56.3399 24.7398 56.3269 24.7314C56.314 24.7229 56.303 24.7118 56.2948 24.6987C56.2866 24.6855 56.2814 24.6708 56.2794 24.6554C56.4407 24.3643 56.5337 24.0403 56.5516 23.7079L56.3268 23.1868C56.1809 22.1682 56.2282 21.6352 56.4687 21.5878C56.4676 21.5727 56.4631 21.558 56.4556 21.5448C56.448 21.5317 56.4376 21.5205 56.4251 21.5119C56.4126 21.5034 56.3983 21.4978 56.3833 21.4955C56.3684 21.4933 56.3531 21.4945 56.3386 21.499C56.2917 20.9749 56.2917 20.4477 56.3386 19.9237L56.1138 19.9651C56.2597 19.5975 56.3359 19.2059 56.3386 18.8103L56.7941 18.7215L57.1195 19.7756L57.5099 21.7181L57.6696 21.9194H57.5572L58.1783 23.8204L58.1073 24.0573C58.4504 24.9634 58.764 25.9465 59.0538 27.0184C59.249 28.0014 60.1009 29.5234 61.5975 31.5784C61.8746 31.9101 62.2093 32.189 62.5854 32.4016L62.5381 32.1824H62.6446C62.893 32.2535 63.0291 32.3364 63.0468 32.4371C63.5069 32.5808 63.9171 32.8517 64.2299 33.2188C64.9634 33.0352 65.3066 32.8576 65.2711 32.6858C65.6556 32.6858 65.8626 32.7391 65.8981 32.899L66.5251 32.5615C66.9155 31.8645 67.2308 31.128 67.4657 30.3644C68.1815 27.9955 68.6488 26.1833 68.9091 24.9278C69.1694 21.5838 69.27 18.6307 69.2108 16.0684ZM64.1885 25.7925C64.1955 26.1986 64.119 26.6017 63.9637 26.9769C63.905 26.9894 63.8437 26.9784 63.7928 26.9463C63.742 26.9143 63.7057 26.8636 63.6916 26.8052L63.5851 26.2663H63.6975L64.1944 24.1521C64.1549 24.0415 64.0924 23.9405 64.011 23.8559C64.1741 23.8013 64.3152 23.6953 64.4133 23.5539V23.6605L64.2595 24.0218L64.3068 24.2409L64.5198 24.2054L64.4547 23.8796H64.573L64.7032 24.5192C64.5316 25.3187 64.3364 25.7688 64.1885 25.7925ZM64.9398 19.8704C64.7161 20.2607 64.6055 20.7057 64.6203 21.1555C64.6071 21.16 64.5931 21.1615 64.5792 21.1599C64.5653 21.1583 64.552 21.1537 64.5401 21.1463C64.5282 21.139 64.5181 21.1291 64.5105 21.1173C64.5029 21.1056 64.498 21.0923 64.4961 21.0785H64.4666V21.1436C64.4666 21.1969 64.3956 21.9609 64.2299 23.4296H64.1175V23.3289V22.6597C64.2422 22.1596 64.3292 21.6508 64.3778 21.1377L64.3187 21.1792H64.2063L64.1175 20.7468L64.4606 20.6817C64.6026 19.6157 64.7209 19.0709 64.8156 19.0531H64.9339L64.9753 19.2663C65.0225 19.4648 65.0102 19.6729 64.9398 19.8645V19.8704ZM66.3063 13.2554L66.2471 12.9474H66.3654L66.4246 13.2199L66.3063 13.2554Z" fill="#434867"/>
</svg>
