<svg width="40" height="40" viewBox="0 0 40 40" fill="none" xmlns="http://www.w3.org/2000/svg">
<path d="M20 0C8.95599 0 0 8.95599 0 20C0 31.044 8.95599 40 20 40C31.044 40 40 31.044 40 20C40 8.95599 31.044 0 20 0ZM20.4239 31.6446C20.4236 31.6446 20.4242 31.6446 20.4239 31.6446H20.419C18.4155 31.6437 16.4468 31.1414 14.6985 30.188L8.35297 31.8521L10.0513 25.6509C9.0036 23.8364 8.45245 21.7776 8.45337 19.6686C8.45612 13.0707 13.826 7.70294 20.4239 7.70294C23.6258 7.70416 26.6315 8.9505 28.8913 11.2122C31.1514 13.4741 32.3953 16.4807 32.3941 19.678C32.3914 26.2762 27.0209 31.6446 20.4239 31.6446Z" fill="#C9C9C9"/>
<path d="M20.428 9.72412C14.94 9.72412 10.4768 14.1855 10.4744 19.6695C10.4738 21.5488 10.9999 23.3789 11.9957 24.9625L12.2322 25.3387L11.2269 29.0091L14.9925 28.0215L15.356 28.237C16.8834 29.1434 18.6345 29.6228 20.4197 29.6234H20.4237C25.9074 29.6234 30.3706 25.1617 30.3731 19.6774C30.374 17.0197 29.34 14.5209 27.4617 12.641C25.5833 10.7611 23.0852 9.72504 20.428 9.72412ZM26.28 23.9456C26.0307 24.6439 24.8359 25.2814 24.2613 25.3674C23.7459 25.4443 23.094 25.4764 22.3774 25.249C21.9429 25.1111 21.3859 24.9271 20.6721 24.6191C17.6719 23.324 15.7124 20.304 15.5629 20.1044C15.4133 19.9048 14.3416 18.483 14.3416 17.0111C14.3416 15.5396 15.1143 14.816 15.3883 14.5169C15.6627 14.2175 15.9868 14.1428 16.186 14.1428C16.3853 14.1428 16.5849 14.1446 16.7592 14.1531C16.9429 14.1623 17.1895 14.0833 17.4321 14.6664C17.6814 15.2652 18.2795 16.7368 18.3543 16.8863C18.4291 17.0361 18.4788 17.2107 18.3793 17.4103C18.2795 17.6099 17.9481 18.0405 17.6317 18.4329C17.4989 18.5974 17.3259 18.7439 17.5004 19.0433C17.6747 19.3423 18.2753 20.3217 19.1643 21.1145C20.3068 22.1332 21.2706 22.4487 21.5696 22.5986C21.8684 22.7481 22.043 22.7231 22.2175 22.5238C22.3918 22.3242 22.9652 21.6507 23.1645 21.3513C23.3638 21.0519 23.5634 21.102 23.8374 21.2018C24.1118 21.3013 25.5821 22.0248 25.8812 22.1744C26.1802 22.3242 26.3795 22.399 26.4543 22.5238C26.5294 22.6486 26.5294 23.2471 26.28 23.9456Z" fill="#C9C9C9"/>
</svg>
