<svg width="55" height="107" viewBox="0 0 55 107" fill="none" xmlns="http://www.w3.org/2000/svg">
<path fill-rule="evenodd" clip-rule="evenodd" d="M42.6479 34.292V15.708C42.6479 7.76582 36.0898 1.32743 28 1.32743C19.9102 1.32743 13.3521 7.76582 13.3521 15.708V34.292C13.3521 42.2342 19.9102 48.6726 28 48.6726C36.0898 48.6726 42.6479 42.2342 42.6479 34.292ZM28 0C19.1634 0 12 7.03269 12 15.708V34.292C12 42.9673 19.1634 50 28 50C36.8366 50 44 42.9673 44 34.292V15.708C44 7.0327 36.8366 0 28 0Z" fill="#1D2138"/>
<path fill-rule="evenodd" clip-rule="evenodd" d="M30.4 22.0294V11.9706C30.4 10.6549 29.3255 9.58824 28 9.58824C26.6745 9.58824 25.6 10.6549 25.6 11.9706V22.0294C25.6 23.3451 26.6745 24.4118 28 24.4118C29.3255 24.4118 30.4 23.3452 30.4 22.0294ZM28 8C25.7909 8 24 9.77769 24 11.9706V22.0294C24 24.2223 25.7909 26 28 26C30.2091 26 32 24.2223 32 22.0294V11.9706C32 9.77769 30.2091 8 28 8Z" fill="#1D2138"/>
<path fill-rule="evenodd" clip-rule="evenodd" d="M29 11.8182C29 11.3663 28.5523 11 28 11C27.4477 11 27 11.3663 27 11.8182V16.1818C27 16.6337 27.4477 17 28 17C28.5523 17 29 16.6337 29 16.1818V11.8182Z" fill="#1D2138"/>
<path d="M29 59C29 59.5523 28.5523 60 28 60C27.4477 60 27 59.5523 27 59C27 58.4477 27.4477 58 28 58C28.5523 58 29 58.4477 29 59Z" fill="#1D2138"/>
<path d="M29 63C29 63.5523 28.5523 64 28 64C27.4477 64 27 63.5523 27 63C27 62.4477 27.4477 62 28 62C28.5523 62 29 62.4477 29 63Z" fill="#1D2138"/>
<path d="M29 67C29 67.5523 28.5523 68 28 68C27.4477 68 27 67.5523 27 67C27 66.4477 27.4477 66 28 66C28.5523 66 29 66.4477 29 67Z" fill="#1D2138"/>
<path d="M6.14 102.12C9.72 102.12 11.36 100.36 11.36 98.3C11.36 93.2 2.74 95.52 2.74 91.68C2.74 90.28 3.88 89.14 6.44 89.14C7.68 89.14 9.08 89.52 10.28 90.3L10.78 89.12C9.66 88.34 8.02 87.88 6.44 87.88C2.88 87.88 1.28 89.66 1.28 91.72C1.28 96.9 9.9 94.54 9.9 98.38C9.9 99.76 8.76 100.86 6.14 100.86C4.3 100.86 2.52 100.14 1.52 99.16L0.94 100.3C1.98 101.38 4.04 102.12 6.14 102.12ZM18.6447 102.1C20.4247 102.1 21.9247 101.38 22.7647 100.02L21.7047 99.3C20.9847 100.36 19.8647 100.84 18.6447 100.84C16.3447 100.84 14.6647 99.22 14.6647 96.74C14.6647 94.28 16.3447 92.64 18.6447 92.64C19.8647 92.64 20.9847 93.14 21.7047 94.2L22.7647 93.48C21.9247 92.1 20.4247 91.4 18.6447 91.4C15.5047 91.4 13.2247 93.6 13.2247 96.74C13.2247 99.88 15.5047 102.1 18.6447 102.1ZM26.9142 93.54V91.48H25.5542V102H26.9742V96.64C26.9742 94.16 28.3142 92.76 30.5142 92.76C30.6142 92.76 30.7342 92.78 30.8542 92.78V91.4C28.9142 91.4 27.5742 92.14 26.9142 93.54ZM37.6277 102.1C40.7077 102.1 42.9677 99.86 42.9677 96.74C42.9677 93.62 40.7077 91.4 37.6277 91.4C34.5477 91.4 32.2677 93.62 32.2677 96.74C32.2677 99.86 34.5477 102.1 37.6277 102.1ZM37.6277 100.84C35.3877 100.84 33.7077 99.2 33.7077 96.74C33.7077 94.28 35.3877 92.64 37.6277 92.64C39.8677 92.64 41.5277 94.28 41.5277 96.74C41.5277 99.2 39.8677 100.84 37.6277 100.84ZM45.8667 102H47.2867V87.16H45.8667V102ZM51.2378 102H52.6578V87.16H51.2378V102Z" fill="#1D2138"/>
<path fill-rule="evenodd" clip-rule="evenodd" d="M35.6818 68.8369L28.7682 75.6848C28.3439 76.1051 27.6561 76.1051 27.2318 75.6848L20.3182 68.8369C19.8939 68.4167 19.8939 67.7354 20.3182 67.3152C20.7424 66.8949 21.4303 66.8949 21.8546 67.3152L28 73.4022L34.1454 67.3152C34.5697 66.8949 35.2576 66.8949 35.6818 67.3152C36.1061 67.7354 36.1061 68.4167 35.6818 68.8369Z" fill="#1D2138"/>
</svg>
