<svg width="55" height="54" viewBox="0 0 55 54" fill="none" xmlns="http://www.w3.org/2000/svg">
<path d="M43.3324 1.86609H14.8745C14.3279 1.86609 13.8831 1.42138 13.8831 0.87473C13.8831 0.391529 13.4915 0 13.0084 0C12.5253 0 12.1337 0.391529 12.1337 0.87473C12.1337 2.38603 13.3632 3.61555 14.8745 3.61555H43.3324C48.2521 3.61555 52.2546 7.61797 52.2546 12.5378C52.2546 16.9285 49.0658 20.5859 44.8831 21.3223C47.0731 18.8596 48.4058 15.6184 48.4058 12.0713V10.2052C48.4058 8.69388 47.1763 7.46436 45.665 7.46436H20.4728C14.31 7.46436 9.08554 9.842 5.36408 14.3402C1.90762 18.5182 0.00408936 24.3395 0.00408936 30.7322C0.00408936 43.5621 10.442 54 23.2719 54H34.4685C34.7716 54 35.0531 53.843 35.2126 53.5851C35.372 53.3272 35.3865 53.0051 35.2508 52.734L33.5604 49.3532L35.2806 45.0527C35.4114 44.7256 35.3333 44.3522 35.0825 44.1049C34.8316 43.8576 34.457 43.7849 34.132 43.9204L23.1022 48.5161C16.9742 48.4251 12.017 43.4126 12.017 37.2635C12.017 31.1926 16.8489 26.2297 22.8688 26.0167L26.8326 30.7732C26.9809 30.951 27.0624 31.1764 27.0624 31.4078V36.3305C27.0624 36.8137 27.4541 37.2052 27.9371 37.2052C28.4202 37.2052 28.8119 36.8137 28.8119 36.3305V31.4078C28.8119 30.7679 28.5862 30.1447 28.1766 29.6531L25.1395 26.0086H27.5274L31.4979 30.7732C31.6461 30.951 31.7276 31.1764 31.7276 31.4078V36.3305C31.7276 36.8137 32.1193 37.2052 32.6024 37.2052C33.0854 37.2052 33.4771 36.8137 33.4771 36.3305V31.4078C33.4771 30.7679 33.2514 30.1447 32.8418 29.6531L29.8047 26.0086H32.1926L36.1631 30.7732C36.3113 30.951 36.3929 31.1764 36.3929 31.4078V36.3305C36.3929 36.8137 36.7845 37.2052 37.2676 37.2052C37.7507 37.2052 38.1423 36.8137 38.1423 36.3305V31.4078C38.1423 30.7679 37.9166 30.1447 37.507 29.6531L34.47 26.0086C37.6079 26.0083 40.5067 24.9651 42.8387 23.2082C42.8478 23.2085 42.8568 23.2096 42.8659 23.2096H43.3324C49.2167 23.2096 54.0041 18.4223 54.0041 12.5379C54.0041 6.65355 49.2167 1.86609 43.3324 1.86609ZM46.6564 10.2052V12.0713C46.6564 18.7916 41.1889 24.2592 34.4685 24.2592H23.2719C23.2707 24.2592 23.2695 24.2592 23.2683 24.2592C23.2675 24.2592 23.2665 24.2592 23.2657 24.2592C22.6141 24.2595 21.9737 24.3084 21.3475 24.4017V9.21382H45.665C46.2116 9.21382 46.6564 9.65854 46.6564 10.2052ZM19.598 9.23283V24.7884C18.1785 25.2072 16.8594 25.8618 15.6861 26.7074L6.5536 15.6522C6.60632 15.5866 6.65845 15.5203 6.71199 15.4555C9.9135 11.5857 14.3551 9.44627 19.598 9.23283ZM11.3968 42.5606L7.05453 44.8595C3.81255 41.1429 1.82539 36.3056 1.75705 31.014L10.6851 33.9899C10.4128 35.0362 10.2676 36.1332 10.2676 37.2635C10.2676 39.1491 10.6718 40.9418 11.3968 42.5606ZM31.82 49.7843L33.0531 52.2505H24.1466V49.9762L32.8831 46.3361L31.7903 49.0683C31.6974 49.3002 31.7083 49.5608 31.82 49.7843ZM22.3972 50.2388V52.233C16.932 52.0132 11.9859 49.7443 8.30539 46.1768L12.2178 44.1055C14.3691 47.5683 18.1006 49.9519 22.3972 50.2388ZM11.2402 32.3308L1.79414 29.1822C2.03055 24.6111 3.31383 20.4321 5.49145 17.1132L14.3381 27.8224C13.0102 29.0799 11.9467 30.6138 11.2402 32.3308Z" fill="#6A6A6A"/>
<path d="M35.4009 16.6776C36.9122 16.6776 38.1417 15.448 38.1417 13.9367C38.1417 12.4254 36.9122 11.1959 35.4009 11.1959C33.8896 11.1959 32.6601 12.4254 32.6601 13.9367C32.6601 15.448 33.8896 16.6776 35.4009 16.6776ZM35.4009 12.9454C35.9475 12.9454 36.3922 13.3901 36.3922 13.9367C36.3922 14.4834 35.9475 14.9281 35.4009 14.9281C34.8542 14.9281 34.4095 14.4834 34.4095 13.9367C34.4095 13.3901 34.8542 12.9454 35.4009 12.9454Z" fill="#6A6A6A"/>
</svg>
