<svg width="54" height="54" viewBox="0 0 54 54" fill="none" xmlns="http://www.w3.org/2000/svg">
<rect x="6" y="28" width="18" height="18" fill="#F5E339"/>
<path d="M31.5 49.5L37 49L40.5 47L43 49.5H49V53H32L31.5 49.5Z" fill="#F5E339"/>
<path d="M8.23743 18.9V20.7C6.72096 20.7 5.49162 21.9088 5.49162 23.4V51.3C5.49162 52.7912 6.72096 54 8.23743 54H21.9665C23.483 54 24.7123 52.7912 24.7123 51.3V23.4C24.7123 21.9088 23.483 20.7 21.9665 20.7V18C21.9626 16.3089 20.7622 14.8485 19.0816 14.49L17.5164 6.264C17.9993 6.18024 18.4272 5.90814 18.703 5.50951C18.9788 5.11088 19.079 4.61957 18.9809 4.1472L18.4317 1.4472C18.2587 0.608466 17.5109 0.00424015 16.6405 0H13.5634C12.6916 0.00218911 11.9415 0.606956 11.7685 1.4472L11.5141 2.7H8.23743C5.29448 2.7 2.57508 4.24385 1.10361 6.75C-0.367869 9.25615 -0.367869 12.3439 1.10361 14.85C2.57508 17.3561 5.29448 18.9 8.23743 18.9ZM22.8818 45H7.32216V29.7H22.8818V45ZM21.9665 52.2H8.23743C7.73194 52.2 7.32216 51.7971 7.32216 51.3V46.8H22.8818V51.3C22.8818 51.7971 22.472 52.2 21.9665 52.2ZM22.8818 23.4V27.9H7.32216V23.4C7.32216 22.9029 7.73194 22.5 8.23743 22.5H21.9665C22.472 22.5 22.8818 22.9029 22.8818 23.4ZM20.1359 18V20.7H10.068V18C10.068 17.0059 10.8875 16.2 11.8985 16.2H18.3054C19.3164 16.2 20.1359 17.0059 20.1359 18ZM14.5436 6.3H15.6603L17.2071 14.4H13.006L14.5436 6.3ZM14.6443 1.8H16.6414L17.1906 4.5H13.0151L13.5643 1.8H14.6443ZM8.23743 4.5H11.1883C11.182 5.36941 11.8163 6.11567 12.6875 6.264L11.1224 14.49C9.77806 14.7815 8.71367 15.7899 8.3674 17.1H8.23743C4.699 17.1 1.83054 14.2794 1.83054 10.8C1.83054 7.32061 4.699 4.5 8.23743 4.5Z" fill="#565656"/>
<path d="M52.7241 16.8102L53.3144 15.3585C53.7685 14.2457 54.0012 13.0575 53.9999 11.8584V7.2C53.9954 3.2254 50.7198 0.00446389 46.6778 0H33.864C29.822 0.00446389 26.5464 3.2254 26.5419 7.2V11.8584C26.5404 13.0572 26.7731 14.2451 27.2274 15.3576L27.8177 16.8111C28.1852 17.711 28.3735 18.6719 28.3724 19.6416V23.1885C28.3705 24.3718 28.0901 25.5387 27.5532 26.5977C26.89 27.9068 26.5439 29.349 26.5419 30.8115V34.2C26.5419 38.3598 29.4314 41.4675 31.1676 42.9624C30.5581 43.4699 30.2055 44.2146 30.2029 45V51.3C30.2029 52.7912 31.4323 54 32.9487 54H47.5931C49.1095 54 50.3389 52.7912 50.3389 51.3V45C50.3363 44.2146 49.9837 43.4699 49.3742 42.9624C51.1104 41.4675 53.9999 38.3598 53.9999 34.2V30.8115C53.9993 29.3491 53.6547 27.9066 52.9931 26.5968C52.4546 25.5385 52.1726 24.3719 52.1694 23.1885V19.6416C52.1684 18.6716 52.3567 17.7104 52.7241 16.8102ZM48.5083 48.6H43.802C43.391 47.0122 41.9371 45.9008 40.2709 45.9008C38.6047 45.9008 37.1508 47.0122 36.7398 48.6H32.0335V45C32.0335 44.5029 32.4433 44.1 32.9487 44.1H47.5931C48.0985 44.1 48.5083 44.5029 48.5083 45V48.6ZM47.5931 52.2H32.9487C32.4433 52.2 32.0335 51.7971 32.0335 51.3V50.4H37.5251C38.0306 50.4 38.4404 49.9971 38.4404 49.5C38.4404 48.5059 39.2599 47.7 40.2709 47.7C41.2819 47.7 42.1014 48.5059 42.1014 49.5C42.1014 49.9971 42.5112 50.4 43.0167 50.4H48.5083V51.3C48.5083 51.7971 48.0985 52.2 47.5931 52.2ZM51.3457 27.4032C51.8842 28.4615 52.1662 29.6281 52.1694 30.8115V34.2C52.1694 38.4633 48.2658 41.5908 47.2993 42.3H33.2425C32.276 41.5908 28.3724 38.4633 28.3724 34.2V30.8115C28.3743 29.6282 28.6547 28.4613 29.1916 27.4023C29.8548 26.0932 30.2009 24.651 30.2029 23.1885V19.6416C30.2044 18.4428 29.9717 17.2549 29.5174 16.1424L28.927 14.6889C28.5596 13.789 28.3713 12.8281 28.3724 11.8584V7.2C28.3754 4.2189 30.8323 1.80298 33.864 1.8H46.6778C49.7095 1.80298 52.1664 4.2189 52.1694 7.2V11.8584C52.1704 12.8284 51.9821 13.7896 51.6147 14.6898L51.0244 16.1415C50.5703 17.2543 50.3376 18.4425 50.3389 19.6416V23.1885C50.341 24.6513 50.6871 26.0938 51.3502 27.4032H51.3457Z" fill="#565656"/>
<path d="M32.034 34.1994C32.034 33.7023 31.6242 33.2993 31.1187 33.2993C30.6132 33.2993 30.2035 33.7023 30.2035 34.1994C30.2035 36.9159 32.3415 39.1724 33.6156 40.275C33.8595 40.4969 34.2065 40.5713 34.5222 40.4695C34.8379 40.3678 35.0727 40.1057 35.1358 39.7849C35.1988 39.4641 35.08 39.1349 34.8256 38.9249C33.9863 38.1976 32.034 36.2822 32.034 34.1994Z" fill="#565656"/>
<path d="M31.1187 8.09979C31.6242 8.09979 32.034 7.69681 32.034 7.19971C32.034 6.2055 32.8536 5.39954 33.8645 5.39954C34.37 5.39954 34.7798 4.99655 34.7798 4.49945C34.7798 4.00235 34.37 3.59937 33.8645 3.59937C31.8426 3.59937 30.2035 5.21129 30.2035 7.19971C30.2035 7.43842 30.2999 7.66736 30.4715 7.83616C30.6432 8.00496 30.876 8.09979 31.1187 8.09979Z" fill="#565656"/>
<path d="M35 9L45 8V12L48 13L45.5 30L35 30.5L32.5 13.5L35 12.5V9Z" fill="#F5E339"/>
<path d="M47.4458 11.6993H46.2953L46.5699 9.82824C46.7003 8.96611 46.1812 8.13669 45.3398 7.86264C42.0223 6.97824 38.5252 6.97824 35.2077 7.86264C34.3664 8.13633 33.8473 8.96545 33.9776 9.82734L34.2522 11.6993H33.0962C32.5627 11.6992 32.0556 11.9279 31.7078 12.3257C31.3599 12.7234 31.2058 13.2506 31.2858 13.7693L33.757 29.9693C33.8971 30.847 34.664 31.4951 35.5674 31.4993H44.9746C45.878 31.4951 46.6449 30.847 46.785 29.9693L49.2562 13.7693C49.3363 13.2506 49.1822 12.7234 48.8343 12.3257C48.4864 11.9279 47.9794 11.6992 47.4458 11.6993ZM44.9746 29.6993H35.5674L33.0962 13.4993H35.3011C35.5665 13.4996 35.819 13.3865 35.993 13.1895C36.1671 12.9925 36.2456 12.7308 36.2081 12.4724L35.7734 9.57444C37.2421 9.19761 38.7532 9.00439 40.271 8.99934C41.7847 9.00308 43.2917 9.19603 44.7558 9.57354L44.3357 12.4724C44.2984 12.7305 44.3766 12.9918 44.5502 13.1888C44.7239 13.3858 44.9758 13.4991 45.2409 13.4993H47.4458L44.9746 29.6993Z" fill="#565656"/>
<path d="M43.9316 15.2993H36.6095C36.104 15.2993 35.6942 15.7023 35.6942 16.1994C35.6942 16.6965 36.104 17.0995 36.6095 17.0995H43.9316C44.4371 17.0995 44.8469 16.6965 44.8469 16.1994C44.8469 15.7023 44.4371 15.2993 43.9316 15.2993Z" fill="#565656"/>
<path d="M43.0181 18.8993H37.5265C37.021 18.8993 36.6112 19.3023 36.6112 19.7994C36.6112 20.2965 37.021 20.6995 37.5265 20.6995H43.0181C43.5236 20.6995 43.9334 20.2965 43.9334 19.7994C43.9334 19.3023 43.5236 18.8993 43.0181 18.8993Z" fill="#565656"/>
</svg>
