<svg width="55" height="54" viewBox="0 0 55 54" fill="none" xmlns="http://www.w3.org/2000/svg">
<path d="M8.23808 18.9V20.7C6.72149 20.7 5.49205 21.9088 5.49205 23.4V51.3C5.49205 52.7912 6.72149 54 8.23808 54H21.9682C23.4848 54 24.7142 52.7912 24.7142 51.3V23.4C24.7142 21.9088 23.4848 20.7 21.9682 20.7V18C21.9643 16.3089 20.7638 14.8485 19.083 14.49L17.5178 6.264C18.0007 6.18024 18.4286 5.90814 18.7044 5.50951C18.9802 5.11088 19.0805 4.61957 18.9824 4.1472L18.4332 1.4472C18.2601 0.608466 17.5122 0.00424015 16.6418 0H13.5644C12.6926 0.00218911 11.9424 0.606956 11.7695 1.4472L11.515 2.7H8.23808C5.29489 2.7 2.57528 4.24385 1.10369 6.75C-0.367898 9.25615 -0.367898 12.3439 1.10369 14.85C2.57528 17.3561 5.29489 18.9 8.23808 18.9ZM22.8835 45H7.32273V29.7H22.8835V45ZM21.9682 52.2H8.23808C7.73255 52.2 7.32273 51.7971 7.32273 51.3V46.8H22.8835V51.3C22.8835 51.7971 22.4737 52.2 21.9682 52.2ZM22.8835 23.4V27.9H7.32273V23.4C7.32273 22.9029 7.73255 22.5 8.23808 22.5H21.9682C22.4737 22.5 22.8835 22.9029 22.8835 23.4ZM20.1375 18V20.7H10.0688V18C10.0688 17.0059 10.8884 16.2 11.8994 16.2H18.3068C19.3179 16.2 20.1375 17.0059 20.1375 18ZM14.5448 6.3H15.6615L17.2084 14.4H13.007L14.5448 6.3ZM14.6455 1.8H16.6427L17.1919 4.5H13.0162L13.5654 1.8H14.6455ZM8.23808 4.5H11.1891C11.1829 5.36941 11.8172 6.11567 12.6885 6.264L11.1232 14.49C9.77882 14.7815 8.71435 15.7899 8.36805 17.1H8.23808C4.69937 17.1 1.83068 14.2794 1.83068 10.8C1.83068 7.32061 4.69937 4.5 8.23808 4.5Z" fill="#6A6A6A"/>
<path d="M52.7281 16.8102L53.3185 15.3585C53.7726 14.2457 54.0054 13.0575 54.0041 11.8584V7.2C53.9995 3.2254 50.7237 0.00446389 46.6814 0H33.8666C29.8242 0.00446389 26.5484 3.2254 26.5439 7.2V11.8584C26.5424 13.0572 26.7751 14.2451 27.2294 15.3576L27.8198 16.8111C28.1873 17.711 28.3756 18.6719 28.3745 19.6416V23.1885C28.3726 24.3718 28.0922 25.5387 27.5553 26.5977C26.892 27.9068 26.5459 29.349 26.5439 30.8115V34.2C26.5439 38.3598 29.4336 41.4675 31.17 42.9624C30.5604 43.4699 30.2078 44.2146 30.2052 45V51.3C30.2052 52.7912 31.4347 54 32.9512 54H47.5967C49.1133 54 50.3427 52.7912 50.3427 51.3V45C50.3402 44.2146 49.9875 43.4699 49.3779 42.9624C51.1143 41.4675 54.0041 38.3598 54.0041 34.2V30.8115C54.0034 29.3491 53.6588 27.9066 52.9972 26.5968C52.4586 25.5385 52.1766 24.3719 52.1734 23.1885V19.6416C52.1724 18.6716 52.3607 17.7104 52.7281 16.8102ZM48.512 48.6H43.8054C43.3943 47.0122 41.9403 45.9008 40.274 45.9008C38.6076 45.9008 37.1536 47.0122 36.7426 48.6H32.0359V45C32.0359 44.5029 32.4457 44.1 32.9512 44.1H47.5967C48.1022 44.1 48.512 44.5029 48.512 45V48.6ZM47.5967 52.2H32.9512C32.4457 52.2 32.0359 51.7971 32.0359 51.3V50.4H37.5279C38.0335 50.4 38.4433 49.9971 38.4433 49.5C38.4433 48.5059 39.2629 47.7 40.274 47.7C41.285 47.7 42.1046 48.5059 42.1046 49.5C42.1046 49.9971 42.5145 50.4 43.02 50.4H48.512V51.3C48.512 51.7971 48.1022 52.2 47.5967 52.2ZM51.3496 27.4032C51.8882 28.4615 52.1702 29.6281 52.1734 30.8115V34.2C52.1734 38.4633 48.2695 41.5908 47.3029 42.3H33.2451C32.2785 41.5908 28.3745 38.4633 28.3745 34.2V30.8115C28.3764 29.6282 28.6568 28.4613 29.1938 27.4023C29.857 26.0932 30.2032 24.651 30.2052 23.1885V19.6416C30.2067 18.4428 29.974 17.2549 29.5196 16.1424L28.9292 14.6889C28.5618 13.789 28.3735 12.8281 28.3745 11.8584V7.2C28.3776 4.2189 30.8347 1.80298 33.8666 1.8H46.6814C49.7133 1.80298 52.1704 4.2189 52.1734 7.2V11.8584C52.1744 12.8284 51.9861 13.7896 51.6187 14.6898L51.0283 16.1415C50.5742 17.2543 50.3414 18.4425 50.3427 19.6416V23.1885C50.3448 24.6513 50.691 26.0938 51.3542 27.4032H51.3496Z" fill="#6A6A6A"/>
<path d="M32.0364 34.1995C32.0364 33.7024 31.6266 33.2994 31.121 33.2994C30.6155 33.2994 30.2057 33.7024 30.2057 34.1995C30.2057 36.9159 32.3439 39.1724 33.6181 40.275C33.862 40.4969 34.209 40.5714 34.5248 40.4696C34.8405 40.3678 35.0754 40.1058 35.1384 39.785C35.2014 39.4642 35.0827 39.135 34.8282 38.9249C33.9888 38.1976 32.0364 36.2823 32.0364 34.1995Z" fill="#6A6A6A"/>
<path d="M31.121 8.09985C31.6266 8.09985 32.0364 7.69687 32.0364 7.19977C32.0364 6.20556 32.856 5.3996 33.8671 5.3996C34.3726 5.3996 34.7824 4.99661 34.7824 4.49951C34.7824 4.00241 34.3726 3.59943 33.8671 3.59943C31.845 3.59943 30.2057 5.21135 30.2057 7.19977C30.2057 7.43848 30.3021 7.66742 30.4738 7.83622C30.6455 8.00502 30.8783 8.09985 31.121 8.09985Z" fill="#6A6A6A"/>
<path d="M47.4494 11.6994H46.2988L46.5734 9.8283C46.7038 8.96617 46.1847 8.13675 45.3432 7.8627C42.0255 6.9783 38.5281 6.9783 35.2104 7.8627C34.369 8.13639 33.8499 8.96551 33.9802 9.8274L34.2548 11.6994H33.0987C32.5651 11.6992 32.058 11.928 31.7101 12.3257C31.3622 12.7235 31.2081 13.2507 31.2881 13.7694L33.7596 29.9694C33.8997 30.847 34.6666 31.4951 35.5701 31.4994H44.978C45.8815 31.4951 46.6484 30.847 46.7885 29.9694L49.26 13.7694C49.34 13.2507 49.1859 12.7235 48.838 12.3257C48.4901 11.928 47.983 11.6992 47.4494 11.6994ZM44.978 29.6994H35.5701L33.0987 13.4994H35.3038C35.5692 13.4997 35.8217 13.3866 35.9957 13.1896C36.1698 12.9925 36.2483 12.7309 36.2109 12.4725L35.7761 9.5745C37.2449 9.19768 38.7561 9.00445 40.2741 8.9994C41.7878 9.00315 43.295 9.19609 44.7592 9.5736L44.3391 12.4725C44.3017 12.7306 44.38 12.9919 44.5536 13.1889C44.7273 13.3859 44.9792 13.4991 45.2444 13.4994H47.4494L44.978 29.6994Z" fill="#6A6A6A"/>
<path d="M43.935 15.2994H36.6122C36.1067 15.2994 35.6969 15.7024 35.6969 16.1995C35.6969 16.6966 36.1067 17.0996 36.6122 17.0996H43.935C44.4405 17.0996 44.8503 16.6966 44.8503 16.1995C44.8503 15.7024 44.4405 15.2994 43.935 15.2994Z" fill="#6A6A6A"/>
<path d="M43.0213 18.8994H37.5293C37.0238 18.8994 36.6139 19.3023 36.6139 19.7994C36.6139 20.2965 37.0238 20.6995 37.5293 20.6995H43.0213C43.5269 20.6995 43.9367 20.2965 43.9367 19.7994C43.9367 19.3023 43.5269 18.8994 43.0213 18.8994Z" fill="#6A6A6A"/>
</svg>
